M48
;Layer_Color=9474304
;FILE_FORMAT=2:5
INCH,TZ
;TYPE=PLATED
T1F00S00C0.01575
T2F00S00C0.03000
T3F00S00C0.03150
T4F00S00C0.03543
T5F00S00C0.03937
T6F00S00C0.04016
T7F00S00C0.04134
T8F00S00C0.04331
T9F00S00C0.04724
T10F00S00C0.05118
T11F00S00C0.05512
T12F00S00C0.05906
T13F00S00C0.11811
%
T01
X7500Y-160000
X111791Y-101000
X101526Y-57276
X103500Y-47963
X184500Y-43146
X184646Y-58646
X22185Y-94000
X14500Y-123000
X29500Y-137500
X-9421Y-128711
X-53354Y-79280
X-72500Y-70284
X-63197Y-59595
X-43512
X-53354Y-39909
X-73039
X-63197Y-20224
X-43512
X-82882
X-102567
X-122252
X-141937
X-161622
Y-59595
X-141937
X-132095Y-39909
X-112409
X-92724
X-82882Y-59595
X-102567
X-92724Y-79280
X-112409
X-132095
X-151779
X-171465
Y-539
X-151779
X-161622Y19146
X-141937
X-132500Y36000
X-133000Y69000
X-132095Y78201
X-139500Y63388
X-153500Y63453
X-160854Y68388
X-169500Y73453
X-171465Y38831
X-94000Y36500
X-92500Y19000
X-80063Y18500
X-87240Y-921
X-104000Y52500
X-102567Y97886
X-92724Y117571
X-132095
X-151779
X-141937Y137256
X-122252
X-161622
X-78500Y82500
X-63197Y97886
X-57500Y110500
X-48000Y104598
Y88500
X-28500Y87500
X-24543Y100457
X-15000Y99000
X-2106Y105280
X-3500Y108500
X5701Y117571
X3626Y95563
X11500Y95500
X11626Y87063
X19500
X15543Y137256
X-4142
X-23500Y112406
X-33669Y117571
X-73039
X-63197Y58516
X-43512
X-53354Y38831
X-74158Y36500
X-71500Y29000
X-74000Y19000
X-42500Y2000
X-26500Y3500
X-24000Y7500
X-21500Y5000
X-19000Y8000
X-23500Y20500
X-27000Y22000
X-21000Y25500
X-18500Y29000
X45071Y117571
X64756
X54913Y137256
X76809Y136683
X88000Y135764
X108000Y145000
X116000
X126500
X134000
X122500Y132500
X120000Y129500
X123000Y127000
X104126Y117571
X163181
X169500Y137000
X173110Y135264
X187000Y136500
X187607Y139893
X169500Y150000
X173000Y153500
T02
X-95811Y53167
X-87937
X-80063
Y73888
X-87937
X-95811
Y90279
X-87937
X-80063
Y111000
X-87937
X-95811
X-72189
Y90279
Y73888
Y53167
T03
X112185Y-36906
Y-26906
X21976
Y-36906
T04
X-184000Y-52500
X-174000
X-164000
X-154000
X-144000
X-134000
X-124000
X-97937Y128500
X-87937
T05
X-102717Y152500
X-85000
X-65158
X-47441
T06
X-180500Y-14000
Y-4000
X-120500
Y-14000
Y6000
Y16000
Y26000
Y36000
Y46000
Y56000
Y66000
Y76000
Y86000
Y96000
Y106000
Y116000
Y126000
X-180500
Y116000
Y106000
Y96000
Y86000
Y76000
Y66000
Y56000
Y46000
Y36000
Y26000
Y16000
Y6000
T07
X-72500Y-52665
T08
X114500Y-151500
X124500
X134500
X45500
X35500
X25500
X21976Y13094
Y33094
X112185
Y13094
T09
X-29500Y-151500
X-19500
X-3000
X7000
T10
X-72500Y-23335
X-80059Y142697
X-107658
X-70098
X-42500
T11
X90838Y-77595
X132193
X155815Y-85469
X179437Y-77595
Y-29563
X132193
X90838
X43595
Y-77595
X67216Y-85469
X43595Y15872
Y63903
X67216Y71777
X90838Y63903
X132193
X155815Y71777
X179437Y63903
Y15872
X132193
X90838
T12
X86901Y-126000
X155815
X175500
X67216
Y125500
X-3658Y125906
X-23343
X86901Y125500
X155815
X175500
T13
X-157283Y-96063
Y96063
X157283
M30
