G04*
G04 #@! TF.GenerationSoftware,Altium Limited,Altium Designer,19.0.10 (269)*
G04*
G04 Layer_Physical_Order=1*
G04 Layer_Color=255*
%FSLAX25Y25*%
%MOIN*%
G70*
G01*
G75*
%ADD15C,0.01000*%
%ADD18C,0.01500*%
%ADD21C,0.11000*%
%ADD22R,0.05906X0.04724*%
%ADD23R,0.04724X0.01772*%
%ADD24R,0.03543X0.02756*%
%ADD25R,0.04724X0.05906*%
%ADD26R,0.01968X0.03150*%
%ADD27R,0.03937X0.01575*%
%ADD28R,0.05906X0.09843*%
%ADD29R,0.02756X0.03543*%
%ADD30R,0.03150X0.03543*%
%ADD31R,0.02362X0.04528*%
%ADD32R,0.03150X0.01968*%
%ADD33R,0.02165X0.01378*%
%ADD34R,0.02756X0.06299*%
%ADD35R,0.03543X0.03150*%
%ADD36R,0.02756X0.03740*%
%ADD37R,0.07480X0.04331*%
%ADD72C,0.10000*%
%ADD73C,0.05000*%
%ADD74C,0.02000*%
%ADD75C,0.03000*%
%ADD76C,0.06496*%
%ADD77C,0.05118*%
%ADD78C,0.06024*%
%ADD79R,0.06024X0.06024*%
%ADD80C,0.10630*%
%ADD81R,0.07087X0.07087*%
%ADD82C,0.07087*%
%ADD83C,0.06299*%
%ADD84C,0.07874*%
%ADD85C,0.05906*%
%ADD86R,0.05906X0.05906*%
%ADD87C,0.06000*%
%ADD88C,0.06102*%
%ADD89R,0.06000X0.06000*%
%ADD90C,0.23622*%
%ADD91C,0.15748*%
%ADD92C,0.09843*%
%ADD93C,0.02362*%
%ADD94C,0.03937*%
%ADD95C,0.05512*%
%ADD96C,0.04724*%
G36*
X-87152Y155687D02*
X-87738Y155238D01*
X-88353Y154436D01*
X-88740Y153502D01*
X-88872Y152500D01*
X-88805Y151993D01*
X-107149Y133649D01*
X-107655Y132893D01*
X-107832Y132000D01*
Y121966D01*
X-120028Y109770D01*
X-120500Y109832D01*
X-121492Y109701D01*
X-122095Y109451D01*
X-123572Y110928D01*
X-123998Y111213D01*
X-124500Y111313D01*
X-176124D01*
X-176331Y111813D01*
X-131956Y156187D01*
X-105387D01*
X-105218Y155687D01*
X-105606Y155389D01*
X-106255Y154543D01*
X-106663Y153558D01*
X-106737Y153000D01*
X-102717D01*
X-98696D01*
X-98770Y153558D01*
X-99178Y154543D01*
X-99827Y155389D01*
X-100216Y155687D01*
X-100046Y156187D01*
X-87321D01*
X-87152Y155687D01*
D02*
G37*
G36*
X191703Y109500D02*
X116666D01*
X116475Y109962D01*
X123928Y117415D01*
X124213Y117841D01*
X124313Y118343D01*
Y125510D01*
X124419Y125581D01*
X124854Y126232D01*
X125007Y127000D01*
X124854Y127768D01*
X124419Y128419D01*
X124063Y128657D01*
Y131295D01*
X124354Y131732D01*
X124507Y132500D01*
X124430Y132886D01*
X124831Y133386D01*
X129650D01*
Y135304D01*
X130850D01*
Y133386D01*
X137150D01*
Y137698D01*
X140789Y141337D01*
X140789Y141337D01*
X141184Y141929D01*
X141322Y142626D01*
Y145245D01*
X147255Y151178D01*
X159745D01*
X167678Y143245D01*
Y137816D01*
X167646Y137768D01*
X167493Y137000D01*
X167646Y136232D01*
X168081Y135581D01*
X168732Y135146D01*
X169500Y134993D01*
X170268Y135146D01*
X170411Y135241D01*
X170940Y134994D01*
X171056Y134413D01*
X171538Y133692D01*
X172259Y133210D01*
X172610Y133140D01*
Y135264D01*
Y137388D01*
X172259Y137319D01*
X171989Y137138D01*
X171434Y137369D01*
X171354Y137768D01*
X171322Y137816D01*
Y144000D01*
X171184Y144697D01*
X170789Y145289D01*
X170789Y145289D01*
X168132Y147945D01*
X168451Y148334D01*
X168732Y148146D01*
X169500Y147993D01*
X169626Y148018D01*
X182072Y135572D01*
X182498Y135287D01*
X183000Y135187D01*
X185510D01*
X185581Y135081D01*
X186232Y134646D01*
X187000Y134493D01*
X187768Y134646D01*
X188419Y135081D01*
X188854Y135732D01*
X189007Y136500D01*
X188854Y137268D01*
X188607Y137639D01*
X188434Y137936D01*
X188734Y138279D01*
X189026Y138474D01*
X189461Y139125D01*
X189614Y139893D01*
X189461Y140662D01*
X189026Y141313D01*
X188375Y141748D01*
X187607Y141901D01*
X186838Y141748D01*
X186701Y141656D01*
X174982Y153374D01*
X175007Y153500D01*
X174854Y154268D01*
X174419Y154919D01*
X173768Y155354D01*
X173000Y155507D01*
X172232Y155354D01*
X171581Y154919D01*
X171146Y154268D01*
X170993Y153500D01*
X171146Y152732D01*
X171581Y152081D01*
X172232Y151646D01*
X173000Y151493D01*
X173126Y151518D01*
X185418Y139226D01*
X185844Y138941D01*
X185880Y138934D01*
X185986Y138776D01*
X185885Y138128D01*
X185872Y138114D01*
X185581Y137919D01*
X185510Y137813D01*
X183544D01*
X171482Y149874D01*
X171507Y150000D01*
X171354Y150768D01*
X170919Y151419D01*
X170268Y151854D01*
X169500Y152007D01*
X168732Y151854D01*
X168081Y151419D01*
X167646Y150768D01*
X167493Y150000D01*
X167646Y149232D01*
X167833Y148951D01*
X167445Y148632D01*
X161789Y154289D01*
X161197Y154684D01*
X160500Y154822D01*
X160500Y154822D01*
X146500D01*
X145803Y154684D01*
X145211Y154289D01*
X145211Y154289D01*
X138211Y147289D01*
X137816Y146697D01*
X137678Y146000D01*
X137678Y146000D01*
Y143829D01*
X137650Y143810D01*
X137150Y144077D01*
X137150Y148509D01*
X137362Y148921D01*
X137362Y149152D01*
Y152374D01*
X130638D01*
Y149152D01*
X130638Y148921D01*
X130850Y148509D01*
X130850Y148421D01*
Y141260D01*
X130850Y141260D01*
Y140866D01*
X130850D01*
X130850Y140760D01*
Y138948D01*
X129650D01*
Y140760D01*
X129650Y140866D01*
Y141260D01*
X129650Y141366D01*
X129650Y148509D01*
X129862Y148921D01*
X129862Y149152D01*
Y152374D01*
X123138D01*
Y149152D01*
X123138Y148921D01*
X123350Y148509D01*
X123350Y148421D01*
Y141366D01*
X123350Y141260D01*
Y140866D01*
X123350Y140760D01*
Y138948D01*
X119150D01*
Y140760D01*
X119150Y140866D01*
Y141260D01*
X119150Y141366D01*
X119150Y148509D01*
X119362Y148921D01*
X119362Y149152D01*
Y152374D01*
X112638D01*
Y149152D01*
X112638Y148921D01*
X112850Y148509D01*
X112850Y148421D01*
Y141366D01*
X112850Y141260D01*
Y140866D01*
X112850Y140760D01*
Y138948D01*
X111150D01*
Y140760D01*
X111150Y140866D01*
Y141260D01*
X111150Y141366D01*
X111150Y148509D01*
X111362Y148921D01*
X111362Y149152D01*
Y152374D01*
X104638D01*
Y149152D01*
X104638Y148921D01*
X104850Y148509D01*
X104850Y148421D01*
Y141366D01*
X104850Y141260D01*
Y140866D01*
X104850Y140760D01*
Y139813D01*
X78626D01*
X78124Y139713D01*
X77698Y139428D01*
X76935Y138665D01*
X76809Y138690D01*
X76041Y138538D01*
X75390Y138102D01*
X74955Y137451D01*
X74802Y136683D01*
X74955Y135915D01*
X75390Y135264D01*
X76041Y134829D01*
X76809Y134676D01*
X77577Y134829D01*
X78228Y135264D01*
X78664Y135915D01*
X78816Y136683D01*
X78791Y136809D01*
X79170Y137187D01*
X85798D01*
X86033Y136746D01*
X85945Y136615D01*
X85876Y136264D01*
X90124D01*
X90055Y136615D01*
X89967Y136746D01*
X90202Y137187D01*
X104850D01*
Y133386D01*
X111150D01*
Y135304D01*
X112850D01*
Y133386D01*
X113668D01*
Y117966D01*
X105202Y109500D01*
X8500D01*
Y109088D01*
X8038Y108896D01*
X7434Y109500D01*
X4000Y112934D01*
X-589Y117523D01*
X-1345Y118029D01*
X-2238Y118206D01*
X-27626D01*
X-28519Y118029D01*
X-29275Y117523D01*
X-37525Y109273D01*
X-42882D01*
Y110063D01*
X-42770Y110230D01*
X-42593Y111122D01*
Y114342D01*
X-42390D01*
Y115913D01*
X-42223Y116752D01*
Y117000D01*
X-42390Y117839D01*
Y119658D01*
X-46720D01*
Y117839D01*
X-46728Y117801D01*
X-47080Y117274D01*
X-47257Y116382D01*
Y111929D01*
X-47750Y111858D01*
X-48081Y112658D01*
X-48608Y113345D01*
X-48787Y113482D01*
Y113559D01*
X-48888D01*
X-49009Y113652D01*
X-49067Y114130D01*
X-49067D01*
X-49067Y114130D01*
Y116500D01*
X-51445D01*
X-53823D01*
Y114130D01*
X-54193Y113816D01*
X-57500D01*
X-58358Y113703D01*
X-59158Y113372D01*
X-59845Y112845D01*
X-60372Y112158D01*
X-60703Y111358D01*
X-60816Y110500D01*
X-60703Y109642D01*
X-60372Y108842D01*
X-59845Y108155D01*
X-59832Y108146D01*
Y106126D01*
X-59655Y105234D01*
X-59149Y104477D01*
X-53480Y98808D01*
X-52723Y98302D01*
X-51831Y98124D01*
X-24543D01*
X-23651Y98302D01*
X-22894Y98808D01*
X-22389Y99564D01*
X-22211Y100457D01*
X-22323Y101019D01*
X-19375Y103967D01*
X-18783D01*
Y103220D01*
X-15421D01*
Y102220D01*
X-18783D01*
Y100835D01*
X-18571D01*
Y98488D01*
X-16905D01*
X-16854Y98232D01*
X-16574Y97813D01*
X-16841Y97313D01*
X-56121D01*
X-56624Y97213D01*
X-57050Y96928D01*
X-67696Y86281D01*
X-70636D01*
X-70736Y86781D01*
X-70279Y86970D01*
X-69488Y87577D01*
X-68881Y88369D01*
X-68499Y89290D01*
X-68369Y90279D01*
X-68499Y91267D01*
X-68881Y92189D01*
X-69488Y92980D01*
X-69857Y93263D01*
Y108016D01*
X-69488Y108299D01*
X-68881Y109090D01*
X-68499Y110011D01*
X-68369Y111000D01*
X-68430Y111461D01*
X-62225Y117666D01*
X-61719Y118422D01*
X-61542Y119315D01*
Y150377D01*
X-61652Y150932D01*
X-61418Y151498D01*
X-61286Y152500D01*
X-61418Y153502D01*
X-61804Y154436D01*
X-62420Y155238D01*
X-63006Y155687D01*
X-62836Y156187D01*
X-52985D01*
X-50923Y154125D01*
X-51181Y153502D01*
X-51313Y152500D01*
X-51181Y151498D01*
X-50794Y150564D01*
X-50179Y149762D01*
X-49377Y149147D01*
X-48443Y148760D01*
X-47441Y148628D01*
X-46439Y148760D01*
X-45505Y149147D01*
X-44703Y149762D01*
X-44088Y150564D01*
X-43701Y151498D01*
X-43569Y152500D01*
X-43701Y153502D01*
X-44088Y154436D01*
X-44703Y155238D01*
X-45505Y155853D01*
X-46439Y156240D01*
X-47441Y156372D01*
X-48443Y156240D01*
X-49066Y155982D01*
X-51513Y158428D01*
X-51939Y158713D01*
X-52441Y158813D01*
X-132500D01*
X-133002Y158713D01*
X-133428Y158428D01*
X-176241Y115615D01*
X-176690Y115836D01*
X-176668Y116000D01*
X-176799Y116992D01*
X-177181Y117916D01*
X-177790Y118710D01*
X-178584Y119319D01*
X-179508Y119701D01*
X-180500Y119832D01*
X-181492Y119701D01*
X-182416Y119319D01*
X-183210Y118710D01*
X-183819Y117916D01*
X-184201Y116992D01*
X-184332Y116000D01*
X-184201Y115008D01*
X-183951Y114405D01*
X-187725Y110631D01*
X-188187Y110822D01*
Y116456D01*
X-182443Y122201D01*
X-176701D01*
Y129799D01*
X-184299D01*
Y124057D01*
X-190428Y117928D01*
X-190713Y117502D01*
X-190813Y117000D01*
Y-24648D01*
X-190713Y-25150D01*
X-190428Y-25576D01*
X-171576Y-44428D01*
X-171151Y-44713D01*
X-170648Y-44813D01*
X-141286D01*
X-139813Y-46286D01*
Y-51459D01*
X-140310Y-51511D01*
X-140692Y-50590D01*
X-141299Y-49799D01*
X-142090Y-49192D01*
X-143011Y-48810D01*
X-144000Y-48680D01*
X-144989Y-48810D01*
X-145910Y-49192D01*
X-146701Y-49799D01*
X-147308Y-50590D01*
X-147690Y-51511D01*
X-147820Y-52500D01*
X-147690Y-53489D01*
X-147308Y-54410D01*
X-146701Y-55201D01*
X-145910Y-55808D01*
X-144989Y-56190D01*
X-144000Y-56320D01*
X-143011Y-56190D01*
X-142090Y-55808D01*
X-141299Y-55201D01*
X-140692Y-54410D01*
X-140310Y-53489D01*
X-139813Y-53541D01*
Y-57948D01*
X-140313Y-58100D01*
X-140365Y-58022D01*
X-141086Y-57540D01*
X-141437Y-57470D01*
Y-59595D01*
Y-61719D01*
X-141086Y-61649D01*
X-140365Y-61167D01*
X-140313Y-61089D01*
X-139813Y-61241D01*
Y-74000D01*
X-139713Y-74502D01*
X-139428Y-74928D01*
X-138566Y-75790D01*
X-138140Y-76075D01*
X-137638Y-76175D01*
X-132983D01*
X-132480Y-76075D01*
X-132054Y-75790D01*
X-131056Y-74792D01*
X-130772Y-74366D01*
X-130771Y-74362D01*
X-129728D01*
Y-73313D01*
X-127772D01*
Y-74362D01*
X-121228D01*
Y-69638D01*
X-121687D01*
Y-67362D01*
X-121228D01*
Y-62638D01*
X-122172D01*
Y-55842D01*
X-122090Y-55808D01*
X-121299Y-55201D01*
X-120692Y-54410D01*
X-120310Y-53489D01*
X-120180Y-52500D01*
X-120310Y-51511D01*
X-120692Y-50590D01*
X-121299Y-49799D01*
X-122090Y-49192D01*
X-123011Y-48810D01*
X-124000Y-48680D01*
X-124989Y-48810D01*
X-125910Y-49192D01*
X-126701Y-49799D01*
X-127187Y-50432D01*
X-127687Y-50263D01*
Y-46500D01*
X-127787Y-45998D01*
X-128072Y-45572D01*
X-131214Y-42429D01*
X-131081Y-41855D01*
X-130522Y-41482D01*
X-130040Y-40760D01*
X-129970Y-40409D01*
X-134329D01*
X-134558Y-40687D01*
X-169483D01*
X-186687Y-23483D01*
Y-322D01*
X-186225Y-131D01*
X-183951Y-2405D01*
X-184201Y-3008D01*
X-184332Y-4000D01*
X-184201Y-4992D01*
X-183819Y-5916D01*
X-183210Y-6710D01*
X-182416Y-7319D01*
X-181492Y-7701D01*
X-180500Y-7832D01*
X-179508Y-7701D01*
X-178584Y-7319D01*
X-177790Y-6710D01*
X-177181Y-5916D01*
X-176799Y-4992D01*
X-176668Y-4000D01*
X-176799Y-3008D01*
X-177181Y-2084D01*
X-177790Y-1290D01*
X-178584Y-681D01*
X-179508Y-299D01*
X-180500Y-168D01*
X-181492Y-299D01*
X-182095Y-549D01*
X-185187Y2544D01*
Y105536D01*
X-184823Y105901D01*
X-184295Y105721D01*
X-184201Y105008D01*
X-183819Y104084D01*
X-183210Y103290D01*
X-182416Y102681D01*
X-181492Y102299D01*
X-180500Y102168D01*
X-179508Y102299D01*
X-178584Y102681D01*
X-177790Y103290D01*
X-177181Y104084D01*
X-176799Y105008D01*
X-176668Y106000D01*
X-176799Y106992D01*
X-177049Y107595D01*
X-175956Y108687D01*
X-160808D01*
X-160749Y108187D01*
X-161189Y108082D01*
X-163021Y107323D01*
X-164711Y106287D01*
X-166219Y104999D01*
X-167507Y103491D01*
X-168544Y101800D01*
X-169302Y99968D01*
X-169765Y98040D01*
X-169921Y96063D01*
X-169765Y94086D01*
X-169302Y92158D01*
X-168544Y90326D01*
X-167507Y88635D01*
X-166219Y87127D01*
X-164711Y85839D01*
X-163021Y84803D01*
X-161189Y84044D01*
X-159260Y83581D01*
X-157283Y83426D01*
X-156994Y83448D01*
X-156785Y82994D01*
X-159272Y80508D01*
X-159556Y80082D01*
X-159656Y79580D01*
Y79259D01*
X-162297Y76618D01*
X-165559D01*
Y72287D01*
X-160441D01*
Y74762D01*
X-157415Y77788D01*
X-157131Y78213D01*
X-157031Y78716D01*
Y79036D01*
X-156080Y79987D01*
X-155618Y79795D01*
Y76941D01*
X-155984Y76618D01*
X-156059D01*
Y72287D01*
X-150941D01*
Y76618D01*
X-150941D01*
X-150894Y76941D01*
X-150894Y76941D01*
X-150894Y77099D01*
Y81652D01*
X-150319D01*
Y80000D01*
X-147744D01*
X-145169D01*
Y81652D01*
X-141997D01*
X-141495Y81752D01*
X-141069Y82036D01*
X-133418Y89687D01*
X-122757D01*
X-122587Y89187D01*
X-123210Y88710D01*
X-123819Y87916D01*
X-124201Y86992D01*
X-124332Y86000D01*
X-124201Y85008D01*
X-123819Y84084D01*
X-123210Y83290D01*
X-122416Y82681D01*
X-121492Y82299D01*
X-120500Y82168D01*
X-119508Y82299D01*
X-118584Y82681D01*
X-117790Y83290D01*
X-117181Y84084D01*
X-116799Y85008D01*
X-116668Y86000D01*
X-116799Y86992D01*
X-117181Y87916D01*
X-117790Y88710D01*
X-118584Y89319D01*
X-119336Y89630D01*
X-119527Y90070D01*
X-119535Y90209D01*
X-119405Y90388D01*
X-118719D01*
X-118217Y90488D01*
X-117791Y90773D01*
X-114054Y94510D01*
X-113769Y94936D01*
X-113670Y95438D01*
Y107439D01*
X-102072Y119036D01*
X-101787Y119462D01*
X-101687Y119965D01*
Y122893D01*
X-99487Y125094D01*
X-98913Y124856D01*
X-97937Y124728D01*
X-96961Y124856D01*
X-96051Y125233D01*
X-95270Y125832D01*
X-94670Y126614D01*
X-94293Y127524D01*
X-94165Y128500D01*
X-94293Y129476D01*
X-94670Y130386D01*
X-95270Y131167D01*
X-96051Y131767D01*
X-96961Y132144D01*
X-97937Y132272D01*
X-98913Y132144D01*
X-99823Y131767D01*
X-100604Y131167D01*
X-101204Y130386D01*
X-101581Y129476D01*
X-101709Y128500D01*
X-101581Y127524D01*
X-101343Y126950D01*
X-102706Y125587D01*
X-103168Y125779D01*
Y131034D01*
X-85507Y148695D01*
X-85000Y148628D01*
X-83998Y148760D01*
X-83064Y149147D01*
X-82262Y149762D01*
X-81647Y150564D01*
X-81260Y151498D01*
X-81128Y152500D01*
X-81260Y153502D01*
X-81647Y154436D01*
X-82262Y155238D01*
X-82848Y155687D01*
X-82679Y156187D01*
X-67479D01*
X-67309Y155687D01*
X-67895Y155238D01*
X-68511Y154436D01*
X-68897Y153502D01*
X-69029Y152500D01*
X-68897Y151498D01*
X-68511Y150564D01*
X-67895Y149762D01*
X-67093Y149147D01*
X-66206Y148779D01*
Y146163D01*
X-66680Y146002D01*
X-66729Y146066D01*
X-67716Y146824D01*
X-68865Y147300D01*
X-70098Y147462D01*
X-71332Y147300D01*
X-72481Y146824D01*
X-73468Y146066D01*
X-74225Y145079D01*
X-74701Y143930D01*
X-74827Y142978D01*
X-75331D01*
X-75456Y143930D01*
X-75932Y145079D01*
X-76690Y146066D01*
X-77676Y146824D01*
X-78826Y147300D01*
X-80059Y147462D01*
X-81292Y147300D01*
X-82442Y146824D01*
X-83429Y146066D01*
X-84186Y145079D01*
X-84662Y143930D01*
X-84824Y142697D01*
X-84662Y141463D01*
X-84186Y140314D01*
X-83429Y139327D01*
X-82442Y138570D01*
X-81292Y138094D01*
X-80059Y137932D01*
X-78826Y138094D01*
X-77676Y138570D01*
X-76690Y139327D01*
X-75932Y140314D01*
X-75456Y141463D01*
X-75331Y142416D01*
X-74827D01*
X-74701Y141463D01*
X-74225Y140314D01*
X-73468Y139327D01*
X-72481Y138570D01*
X-71332Y138094D01*
X-70098Y137932D01*
X-68865Y138094D01*
X-67716Y138570D01*
X-66729Y139327D01*
X-66680Y139392D01*
X-66206Y139231D01*
Y120281D01*
X-71728Y114759D01*
X-72189Y114820D01*
X-73178Y114690D01*
X-74099Y114308D01*
X-74890Y113701D01*
X-75497Y112910D01*
X-75879Y111989D01*
X-76373D01*
X-76755Y112910D01*
X-77362Y113701D01*
X-78153Y114308D01*
X-79074Y114690D01*
X-80063Y114820D01*
X-81052Y114690D01*
X-81973Y114308D01*
X-82764Y113701D01*
X-83371Y112910D01*
X-83753Y111989D01*
X-84247D01*
X-84629Y112910D01*
X-85236Y113701D01*
X-86027Y114308D01*
X-86624Y114556D01*
Y124760D01*
X-84197D01*
Y132240D01*
X-91677D01*
Y124760D01*
X-89250D01*
Y114556D01*
X-89847Y114308D01*
X-90638Y113701D01*
X-91245Y112910D01*
X-91488Y112323D01*
X-92030D01*
X-92317Y113017D01*
X-92958Y113853D01*
X-93794Y114494D01*
X-94767Y114897D01*
X-95311Y114969D01*
Y111000D01*
Y107031D01*
X-94767Y107103D01*
X-93794Y107506D01*
X-92958Y108147D01*
X-92317Y108983D01*
X-92030Y109677D01*
X-91488D01*
X-91245Y109090D01*
X-90638Y108299D01*
X-89847Y107692D01*
X-89250Y107444D01*
Y93834D01*
X-89847Y93587D01*
X-90638Y92980D01*
X-91245Y92189D01*
X-91488Y91602D01*
X-92030D01*
X-92317Y92296D01*
X-92958Y93132D01*
X-93794Y93773D01*
X-94767Y94176D01*
X-95311Y94247D01*
Y90279D01*
Y86310D01*
X-94767Y86382D01*
X-94136Y86643D01*
X-93853Y86219D01*
X-98460Y81612D01*
X-123457D01*
X-123959Y81512D01*
X-124385Y81227D01*
X-132800Y72813D01*
X-147923D01*
X-148425Y72713D01*
X-148851Y72428D01*
X-150676Y70603D01*
X-150941Y70713D01*
Y70713D01*
X-156059D01*
Y69860D01*
X-159514D01*
X-160086Y70242D01*
X-160441Y70313D01*
Y70713D01*
X-165559D01*
Y66382D01*
X-160941D01*
X-160859Y66382D01*
X-160854Y66381D01*
X-160441Y66382D01*
Y66463D01*
X-160086Y66534D01*
X-159435Y66969D01*
X-159257Y67235D01*
X-157683D01*
X-157538Y66735D01*
X-157772Y66384D01*
X-157872Y65882D01*
Y61541D01*
X-157772Y61039D01*
X-157487Y60613D01*
X-156446Y59572D01*
X-156059Y59313D01*
Y55382D01*
X-155984D01*
X-155618Y55059D01*
Y50754D01*
X-163397D01*
X-177049Y64405D01*
X-176799Y65008D01*
X-176668Y66000D01*
X-176799Y66992D01*
X-177181Y67916D01*
X-177790Y68710D01*
X-178584Y69319D01*
X-179508Y69701D01*
X-180500Y69832D01*
X-181492Y69701D01*
X-182416Y69319D01*
X-183210Y68710D01*
X-183819Y67916D01*
X-184201Y66992D01*
X-184332Y66000D01*
X-184201Y65008D01*
X-183819Y64084D01*
X-183210Y63290D01*
X-182416Y62681D01*
X-181492Y62299D01*
X-180500Y62168D01*
X-179508Y62299D01*
X-178905Y62549D01*
X-174131Y57775D01*
X-174322Y57313D01*
X-176932D01*
X-177181Y57916D01*
X-177790Y58710D01*
X-178584Y59319D01*
X-179508Y59701D01*
X-180500Y59832D01*
X-181492Y59701D01*
X-182416Y59319D01*
X-183210Y58710D01*
X-183819Y57916D01*
X-184201Y56992D01*
X-184332Y56000D01*
X-184201Y55008D01*
X-183819Y54084D01*
X-183210Y53290D01*
X-182416Y52681D01*
X-181492Y52299D01*
X-180500Y52168D01*
X-179508Y52299D01*
X-178584Y52681D01*
X-177790Y53290D01*
X-177181Y54084D01*
X-176932Y54687D01*
X-173165D01*
X-158549Y40072D01*
X-158124Y39787D01*
X-157621Y39687D01*
X-122757D01*
X-122587Y39187D01*
X-123210Y38710D01*
X-123819Y37916D01*
X-124201Y36992D01*
X-124332Y36000D01*
X-124201Y35008D01*
X-123819Y34084D01*
X-123210Y33290D01*
X-122990Y33122D01*
X-123159Y32622D01*
X-126044D01*
X-126711Y33289D01*
X-127303Y33684D01*
X-127682Y33759D01*
X-130634Y36712D01*
X-130646Y36768D01*
X-131081Y37419D01*
X-131732Y37854D01*
X-132500Y38007D01*
X-133268Y37854D01*
X-133919Y37419D01*
X-134354Y36768D01*
X-134507Y36000D01*
X-134354Y35232D01*
X-133919Y34581D01*
X-133268Y34146D01*
X-133212Y34135D01*
X-129789Y30711D01*
X-129789Y30711D01*
X-129197Y30316D01*
X-128818Y30241D01*
X-128088Y29511D01*
X-128088Y29511D01*
X-127497Y29116D01*
X-126799Y28977D01*
X-123635D01*
X-123388Y28477D01*
X-123819Y27916D01*
X-124201Y26992D01*
X-124332Y26000D01*
X-124201Y25008D01*
X-123819Y24084D01*
X-123210Y23290D01*
X-122416Y22681D01*
X-121492Y22299D01*
X-120500Y22168D01*
X-119508Y22299D01*
X-118584Y22681D01*
X-117790Y23290D01*
X-117181Y24084D01*
X-116799Y25008D01*
X-116668Y26000D01*
X-116799Y26992D01*
X-117181Y27916D01*
X-117612Y28477D01*
X-117365Y28977D01*
X-105054D01*
X-94366Y18288D01*
X-94354Y18232D01*
X-93919Y17581D01*
X-93268Y17146D01*
X-92500Y16993D01*
X-91732Y17146D01*
X-91525Y17284D01*
X-91025Y17017D01*
Y12476D01*
X-90925Y11974D01*
X-90641Y11548D01*
X-89209Y10116D01*
Y6299D01*
X-89419Y6159D01*
X-89419Y6159D01*
X-92289Y3289D01*
X-92684Y2697D01*
X-92822Y2000D01*
X-92822Y2000D01*
Y-3951D01*
X-92822Y-3951D01*
X-92684Y-4648D01*
X-92289Y-5239D01*
X-86239Y-11289D01*
X-86239Y-11289D01*
X-85648Y-11684D01*
X-84951Y-11822D01*
X-82075D01*
Y-11984D01*
X-80000D01*
Y-10000D01*
X-79500D01*
Y-9500D01*
X-76925D01*
Y-8016D01*
X-77138D01*
Y-5228D01*
X-78187D01*
Y-3972D01*
X-77791D01*
Y-2313D01*
X-76272D01*
Y-3362D01*
X-69728D01*
Y-2822D01*
X-64172D01*
X-64172Y-2822D01*
X-63474Y-2684D01*
X-62883Y-2289D01*
X-61581Y-987D01*
X-53591D01*
X-34500Y-20077D01*
Y-81500D01*
X-51852D01*
X-52003Y-81000D01*
X-51782Y-80852D01*
X-51300Y-80130D01*
X-51230Y-79779D01*
X-55479D01*
X-55409Y-80130D01*
X-54927Y-80852D01*
X-54705Y-81000D01*
X-54857Y-81500D01*
X-70678D01*
Y-71482D01*
X-70446Y-71135D01*
X-70376Y-70784D01*
X-74624D01*
X-74555Y-71135D01*
X-74322Y-71482D01*
Y-81500D01*
X-91222D01*
X-91373Y-81000D01*
X-91152Y-80852D01*
X-90670Y-80130D01*
X-90600Y-79779D01*
X-94849D01*
X-94779Y-80130D01*
X-94297Y-80852D01*
X-94075Y-81000D01*
X-94227Y-81500D01*
X-110907D01*
X-111058Y-81000D01*
X-110837Y-80852D01*
X-110355Y-80130D01*
X-110285Y-79779D01*
X-114534D01*
X-114464Y-80130D01*
X-113982Y-80852D01*
X-113760Y-81000D01*
X-113912Y-81500D01*
X-130592D01*
X-130744Y-81000D01*
X-130522Y-80852D01*
X-130040Y-80130D01*
X-129970Y-79779D01*
X-134219D01*
X-134149Y-80130D01*
X-133667Y-80852D01*
X-133446Y-81000D01*
X-133597Y-81500D01*
X-150277D01*
X-150428Y-81000D01*
X-150207Y-80852D01*
X-149725Y-80130D01*
X-149655Y-79779D01*
X-153904D01*
X-153834Y-80130D01*
X-153352Y-80852D01*
X-153130Y-81000D01*
X-153282Y-81500D01*
X-169962D01*
X-170114Y-81000D01*
X-169892Y-80852D01*
X-169410Y-80130D01*
X-169340Y-79779D01*
X-173589D01*
X-173519Y-80130D01*
X-173037Y-80852D01*
X-172816Y-81000D01*
X-172967Y-81500D01*
X-191703D01*
Y164144D01*
X191703D01*
Y109500D01*
D02*
G37*
G36*
X-32090Y92687D02*
X-32967Y91967D01*
X-33753Y91010D01*
X-34337Y89918D01*
X-34696Y88733D01*
X-34818Y87500D01*
X-34696Y86267D01*
X-34337Y85082D01*
X-33753Y83990D01*
X-32967Y83033D01*
X-32010Y82247D01*
X-30918Y81663D01*
X-29732Y81304D01*
X-28500Y81182D01*
X-27268Y81304D01*
X-26082Y81663D01*
X-25852Y81786D01*
X-21528Y77462D01*
X-21719Y77000D01*
X-34500D01*
Y29394D01*
X-35000Y29112D01*
X-35374Y29187D01*
X-46528D01*
X-47030Y29087D01*
X-47456Y28802D01*
X-48786Y27472D01*
X-49248Y27663D01*
Y29012D01*
X-51717D01*
Y27224D01*
X-52717D01*
Y29012D01*
X-55185D01*
Y28754D01*
X-55547Y28421D01*
X-55685Y28421D01*
X-59000D01*
Y23000D01*
X-55547D01*
Y24660D01*
X-55047Y24986D01*
X-54972Y24953D01*
Y22500D01*
X-54972Y19350D01*
X-54972Y18850D01*
Y16201D01*
X-49461D01*
Y16463D01*
X-46815D01*
X-46028Y15675D01*
Y11626D01*
X-36972D01*
Y17531D01*
X-44171D01*
X-45344Y18704D01*
X-45769Y18988D01*
X-46272Y19088D01*
X-48677D01*
X-48831Y19350D01*
X-48677Y19613D01*
X-46571D01*
X-46069Y19713D01*
X-45643Y19997D01*
X-44171Y21468D01*
X-36972D01*
Y26561D01*
X-35918D01*
X-35813Y26456D01*
Y11544D01*
X-43428Y3928D01*
X-43646Y3602D01*
X-43919Y3419D01*
X-44354Y2768D01*
X-44507Y2000D01*
X-44354Y1232D01*
X-43919Y581D01*
X-43268Y146D01*
X-42500Y-7D01*
X-41732Y146D01*
X-41081Y581D01*
X-40646Y1232D01*
X-40493Y2000D01*
X-40646Y2768D01*
X-40738Y2906D01*
X-34962Y8682D01*
X-34500Y8490D01*
Y-14269D01*
X-34962Y-14461D01*
X-51547Y2124D01*
X-52138Y2520D01*
X-52836Y2658D01*
X-52836Y2658D01*
X-58499D01*
X-58882Y2941D01*
X-58882Y8002D01*
X-58669Y8413D01*
X-58669Y8471D01*
Y10685D01*
X-61244D01*
X-63819D01*
Y8413D01*
X-63564D01*
X-63213Y8059D01*
X-63213Y7913D01*
Y5298D01*
X-63248Y5122D01*
X-63248Y5122D01*
Y2501D01*
X-63624Y2124D01*
X-63625Y2124D01*
X-64926Y822D01*
X-69693D01*
Y1103D01*
X-69728Y1279D01*
Y1362D01*
X-69745D01*
X-69832Y1800D01*
X-70227Y2391D01*
X-70227Y2391D01*
X-72445Y4609D01*
X-72316Y4803D01*
X-72178Y5500D01*
X-72178Y5500D01*
Y18184D01*
X-72146Y18232D01*
X-71993Y19000D01*
X-72146Y19768D01*
X-72581Y20419D01*
X-73232Y20854D01*
X-74000Y21007D01*
X-74768Y20854D01*
X-75419Y20419D01*
X-75687Y20018D01*
X-76187Y20170D01*
Y22693D01*
X-69959D01*
X-69539Y22193D01*
X-69539Y19350D01*
X-69539Y18850D01*
Y16201D01*
X-68265D01*
Y13744D01*
X-69118D01*
Y8626D01*
X-68265D01*
Y8059D01*
X-69118D01*
Y2941D01*
X-64787D01*
Y8059D01*
X-65640D01*
Y8626D01*
X-64394D01*
Y13744D01*
X-65640D01*
Y16201D01*
X-64028D01*
Y18850D01*
X-64028Y19350D01*
X-64028Y19850D01*
Y22500D01*
X-64028Y25650D01*
X-64028Y26150D01*
Y28799D01*
X-69328D01*
X-69493Y29000D01*
X-69646Y29768D01*
X-70081Y30419D01*
X-70732Y30854D01*
X-71500Y31007D01*
X-72268Y30854D01*
X-72919Y30419D01*
X-73354Y29768D01*
X-73507Y29000D01*
X-73354Y28232D01*
X-72919Y27581D01*
X-72471Y27281D01*
X-72452Y27185D01*
X-72167Y26759D01*
X-71842Y26434D01*
X-71416Y26149D01*
X-70914Y26050D01*
X-69792D01*
X-69539Y25650D01*
X-69902Y25319D01*
X-78189D01*
Y25413D01*
X-78748D01*
Y33941D01*
X-77898D01*
Y39059D01*
X-78750D01*
Y49611D01*
X-78153Y49858D01*
X-77362Y50466D01*
X-76755Y51257D01*
X-76373Y52178D01*
X-75879D01*
X-75497Y51257D01*
X-74890Y50466D01*
X-74099Y49858D01*
X-74011Y49822D01*
Y39617D01*
X-74569Y39059D01*
X-76323D01*
Y33941D01*
X-71992D01*
Y36482D01*
X-70900Y37574D01*
X-70505Y38165D01*
X-70367Y38862D01*
X-70367Y38862D01*
Y49822D01*
X-70279Y49858D01*
X-69488Y50466D01*
X-68881Y51257D01*
X-68499Y52178D01*
X-68369Y53167D01*
X-68499Y54155D01*
X-68881Y55077D01*
X-69488Y55868D01*
X-70279Y56475D01*
X-70367Y56511D01*
Y70543D01*
X-70279Y70580D01*
X-69488Y71187D01*
X-69205Y71556D01*
X-58612D01*
X-57719Y71733D01*
X-56963Y72239D01*
X-47497Y81705D01*
X-47418Y81663D01*
X-46233Y81304D01*
X-45000Y81182D01*
X-43767Y81304D01*
X-42582Y81663D01*
X-41490Y82247D01*
X-40533Y83033D01*
X-39747Y83990D01*
X-39163Y85082D01*
X-38804Y86267D01*
X-38682Y87500D01*
X-38804Y88733D01*
X-39163Y89918D01*
X-39747Y91010D01*
X-40533Y91967D01*
X-41410Y92687D01*
X-41330Y93187D01*
X-32170D01*
X-32090Y92687D01*
D02*
G37*
G36*
X-135087Y69687D02*
X-135124Y69500D01*
X-133000D01*
Y68500D01*
X-135124D01*
X-135055Y68149D01*
X-134573Y67427D01*
X-133851Y66945D01*
X-133240Y66824D01*
X-133064Y66293D01*
X-136829Y62527D01*
X-137290Y62773D01*
X-137168Y63388D01*
X-137345Y64280D01*
X-137851Y65037D01*
X-138608Y65543D01*
X-139500Y65720D01*
X-140392Y65543D01*
X-140979Y65151D01*
X-145925D01*
X-146151Y65106D01*
X-148559D01*
Y61916D01*
X-149059Y61649D01*
X-149154Y61713D01*
X-149657Y61813D01*
X-150941D01*
Y63762D01*
X-149198Y65504D01*
X-148772Y65681D01*
X-148772Y65681D01*
Y65681D01*
X-148772Y65681D01*
X-146500D01*
Y68256D01*
X-146000D01*
Y68756D01*
X-143228D01*
Y70187D01*
X-135385D01*
X-135087Y69687D01*
D02*
G37*
G36*
X-89250Y70012D02*
Y56722D01*
X-89847Y56475D01*
X-90638Y55868D01*
X-91245Y55077D01*
X-91488Y54490D01*
X-92030D01*
X-92317Y55184D01*
X-92958Y56020D01*
X-93794Y56661D01*
X-94767Y57064D01*
X-95311Y57135D01*
Y53167D01*
Y49198D01*
X-94767Y49270D01*
X-93794Y49673D01*
X-92958Y50314D01*
X-92317Y51149D01*
X-92030Y51843D01*
X-91488D01*
X-91245Y51257D01*
X-90638Y50466D01*
X-89847Y49858D01*
X-89250Y49611D01*
Y39059D01*
X-90102D01*
Y33941D01*
X-88952D01*
Y25413D01*
X-89213D01*
Y24317D01*
X-90641Y22889D01*
X-90925Y22463D01*
X-91025Y21961D01*
Y20983D01*
X-91525Y20716D01*
X-91732Y20854D01*
X-91788Y20865D01*
X-99415Y28493D01*
X-99251Y29035D01*
X-98846Y29116D01*
X-98255Y29511D01*
X-93824Y33941D01*
X-91677D01*
Y39059D01*
X-96008D01*
Y36912D01*
X-100298Y32622D01*
X-104299D01*
X-104299Y32622D01*
X-104299Y32622D01*
X-117841D01*
X-118010Y33122D01*
X-117790Y33290D01*
X-117181Y34084D01*
X-116799Y35008D01*
X-116668Y36000D01*
X-116799Y36992D01*
X-117181Y37916D01*
X-117790Y38710D01*
X-118413Y39187D01*
X-118243Y39687D01*
X-115500D01*
X-114998Y39787D01*
X-114572Y40072D01*
X-104126Y50518D01*
X-104000Y50493D01*
X-103232Y50646D01*
X-102581Y51081D01*
X-102146Y51732D01*
X-101993Y52500D01*
X-102146Y53268D01*
X-102581Y53919D01*
X-103232Y54354D01*
X-104000Y54507D01*
X-104768Y54354D01*
X-105188Y54074D01*
X-105506Y54462D01*
X-89750Y70219D01*
X-89250Y70012D01*
D02*
G37*
G36*
X-98344Y76987D02*
X-98664Y76741D01*
X-99305Y75905D01*
X-99708Y74932D01*
X-99780Y74388D01*
X-95811D01*
Y73888D01*
X-95311D01*
Y69919D01*
X-94767Y69991D01*
X-94136Y70252D01*
X-93853Y69828D01*
X-110668Y53013D01*
X-117373D01*
X-117619Y53513D01*
X-117181Y54084D01*
X-116799Y55008D01*
X-116668Y56000D01*
X-116799Y56992D01*
X-117181Y57916D01*
X-117790Y58710D01*
X-118584Y59319D01*
X-119508Y59701D01*
X-120500Y59832D01*
X-121492Y59701D01*
X-122416Y59319D01*
X-123210Y58710D01*
X-123819Y57916D01*
X-124201Y56992D01*
X-124332Y56000D01*
X-124201Y55008D01*
X-123819Y54084D01*
X-123381Y53513D01*
X-123627Y53013D01*
X-138368D01*
X-138871Y52913D01*
X-139296Y52629D01*
X-141172Y50754D01*
X-145169D01*
Y52000D01*
X-147744D01*
X-150319D01*
Y50754D01*
X-150894D01*
Y54901D01*
X-150894Y55059D01*
X-150894Y55059D01*
X-150941Y55382D01*
X-150941D01*
Y59187D01*
X-150200D01*
X-149967Y58954D01*
X-149541Y58669D01*
X-149039Y58569D01*
X-137618D01*
X-137116Y58669D01*
X-136690Y58954D01*
X-125256Y70388D01*
X-115799D01*
X-115297Y70488D01*
X-114871Y70773D01*
X-108157Y77487D01*
X-98513D01*
X-98344Y76987D01*
D02*
G37*
%LPC*%
G36*
X-98696Y152000D02*
X-102216D01*
Y148480D01*
X-101659Y148553D01*
X-100673Y148961D01*
X-99827Y149611D01*
X-99178Y150457D01*
X-98770Y151442D01*
X-98696Y152000D01*
D02*
G37*
G36*
X-103217D02*
X-106737D01*
X-106663Y151442D01*
X-106255Y150457D01*
X-105606Y149611D01*
X-104760Y148961D01*
X-103774Y148553D01*
X-103217Y148480D01*
Y152000D01*
D02*
G37*
G36*
X-107658Y147462D02*
X-108891Y147300D01*
X-110040Y146824D01*
X-111027Y146066D01*
X-111784Y145079D01*
X-112260Y143930D01*
X-112423Y142697D01*
X-112260Y141463D01*
X-111784Y140314D01*
X-111027Y139327D01*
X-110040Y138570D01*
X-108891Y138094D01*
X-107658Y137932D01*
X-106424Y138094D01*
X-105275Y138570D01*
X-104288Y139327D01*
X-103531Y140314D01*
X-103055Y141463D01*
X-102892Y142697D01*
X-103055Y143930D01*
X-103531Y145079D01*
X-104288Y146066D01*
X-105275Y146824D01*
X-106424Y147300D01*
X-107658Y147462D01*
D02*
G37*
G36*
X-121752Y139380D02*
Y137756D01*
X-120128D01*
X-120197Y138107D01*
X-120679Y138828D01*
X-121401Y139311D01*
X-121752Y139380D01*
D02*
G37*
G36*
X-122752D02*
X-123103Y139311D01*
X-123825Y138828D01*
X-124306Y138107D01*
X-124376Y137756D01*
X-122752D01*
Y139380D01*
D02*
G37*
G36*
X-141437D02*
Y137756D01*
X-139813D01*
X-139882Y138107D01*
X-140365Y138828D01*
X-141086Y139311D01*
X-141437Y139380D01*
D02*
G37*
G36*
X-142437D02*
X-142788Y139311D01*
X-143509Y138828D01*
X-143992Y138107D01*
X-144061Y137756D01*
X-142437D01*
Y139380D01*
D02*
G37*
G36*
X-120128Y136756D02*
X-121752D01*
Y135132D01*
X-121401Y135201D01*
X-120679Y135683D01*
X-120197Y136405D01*
X-120128Y136756D01*
D02*
G37*
G36*
X-122752D02*
X-124376D01*
X-124306Y136405D01*
X-123825Y135683D01*
X-123103Y135201D01*
X-122752Y135132D01*
Y136756D01*
D02*
G37*
G36*
X-139813D02*
X-141437D01*
Y135132D01*
X-141086Y135201D01*
X-140365Y135683D01*
X-139882Y136405D01*
X-139813Y136756D01*
D02*
G37*
G36*
X-142437D02*
X-144061D01*
X-143992Y136405D01*
X-143509Y135683D01*
X-142788Y135201D01*
X-142437Y135132D01*
Y136756D01*
D02*
G37*
G36*
X-116701Y129799D02*
X-124299D01*
Y122201D01*
X-116701D01*
Y129799D01*
D02*
G37*
G36*
X-131595Y119695D02*
Y118071D01*
X-129970D01*
X-130040Y118422D01*
X-130522Y119143D01*
X-131244Y119625D01*
X-131595Y119695D01*
D02*
G37*
G36*
X-132595D02*
X-132946Y119625D01*
X-133667Y119143D01*
X-134149Y118422D01*
X-134219Y118071D01*
X-132595D01*
Y119695D01*
D02*
G37*
G36*
X-151279D02*
Y118071D01*
X-149655D01*
X-149725Y118422D01*
X-150207Y119143D01*
X-150928Y119625D01*
X-151279Y119695D01*
D02*
G37*
G36*
X-152279D02*
X-152630Y119625D01*
X-153352Y119143D01*
X-153834Y118422D01*
X-153904Y118071D01*
X-152279D01*
Y119695D01*
D02*
G37*
G36*
X-120000Y119981D02*
Y116500D01*
X-116519D01*
X-116592Y117047D01*
X-116996Y118023D01*
X-117639Y118861D01*
X-118477Y119504D01*
X-119453Y119908D01*
X-120000Y119981D01*
D02*
G37*
G36*
X-121000D02*
X-121547Y119908D01*
X-122523Y119504D01*
X-123361Y118861D01*
X-124004Y118023D01*
X-124408Y117047D01*
X-124481Y116500D01*
X-121000D01*
Y119981D01*
D02*
G37*
G36*
X-129970Y117071D02*
X-131595D01*
Y115446D01*
X-131244Y115516D01*
X-130522Y115998D01*
X-130040Y116720D01*
X-129970Y117071D01*
D02*
G37*
G36*
X-132595D02*
X-134219D01*
X-134149Y116720D01*
X-133667Y115998D01*
X-132946Y115516D01*
X-132595Y115446D01*
Y117071D01*
D02*
G37*
G36*
X-149655D02*
X-151279D01*
Y115446D01*
X-150928Y115516D01*
X-150207Y115998D01*
X-149725Y116720D01*
X-149655Y117071D01*
D02*
G37*
G36*
X-152279D02*
X-153904D01*
X-153834Y116720D01*
X-153352Y115998D01*
X-152630Y115516D01*
X-152279Y115446D01*
Y117071D01*
D02*
G37*
G36*
X-116519Y115500D02*
X-120000D01*
Y112019D01*
X-119453Y112092D01*
X-118477Y112496D01*
X-117639Y113139D01*
X-116996Y113977D01*
X-116592Y114953D01*
X-116519Y115500D01*
D02*
G37*
G36*
X-121000D02*
X-124481D01*
X-124408Y114953D01*
X-124004Y113977D01*
X-123361Y113139D01*
X-122523Y112496D01*
X-121547Y112092D01*
X-121000Y112019D01*
Y115500D01*
D02*
G37*
G36*
X137362Y156827D02*
X134500D01*
Y153374D01*
X137362D01*
Y156827D01*
D02*
G37*
G36*
X133500D02*
X130638D01*
Y153374D01*
X133500D01*
Y156827D01*
D02*
G37*
G36*
X129862D02*
X127000D01*
Y153374D01*
X129862D01*
Y156827D01*
D02*
G37*
G36*
X126000D02*
X123138D01*
Y153374D01*
X126000D01*
Y156827D01*
D02*
G37*
G36*
X119362D02*
X116500D01*
Y153374D01*
X119362D01*
Y156827D01*
D02*
G37*
G36*
X115500D02*
X112638D01*
Y153374D01*
X115500D01*
Y156827D01*
D02*
G37*
G36*
X111362D02*
X108500D01*
Y153374D01*
X111362D01*
Y156827D01*
D02*
G37*
G36*
X107500D02*
X104638D01*
Y153374D01*
X107500D01*
Y156827D01*
D02*
G37*
G36*
X-42500Y147462D02*
X-43733Y147300D01*
X-44883Y146824D01*
X-45869Y146066D01*
X-46627Y145079D01*
X-47103Y143930D01*
X-47265Y142697D01*
X-47103Y141463D01*
X-46627Y140314D01*
X-45869Y139327D01*
X-44883Y138570D01*
X-43733Y138094D01*
X-42500Y137932D01*
X-41267Y138094D01*
X-40117Y138570D01*
X-39130Y139327D01*
X-38373Y140314D01*
X-37897Y141463D01*
X-37735Y142697D01*
X-37897Y143930D01*
X-38373Y145079D01*
X-39130Y146066D01*
X-40117Y146824D01*
X-41267Y147300D01*
X-42500Y147462D01*
D02*
G37*
G36*
X55413Y139380D02*
Y137756D01*
X57038D01*
X56968Y138107D01*
X56486Y138828D01*
X55764Y139311D01*
X55413Y139380D01*
D02*
G37*
G36*
X54413D02*
X54062Y139311D01*
X53341Y138828D01*
X52859Y138107D01*
X52789Y137756D01*
X54413D01*
Y139380D01*
D02*
G37*
G36*
X16043D02*
Y137756D01*
X17668D01*
X17598Y138107D01*
X17116Y138828D01*
X16394Y139311D01*
X16043Y139380D01*
D02*
G37*
G36*
X15043D02*
X14692Y139311D01*
X13971Y138828D01*
X13489Y138107D01*
X13419Y137756D01*
X15043D01*
Y139380D01*
D02*
G37*
G36*
X-3642D02*
Y137756D01*
X-2017D01*
X-2087Y138107D01*
X-2569Y138828D01*
X-3291Y139311D01*
X-3642Y139380D01*
D02*
G37*
G36*
X-4642D02*
X-4993Y139311D01*
X-5714Y138828D01*
X-6196Y138107D01*
X-6266Y137756D01*
X-4642D01*
Y139380D01*
D02*
G37*
G36*
X-161122D02*
Y137756D01*
X-159498D01*
X-159567Y138107D01*
X-160049Y138828D01*
X-160771Y139311D01*
X-161122Y139380D01*
D02*
G37*
G36*
X-162122D02*
X-162473Y139311D01*
X-163195Y138828D01*
X-163677Y138107D01*
X-163746Y137756D01*
X-162122D01*
Y139380D01*
D02*
G37*
G36*
X173610Y137388D02*
Y135764D01*
X175235D01*
X175165Y136115D01*
X174683Y136837D01*
X173961Y137319D01*
X173610Y137388D01*
D02*
G37*
G36*
X57038Y136756D02*
X55413D01*
Y135132D01*
X55764Y135201D01*
X56486Y135683D01*
X56968Y136405D01*
X57038Y136756D01*
D02*
G37*
G36*
X54413D02*
X52789D01*
X52859Y136405D01*
X53341Y135683D01*
X54062Y135201D01*
X54413Y135132D01*
Y136756D01*
D02*
G37*
G36*
X17668D02*
X16043D01*
Y135132D01*
X16394Y135201D01*
X17116Y135683D01*
X17598Y136405D01*
X17668Y136756D01*
D02*
G37*
G36*
X15043D02*
X13419D01*
X13489Y136405D01*
X13971Y135683D01*
X14692Y135201D01*
X15043Y135132D01*
Y136756D01*
D02*
G37*
G36*
X-2017D02*
X-3642D01*
Y135132D01*
X-3291Y135201D01*
X-2569Y135683D01*
X-2087Y136405D01*
X-2017Y136756D01*
D02*
G37*
G36*
X-4642D02*
X-6266D01*
X-6196Y136405D01*
X-5714Y135683D01*
X-4993Y135201D01*
X-4642Y135132D01*
Y136756D01*
D02*
G37*
G36*
X-159498D02*
X-161122D01*
Y135132D01*
X-160771Y135201D01*
X-160049Y135683D01*
X-159567Y136405D01*
X-159498Y136756D01*
D02*
G37*
G36*
X-162122D02*
X-163746D01*
X-163677Y136405D01*
X-163195Y135683D01*
X-162473Y135201D01*
X-162122Y135132D01*
Y136756D01*
D02*
G37*
G36*
X90124Y135264D02*
X88500D01*
Y133640D01*
X88851Y133710D01*
X89573Y134192D01*
X90055Y134913D01*
X90124Y135264D01*
D02*
G37*
G36*
X87500D02*
X85876D01*
X85945Y134913D01*
X86427Y134192D01*
X87149Y133710D01*
X87500Y133640D01*
Y135264D01*
D02*
G37*
G36*
X175235Y134764D02*
X173610D01*
Y133140D01*
X173961Y133210D01*
X174683Y133692D01*
X175165Y134413D01*
X175235Y134764D01*
D02*
G37*
G36*
X-3158Y132202D02*
Y126406D01*
X2639D01*
X2566Y127144D01*
X2205Y128334D01*
X1619Y129431D01*
X829Y130393D01*
X-132Y131182D01*
X-1229Y131768D01*
X-2420Y132129D01*
X-3158Y132202D01*
D02*
G37*
G36*
X-4157D02*
X-4895Y132129D01*
X-6086Y131768D01*
X-7183Y131182D01*
X-8144Y130393D01*
X-8934Y129431D01*
X-9520Y128334D01*
X-9881Y127144D01*
X-9954Y126406D01*
X-4157D01*
Y132202D01*
D02*
G37*
G36*
X-23343Y132037D02*
X-24539Y131920D01*
X-25689Y131571D01*
X-26749Y131004D01*
X-27678Y130241D01*
X-28441Y129312D01*
X-29008Y128252D01*
X-29357Y127102D01*
X-29474Y125906D01*
X-29357Y124709D01*
X-29008Y123559D01*
X-28441Y122499D01*
X-27678Y121570D01*
X-26749Y120807D01*
X-25689Y120240D01*
X-24539Y119891D01*
X-23343Y119774D01*
X-22146Y119891D01*
X-20996Y120240D01*
X-19936Y120807D01*
X-19007Y121570D01*
X-18244Y122499D01*
X-17677Y123559D01*
X-17328Y124709D01*
X-17211Y125906D01*
X-17328Y127102D01*
X-17677Y128252D01*
X-18244Y129312D01*
X-19007Y130241D01*
X-19936Y131004D01*
X-20996Y131571D01*
X-22146Y131920D01*
X-23343Y132037D01*
D02*
G37*
G36*
X2639Y125406D02*
X-3158D01*
Y119609D01*
X-2420Y119682D01*
X-1229Y120043D01*
X-132Y120629D01*
X829Y121419D01*
X1619Y122380D01*
X2205Y123477D01*
X2566Y124668D01*
X2639Y125406D01*
D02*
G37*
G36*
X-4157D02*
X-9954D01*
X-9881Y124668D01*
X-9520Y123477D01*
X-8934Y122380D01*
X-8144Y121419D01*
X-7183Y120629D01*
X-6086Y120043D01*
X-4895Y119682D01*
X-4157Y119609D01*
Y125406D01*
D02*
G37*
G36*
X175500Y131632D02*
X174304Y131514D01*
X173153Y131165D01*
X172093Y130598D01*
X171164Y129836D01*
X170402Y128907D01*
X169835Y127847D01*
X169486Y126696D01*
X169368Y125500D01*
X169486Y124304D01*
X169835Y123153D01*
X170402Y122093D01*
X171164Y121164D01*
X172093Y120402D01*
X173153Y119835D01*
X174304Y119486D01*
X175500Y119368D01*
X176696Y119486D01*
X177847Y119835D01*
X178907Y120402D01*
X179836Y121164D01*
X180598Y122093D01*
X181165Y123153D01*
X181514Y124304D01*
X181632Y125500D01*
X181514Y126696D01*
X181165Y127847D01*
X180598Y128907D01*
X179836Y129836D01*
X178907Y130598D01*
X177847Y131165D01*
X176696Y131514D01*
X175500Y131632D01*
D02*
G37*
G36*
X155815D02*
X154619Y131514D01*
X153468Y131165D01*
X152408Y130598D01*
X151479Y129836D01*
X150716Y128907D01*
X150150Y127847D01*
X149801Y126696D01*
X149683Y125500D01*
X149801Y124304D01*
X150150Y123153D01*
X150716Y122093D01*
X151479Y121164D01*
X152408Y120402D01*
X153468Y119835D01*
X154619Y119486D01*
X155815Y119368D01*
X157011Y119486D01*
X158161Y119835D01*
X159222Y120402D01*
X160151Y121164D01*
X160913Y122093D01*
X161480Y123153D01*
X161829Y124304D01*
X161947Y125500D01*
X161829Y126696D01*
X161480Y127847D01*
X160913Y128907D01*
X160151Y129836D01*
X159222Y130598D01*
X158161Y131165D01*
X157011Y131514D01*
X155815Y131632D01*
D02*
G37*
G36*
X86901D02*
X85705Y131514D01*
X84555Y131165D01*
X83495Y130598D01*
X82566Y129836D01*
X81803Y128907D01*
X81236Y127847D01*
X80888Y126696D01*
X80770Y125500D01*
X80888Y124304D01*
X81236Y123153D01*
X81803Y122093D01*
X82566Y121164D01*
X83495Y120402D01*
X84555Y119835D01*
X85705Y119486D01*
X86901Y119368D01*
X88098Y119486D01*
X89248Y119835D01*
X90308Y120402D01*
X91237Y121164D01*
X92000Y122093D01*
X92567Y123153D01*
X92916Y124304D01*
X93033Y125500D01*
X92916Y126696D01*
X92567Y127847D01*
X92000Y128907D01*
X91237Y129836D01*
X90308Y130598D01*
X89248Y131165D01*
X88098Y131514D01*
X86901Y131632D01*
D02*
G37*
G36*
X67216D02*
X66020Y131514D01*
X64870Y131165D01*
X63810Y130598D01*
X62881Y129836D01*
X62118Y128907D01*
X61551Y127847D01*
X61202Y126696D01*
X61085Y125500D01*
X61202Y124304D01*
X61551Y123153D01*
X62118Y122093D01*
X62881Y121164D01*
X63810Y120402D01*
X64199Y120194D01*
X64121Y119668D01*
X63905Y119625D01*
X63183Y119143D01*
X62701Y118422D01*
X62632Y118071D01*
X66880D01*
X66811Y118422D01*
X66465Y118940D01*
X66749Y119414D01*
X67216Y119368D01*
X68413Y119486D01*
X69563Y119835D01*
X70623Y120402D01*
X71552Y121164D01*
X72315Y122093D01*
X72882Y123153D01*
X73231Y124304D01*
X73348Y125500D01*
X73231Y126696D01*
X72882Y127847D01*
X72315Y128907D01*
X71552Y129836D01*
X70623Y130598D01*
X69563Y131165D01*
X68413Y131514D01*
X67216Y131632D01*
D02*
G37*
G36*
X163681Y119695D02*
Y118071D01*
X165305D01*
X165236Y118422D01*
X164754Y119143D01*
X164032Y119625D01*
X163681Y119695D01*
D02*
G37*
G36*
X162681D02*
X162330Y119625D01*
X161609Y119143D01*
X161127Y118422D01*
X161057Y118071D01*
X162681D01*
Y119695D01*
D02*
G37*
G36*
X104626D02*
Y118071D01*
X106250D01*
X106181Y118422D01*
X105699Y119143D01*
X104977Y119625D01*
X104626Y119695D01*
D02*
G37*
G36*
X103626D02*
X103275Y119625D01*
X102553Y119143D01*
X102071Y118422D01*
X102002Y118071D01*
X103626D01*
Y119695D01*
D02*
G37*
G36*
X45571D02*
Y118071D01*
X47195D01*
X47125Y118422D01*
X46643Y119143D01*
X45922Y119625D01*
X45571Y119695D01*
D02*
G37*
G36*
X44571D02*
X44220Y119625D01*
X43498Y119143D01*
X43016Y118422D01*
X42946Y118071D01*
X44571D01*
Y119695D01*
D02*
G37*
G36*
X6201D02*
Y118071D01*
X7825D01*
X7755Y118422D01*
X7273Y119143D01*
X6552Y119625D01*
X6201Y119695D01*
D02*
G37*
G36*
X5201D02*
X4850Y119625D01*
X4500Y119392D01*
X4128Y119143D01*
X3646Y118422D01*
X3576Y118071D01*
X5201D01*
Y119695D01*
D02*
G37*
G36*
X-33169D02*
Y118071D01*
X-31545D01*
X-31615Y118422D01*
X-32097Y119143D01*
X-32818Y119625D01*
X-33169Y119695D01*
D02*
G37*
G36*
X-34169D02*
X-34520Y119625D01*
X-35242Y119143D01*
X-35724Y118422D01*
X-35794Y118071D01*
X-34169D01*
Y119695D01*
D02*
G37*
G36*
X-72539D02*
Y118071D01*
X-70915D01*
X-70985Y118422D01*
X-71467Y119143D01*
X-72188Y119625D01*
X-72539Y119695D01*
D02*
G37*
G36*
X-73539D02*
X-73890Y119625D01*
X-74612Y119143D01*
X-75094Y118422D01*
X-75164Y118071D01*
X-73539D01*
Y119695D01*
D02*
G37*
G36*
X-92224D02*
Y118071D01*
X-90600D01*
X-90670Y118422D01*
X-91152Y119143D01*
X-91873Y119625D01*
X-92224Y119695D01*
D02*
G37*
G36*
X-93224D02*
X-93575Y119625D01*
X-94297Y119143D01*
X-94779Y118422D01*
X-94849Y118071D01*
X-93224D01*
Y119695D01*
D02*
G37*
G36*
X-49067Y119870D02*
X-50945D01*
Y117500D01*
X-49067D01*
Y119870D01*
D02*
G37*
G36*
X-51945D02*
X-53823D01*
Y117500D01*
X-51945D01*
Y119870D01*
D02*
G37*
G36*
X165305Y117071D02*
X163681D01*
Y115446D01*
X164032Y115516D01*
X164754Y115998D01*
X165236Y116720D01*
X165305Y117071D01*
D02*
G37*
G36*
X162681D02*
X161057D01*
X161127Y116720D01*
X161609Y115998D01*
X162330Y115516D01*
X162681Y115446D01*
Y117071D01*
D02*
G37*
G36*
X106250D02*
X104626D01*
Y115446D01*
X104977Y115516D01*
X105699Y115998D01*
X106181Y116720D01*
X106250Y117071D01*
D02*
G37*
G36*
X103626D02*
X102002D01*
X102071Y116720D01*
X102553Y115998D01*
X103275Y115516D01*
X103626Y115446D01*
Y117071D01*
D02*
G37*
G36*
X66880D02*
X65256D01*
Y115446D01*
X65607Y115516D01*
X66328Y115998D01*
X66811Y116720D01*
X66880Y117071D01*
D02*
G37*
G36*
X64256D02*
X62632D01*
X62701Y116720D01*
X63183Y115998D01*
X63905Y115516D01*
X64256Y115446D01*
Y117071D01*
D02*
G37*
G36*
X47195D02*
X45571D01*
Y115446D01*
X45922Y115516D01*
X46643Y115998D01*
X47125Y116720D01*
X47195Y117071D01*
D02*
G37*
G36*
X44571D02*
X42946D01*
X43016Y116720D01*
X43498Y115998D01*
X44220Y115516D01*
X44571Y115446D01*
Y117071D01*
D02*
G37*
G36*
X7825D02*
X6201D01*
Y115446D01*
X6552Y115516D01*
X7273Y115998D01*
X7755Y116720D01*
X7825Y117071D01*
D02*
G37*
G36*
X5201D02*
X3576D01*
X3646Y116720D01*
X4128Y115998D01*
X4500Y115750D01*
D01*
X4850Y115516D01*
X5201Y115446D01*
Y117071D01*
D02*
G37*
G36*
X-31545D02*
X-33169D01*
Y115446D01*
X-32818Y115516D01*
X-32097Y115998D01*
X-31615Y116720D01*
X-31545Y117071D01*
D02*
G37*
G36*
X-34169D02*
X-35794D01*
X-35724Y116720D01*
X-35242Y115998D01*
X-34520Y115516D01*
X-34169Y115446D01*
Y117071D01*
D02*
G37*
G36*
X-70915D02*
X-72539D01*
Y115446D01*
X-72188Y115516D01*
X-71467Y115998D01*
X-70985Y116720D01*
X-70915Y117071D01*
D02*
G37*
G36*
X-73539D02*
X-75164D01*
X-75094Y116720D01*
X-74612Y115998D01*
X-73890Y115516D01*
X-73539Y115446D01*
Y117071D01*
D02*
G37*
G36*
X-90600D02*
X-92224D01*
Y115446D01*
X-91873Y115516D01*
X-91152Y115998D01*
X-90670Y116720D01*
X-90600Y117071D01*
D02*
G37*
G36*
X-93224D02*
X-94849D01*
X-94779Y116720D01*
X-94297Y115998D01*
X-93575Y115516D01*
X-93224Y115446D01*
Y117071D01*
D02*
G37*
G36*
X-96311Y114969D02*
X-96855Y114897D01*
X-97828Y114494D01*
X-98664Y113853D01*
X-99305Y113017D01*
X-99708Y112044D01*
X-99780Y111500D01*
X-96311D01*
Y114969D01*
D02*
G37*
G36*
Y110500D02*
X-99780D01*
X-99708Y109956D01*
X-99305Y108983D01*
X-98664Y108147D01*
X-97828Y107506D01*
X-96855Y107103D01*
X-96311Y107031D01*
Y110500D01*
D02*
G37*
G36*
X-62697Y100010D02*
Y98386D01*
X-61072D01*
X-61142Y98737D01*
X-61624Y99458D01*
X-62346Y99940D01*
X-62697Y100010D01*
D02*
G37*
G36*
X-63697D02*
X-64048Y99940D01*
X-64769Y99458D01*
X-65251Y98737D01*
X-65321Y98386D01*
X-63697D01*
Y100010D01*
D02*
G37*
G36*
X-102067D02*
Y98386D01*
X-100443D01*
X-100512Y98737D01*
X-100994Y99458D01*
X-101716Y99940D01*
X-102067Y100010D01*
D02*
G37*
G36*
X-103067D02*
X-103418Y99940D01*
X-104139Y99458D01*
X-104622Y98737D01*
X-104691Y98386D01*
X-103067D01*
Y100010D01*
D02*
G37*
G36*
X-180000Y99981D02*
Y96500D01*
X-176519D01*
X-176592Y97047D01*
X-176996Y98023D01*
X-177639Y98861D01*
X-178477Y99504D01*
X-179453Y99909D01*
X-180000Y99981D01*
D02*
G37*
G36*
X-181000D02*
X-181547Y99909D01*
X-182523Y99504D01*
X-183361Y98861D01*
X-184004Y98023D01*
X-184408Y97047D01*
X-184481Y96500D01*
X-181000D01*
Y99981D01*
D02*
G37*
G36*
X-61072Y97386D02*
X-62697D01*
Y95762D01*
X-62346Y95831D01*
X-61624Y96313D01*
X-61142Y97035D01*
X-61072Y97386D01*
D02*
G37*
G36*
X-63697D02*
X-65321D01*
X-65251Y97035D01*
X-64769Y96313D01*
X-64048Y95831D01*
X-63697Y95762D01*
Y97386D01*
D02*
G37*
G36*
X-100443D02*
X-102067D01*
Y95762D01*
X-101716Y95831D01*
X-100994Y96313D01*
X-100512Y97035D01*
X-100443Y97386D01*
D02*
G37*
G36*
X-103067D02*
X-104691D01*
X-104622Y97035D01*
X-104139Y96313D01*
X-103418Y95831D01*
X-103067Y95762D01*
Y97386D01*
D02*
G37*
G36*
X-176519Y95500D02*
X-180000D01*
Y92019D01*
X-179453Y92091D01*
X-178477Y92496D01*
X-177639Y93139D01*
X-176996Y93977D01*
X-176592Y94953D01*
X-176519Y95500D01*
D02*
G37*
G36*
X-181000D02*
X-184481D01*
X-184408Y94953D01*
X-184004Y93977D01*
X-183361Y93139D01*
X-182523Y92496D01*
X-181547Y92091D01*
X-181000Y92019D01*
Y95500D01*
D02*
G37*
G36*
X-96311Y94247D02*
X-96855Y94176D01*
X-97828Y93773D01*
X-98664Y93132D01*
X-99305Y92296D01*
X-99708Y91323D01*
X-99780Y90779D01*
X-96311D01*
Y94247D01*
D02*
G37*
G36*
Y89779D02*
X-99780D01*
X-99708Y89234D01*
X-99305Y88261D01*
X-98664Y87426D01*
X-97828Y86785D01*
X-96855Y86382D01*
X-96311Y86310D01*
Y89779D01*
D02*
G37*
G36*
X-180500Y89832D02*
X-181492Y89701D01*
X-182416Y89319D01*
X-183210Y88710D01*
X-183819Y87916D01*
X-184201Y86992D01*
X-184332Y86000D01*
X-184201Y85008D01*
X-183819Y84084D01*
X-183210Y83290D01*
X-182416Y82681D01*
X-181492Y82299D01*
X-180500Y82168D01*
X-179508Y82299D01*
X-178584Y82681D01*
X-177790Y83290D01*
X-177181Y84084D01*
X-176799Y85008D01*
X-176668Y86000D01*
X-176799Y86992D01*
X-177181Y87916D01*
X-177790Y88710D01*
X-178584Y89319D01*
X-179508Y89701D01*
X-180500Y89832D01*
D02*
G37*
G36*
X-131595Y80325D02*
Y78701D01*
X-129970D01*
X-130040Y79052D01*
X-130522Y79773D01*
X-131244Y80255D01*
X-131595Y80325D01*
D02*
G37*
G36*
X-132595D02*
X-132946Y80255D01*
X-133667Y79773D01*
X-134149Y79052D01*
X-134219Y78701D01*
X-132595D01*
Y80325D01*
D02*
G37*
G36*
X-145169Y79000D02*
X-147244D01*
Y76728D01*
X-145169D01*
Y79000D01*
D02*
G37*
G36*
X-148244D02*
X-150319D01*
Y76728D01*
X-148244D01*
Y79000D01*
D02*
G37*
G36*
X-129970Y77701D02*
X-131595D01*
Y76076D01*
X-131244Y76146D01*
X-130522Y76628D01*
X-130040Y77350D01*
X-129970Y77701D01*
D02*
G37*
G36*
X-132595D02*
X-134219D01*
X-134149Y77350D01*
X-133667Y76628D01*
X-132946Y76146D01*
X-132595Y76076D01*
Y77701D01*
D02*
G37*
G36*
X-180500Y79832D02*
X-181492Y79701D01*
X-182416Y79319D01*
X-183210Y78710D01*
X-183819Y77916D01*
X-184201Y76992D01*
X-184332Y76000D01*
X-184201Y75008D01*
X-183819Y74084D01*
X-183210Y73290D01*
X-182416Y72681D01*
X-181492Y72299D01*
X-180500Y72168D01*
X-179508Y72299D01*
X-178584Y72681D01*
X-177790Y73290D01*
X-177181Y74084D01*
X-176799Y75008D01*
X-176668Y76000D01*
X-176799Y76992D01*
X-177181Y77916D01*
X-177790Y78710D01*
X-178584Y79319D01*
X-179508Y79701D01*
X-180500Y79832D01*
D02*
G37*
G36*
X-166941Y75618D02*
X-172059D01*
Y71287D01*
X-166941D01*
Y75618D01*
D02*
G37*
G36*
X-166728Y69925D02*
X-169000D01*
Y68047D01*
X-166728D01*
Y69925D01*
D02*
G37*
G36*
X-170000D02*
X-172272D01*
Y68047D01*
X-170000D01*
Y69925D01*
D02*
G37*
G36*
X-166728Y67047D02*
X-169000D01*
Y65169D01*
X-166728D01*
Y67047D01*
D02*
G37*
G36*
X-170000D02*
X-172272D01*
Y65169D01*
X-170000D01*
Y67047D01*
D02*
G37*
G36*
X-180500Y49832D02*
X-181492Y49701D01*
X-182416Y49319D01*
X-183210Y48710D01*
X-183819Y47916D01*
X-184201Y46992D01*
X-184332Y46000D01*
X-184201Y45008D01*
X-183819Y44084D01*
X-183210Y43290D01*
X-182416Y42681D01*
X-181492Y42299D01*
X-180500Y42168D01*
X-179508Y42299D01*
X-178584Y42681D01*
X-177790Y43290D01*
X-177181Y44084D01*
X-176799Y45008D01*
X-176668Y46000D01*
X-176799Y46992D01*
X-177181Y47916D01*
X-177790Y48710D01*
X-178584Y49319D01*
X-179508Y49701D01*
X-180500Y49832D01*
D02*
G37*
G36*
X-170965Y40955D02*
Y39331D01*
X-169340D01*
X-169410Y39682D01*
X-169892Y40403D01*
X-170614Y40885D01*
X-170965Y40955D01*
D02*
G37*
G36*
X-171965D02*
X-172316Y40885D01*
X-173037Y40403D01*
X-173519Y39682D01*
X-173589Y39331D01*
X-171965D01*
Y40955D01*
D02*
G37*
G36*
X-169340Y38331D02*
X-170965D01*
Y36706D01*
X-170614Y36776D01*
X-169892Y37258D01*
X-169410Y37980D01*
X-169340Y38331D01*
D02*
G37*
G36*
X-171965D02*
X-173589D01*
X-173519Y37980D01*
X-173037Y37258D01*
X-172316Y36776D01*
X-171965Y36706D01*
Y38331D01*
D02*
G37*
G36*
X-180500Y39832D02*
X-181492Y39701D01*
X-182416Y39319D01*
X-183210Y38710D01*
X-183819Y37916D01*
X-184201Y36992D01*
X-184332Y36000D01*
X-184201Y35008D01*
X-183819Y34084D01*
X-183210Y33290D01*
X-182416Y32681D01*
X-181492Y32299D01*
X-180500Y32168D01*
X-179508Y32299D01*
X-178584Y32681D01*
X-177790Y33290D01*
X-177181Y34084D01*
X-176799Y35008D01*
X-176668Y36000D01*
X-176799Y36992D01*
X-177181Y37916D01*
X-177790Y38710D01*
X-178584Y39319D01*
X-179508Y39701D01*
X-180500Y39832D01*
D02*
G37*
G36*
Y29832D02*
X-181492Y29701D01*
X-182416Y29319D01*
X-183210Y28710D01*
X-183819Y27916D01*
X-184201Y26992D01*
X-184332Y26000D01*
X-184201Y25008D01*
X-183819Y24084D01*
X-183210Y23290D01*
X-182416Y22681D01*
X-181492Y22299D01*
X-180500Y22168D01*
X-179508Y22299D01*
X-178584Y22681D01*
X-177790Y23290D01*
X-177181Y24084D01*
X-176799Y25008D01*
X-176668Y26000D01*
X-176799Y26992D01*
X-177181Y27916D01*
X-177790Y28710D01*
X-178584Y29319D01*
X-179508Y29701D01*
X-180500Y29832D01*
D02*
G37*
G36*
X-141437Y21270D02*
Y19646D01*
X-139813D01*
X-139882Y19997D01*
X-140365Y20718D01*
X-141086Y21200D01*
X-141437Y21270D01*
D02*
G37*
G36*
X-142437D02*
X-142788Y21200D01*
X-143509Y20718D01*
X-143992Y19997D01*
X-144061Y19646D01*
X-142437D01*
Y21270D01*
D02*
G37*
G36*
X-161122D02*
Y19646D01*
X-159498D01*
X-159567Y19997D01*
X-160049Y20718D01*
X-160771Y21200D01*
X-161122Y21270D01*
D02*
G37*
G36*
X-162122D02*
X-162473Y21200D01*
X-163195Y20718D01*
X-163677Y19997D01*
X-163746Y19646D01*
X-162122D01*
Y21270D01*
D02*
G37*
G36*
X-139813Y18646D02*
X-141437D01*
Y17021D01*
X-141086Y17091D01*
X-140365Y17573D01*
X-139882Y18295D01*
X-139813Y18646D01*
D02*
G37*
G36*
X-142437D02*
X-144061D01*
X-143992Y18295D01*
X-143509Y17573D01*
X-142788Y17091D01*
X-142437Y17021D01*
Y18646D01*
D02*
G37*
G36*
X-159498D02*
X-161122D01*
Y17021D01*
X-160771Y17091D01*
X-160049Y17573D01*
X-159567Y18295D01*
X-159498Y18646D01*
D02*
G37*
G36*
X-162122D02*
X-163746D01*
X-163677Y18295D01*
X-163195Y17573D01*
X-162473Y17091D01*
X-162122Y17021D01*
Y18646D01*
D02*
G37*
G36*
X-120500Y19832D02*
X-121492Y19701D01*
X-122416Y19319D01*
X-123210Y18710D01*
X-123819Y17916D01*
X-124201Y16992D01*
X-124332Y16000D01*
X-124201Y15008D01*
X-123819Y14084D01*
X-123210Y13290D01*
X-122416Y12681D01*
X-121492Y12299D01*
X-120500Y12168D01*
X-119508Y12299D01*
X-118584Y12681D01*
X-117790Y13290D01*
X-117181Y14084D01*
X-116799Y15008D01*
X-116668Y16000D01*
X-116799Y16992D01*
X-117181Y17916D01*
X-117790Y18710D01*
X-118584Y19319D01*
X-119508Y19701D01*
X-120500Y19832D01*
D02*
G37*
G36*
X-180500D02*
X-181492Y19701D01*
X-182416Y19319D01*
X-183210Y18710D01*
X-183819Y17916D01*
X-184201Y16992D01*
X-184332Y16000D01*
X-184201Y15008D01*
X-183819Y14084D01*
X-183210Y13290D01*
X-182416Y12681D01*
X-181492Y12299D01*
X-180500Y12168D01*
X-179508Y12299D01*
X-178584Y12681D01*
X-177790Y13290D01*
X-177181Y14084D01*
X-176799Y15008D01*
X-176668Y16000D01*
X-176799Y16992D01*
X-177181Y17916D01*
X-177790Y18710D01*
X-178584Y19319D01*
X-179508Y19701D01*
X-180500Y19832D01*
D02*
G37*
G36*
X-120500Y9832D02*
X-121492Y9701D01*
X-122416Y9319D01*
X-123210Y8710D01*
X-123819Y7916D01*
X-124201Y6992D01*
X-124332Y6000D01*
X-124201Y5008D01*
X-123819Y4084D01*
X-123210Y3290D01*
X-122416Y2681D01*
X-121492Y2299D01*
X-120500Y2168D01*
X-119508Y2299D01*
X-118584Y2681D01*
X-117790Y3290D01*
X-117181Y4084D01*
X-116799Y5008D01*
X-116668Y6000D01*
X-116799Y6992D01*
X-117181Y7916D01*
X-117790Y8710D01*
X-118584Y9319D01*
X-119508Y9701D01*
X-120500Y9832D01*
D02*
G37*
G36*
X-180500D02*
X-181492Y9701D01*
X-182416Y9319D01*
X-183210Y8710D01*
X-183819Y7916D01*
X-184201Y6992D01*
X-184332Y6000D01*
X-184201Y5008D01*
X-183819Y4084D01*
X-183210Y3290D01*
X-182416Y2681D01*
X-181492Y2299D01*
X-180500Y2168D01*
X-179508Y2299D01*
X-178584Y2681D01*
X-177790Y3290D01*
X-177181Y4084D01*
X-176799Y5008D01*
X-176668Y6000D01*
X-176799Y6992D01*
X-177181Y7916D01*
X-177790Y8710D01*
X-178584Y9319D01*
X-179508Y9701D01*
X-180500Y9832D01*
D02*
G37*
G36*
X-151279Y1585D02*
Y-39D01*
X-149655D01*
X-149725Y312D01*
X-150207Y1033D01*
X-150928Y1515D01*
X-151279Y1585D01*
D02*
G37*
G36*
X-152279D02*
X-152630Y1515D01*
X-153352Y1033D01*
X-153834Y312D01*
X-153904Y-39D01*
X-152279D01*
Y1585D01*
D02*
G37*
G36*
X-170965D02*
Y-39D01*
X-169340D01*
X-169410Y312D01*
X-169892Y1033D01*
X-170614Y1515D01*
X-170965Y1585D01*
D02*
G37*
G36*
X-171965D02*
X-172316Y1515D01*
X-173037Y1033D01*
X-173519Y312D01*
X-173589Y-39D01*
X-171965D01*
Y1585D01*
D02*
G37*
G36*
X-149655Y-1039D02*
X-151279D01*
Y-2664D01*
X-150928Y-2594D01*
X-150207Y-2112D01*
X-149725Y-1390D01*
X-149655Y-1039D01*
D02*
G37*
G36*
X-152279D02*
X-153904D01*
X-153834Y-1390D01*
X-153352Y-2112D01*
X-152630Y-2594D01*
X-152279Y-2664D01*
Y-1039D01*
D02*
G37*
G36*
X-169340D02*
X-170965D01*
Y-2664D01*
X-170614Y-2594D01*
X-169892Y-2112D01*
X-169410Y-1390D01*
X-169340Y-1039D01*
D02*
G37*
G36*
X-171965D02*
X-173589D01*
X-173519Y-1390D01*
X-173037Y-2112D01*
X-172316Y-2594D01*
X-171965Y-2664D01*
Y-1039D01*
D02*
G37*
G36*
X-120500Y-168D02*
X-121492Y-299D01*
X-122416Y-681D01*
X-123210Y-1290D01*
X-123819Y-2084D01*
X-124201Y-3008D01*
X-124332Y-4000D01*
X-124201Y-4992D01*
X-123819Y-5916D01*
X-123210Y-6710D01*
X-122416Y-7319D01*
X-121492Y-7701D01*
X-120500Y-7832D01*
X-119508Y-7701D01*
X-118584Y-7319D01*
X-117790Y-6710D01*
X-117181Y-5916D01*
X-116799Y-4992D01*
X-116668Y-4000D01*
X-116799Y-3008D01*
X-117181Y-2084D01*
X-117790Y-1290D01*
X-118584Y-681D01*
X-119508Y-299D01*
X-120500Y-168D01*
D02*
G37*
G36*
X-76925Y-10500D02*
X-79000D01*
Y-11984D01*
X-76925D01*
Y-10500D01*
D02*
G37*
G36*
X-120500Y-10168D02*
X-121492Y-10299D01*
X-122416Y-10681D01*
X-123210Y-11290D01*
X-123819Y-12084D01*
X-124201Y-13008D01*
X-124332Y-14000D01*
X-124201Y-14992D01*
X-123819Y-15916D01*
X-123210Y-16710D01*
X-122416Y-17319D01*
X-121768Y-17587D01*
X-121914Y-18068D01*
X-122252Y-18001D01*
X-123103Y-18170D01*
X-123825Y-18652D01*
X-124306Y-19373D01*
X-124376Y-19724D01*
X-120128D01*
X-120197Y-19373D01*
X-120679Y-18652D01*
X-121312Y-18229D01*
X-121185Y-17742D01*
X-120500Y-17832D01*
X-119508Y-17701D01*
X-118584Y-17319D01*
X-117790Y-16710D01*
X-117181Y-15916D01*
X-116799Y-14992D01*
X-116668Y-14000D01*
X-116799Y-13008D01*
X-117181Y-12084D01*
X-117790Y-11290D01*
X-118584Y-10681D01*
X-119508Y-10299D01*
X-120500Y-10168D01*
D02*
G37*
G36*
X-180500D02*
X-181492Y-10299D01*
X-182416Y-10681D01*
X-183210Y-11290D01*
X-183819Y-12084D01*
X-184201Y-13008D01*
X-184332Y-14000D01*
X-184201Y-14992D01*
X-183819Y-15916D01*
X-183210Y-16710D01*
X-182416Y-17319D01*
X-181492Y-17701D01*
X-180500Y-17832D01*
X-179508Y-17701D01*
X-178584Y-17319D01*
X-177790Y-16710D01*
X-177181Y-15916D01*
X-176799Y-14992D01*
X-176668Y-14000D01*
X-176799Y-13008D01*
X-177181Y-12084D01*
X-177790Y-11290D01*
X-178584Y-10681D01*
X-179508Y-10299D01*
X-180500Y-10168D01*
D02*
G37*
G36*
X-43012Y-18100D02*
Y-19724D01*
X-41387D01*
X-41457Y-19373D01*
X-41939Y-18652D01*
X-42661Y-18170D01*
X-43012Y-18100D01*
D02*
G37*
G36*
X-44012D02*
X-44363Y-18170D01*
X-45084Y-18652D01*
X-45566Y-19373D01*
X-45636Y-19724D01*
X-44012D01*
Y-18100D01*
D02*
G37*
G36*
X-62697D02*
Y-19724D01*
X-61072D01*
X-61142Y-19373D01*
X-61624Y-18652D01*
X-62346Y-18170D01*
X-62697Y-18100D01*
D02*
G37*
G36*
X-63697D02*
X-64048Y-18170D01*
X-64769Y-18652D01*
X-65251Y-19373D01*
X-65321Y-19724D01*
X-63697D01*
Y-18100D01*
D02*
G37*
G36*
X-82382D02*
Y-19724D01*
X-80757D01*
X-80827Y-19373D01*
X-81309Y-18652D01*
X-82031Y-18170D01*
X-82382Y-18100D01*
D02*
G37*
G36*
X-83382D02*
X-83733Y-18170D01*
X-84454Y-18652D01*
X-84936Y-19373D01*
X-85006Y-19724D01*
X-83382D01*
Y-18100D01*
D02*
G37*
G36*
X-102067D02*
Y-19724D01*
X-100443D01*
X-100512Y-19373D01*
X-100994Y-18652D01*
X-101716Y-18170D01*
X-102067Y-18100D01*
D02*
G37*
G36*
X-103067D02*
X-103418Y-18170D01*
X-104139Y-18652D01*
X-104622Y-19373D01*
X-104691Y-19724D01*
X-103067D01*
Y-18100D01*
D02*
G37*
G36*
X-141437D02*
Y-19724D01*
X-139813D01*
X-139882Y-19373D01*
X-140365Y-18652D01*
X-141086Y-18170D01*
X-141437Y-18100D01*
D02*
G37*
G36*
X-142437D02*
X-142788Y-18170D01*
X-143509Y-18652D01*
X-143992Y-19373D01*
X-144061Y-19724D01*
X-142437D01*
Y-18100D01*
D02*
G37*
G36*
X-161122D02*
Y-19724D01*
X-159498D01*
X-159567Y-19373D01*
X-160049Y-18652D01*
X-160771Y-18170D01*
X-161122Y-18100D01*
D02*
G37*
G36*
X-162122D02*
X-162473Y-18170D01*
X-163195Y-18652D01*
X-163677Y-19373D01*
X-163746Y-19724D01*
X-162122D01*
Y-18100D01*
D02*
G37*
G36*
X-41387Y-20724D02*
X-43012D01*
Y-22349D01*
X-42661Y-22279D01*
X-41939Y-21797D01*
X-41457Y-21075D01*
X-41387Y-20724D01*
D02*
G37*
G36*
X-44012D02*
X-45636D01*
X-45566Y-21075D01*
X-45084Y-21797D01*
X-44363Y-22279D01*
X-44012Y-22349D01*
Y-20724D01*
D02*
G37*
G36*
X-61072D02*
X-62697D01*
Y-22349D01*
X-62346Y-22279D01*
X-61624Y-21797D01*
X-61142Y-21075D01*
X-61072Y-20724D01*
D02*
G37*
G36*
X-63697D02*
X-65321D01*
X-65251Y-21075D01*
X-64769Y-21797D01*
X-64048Y-22279D01*
X-63697Y-22349D01*
Y-20724D01*
D02*
G37*
G36*
X-80757D02*
X-82382D01*
Y-22349D01*
X-82031Y-22279D01*
X-81309Y-21797D01*
X-80827Y-21075D01*
X-80757Y-20724D01*
D02*
G37*
G36*
X-83382D02*
X-85006D01*
X-84936Y-21075D01*
X-84454Y-21797D01*
X-83733Y-22279D01*
X-83382Y-22349D01*
Y-20724D01*
D02*
G37*
G36*
X-100443D02*
X-102067D01*
Y-22349D01*
X-101716Y-22279D01*
X-100994Y-21797D01*
X-100512Y-21075D01*
X-100443Y-20724D01*
D02*
G37*
G36*
X-103067D02*
X-104691D01*
X-104622Y-21075D01*
X-104139Y-21797D01*
X-103418Y-22279D01*
X-103067Y-22349D01*
Y-20724D01*
D02*
G37*
G36*
X-120128D02*
X-121752D01*
Y-22349D01*
X-121401Y-22279D01*
X-120679Y-21797D01*
X-120197Y-21075D01*
X-120128Y-20724D01*
D02*
G37*
G36*
X-122752D02*
X-124376D01*
X-124306Y-21075D01*
X-123825Y-21797D01*
X-123103Y-22279D01*
X-122752Y-22349D01*
Y-20724D01*
D02*
G37*
G36*
X-139813D02*
X-141437D01*
Y-22349D01*
X-141086Y-22279D01*
X-140365Y-21797D01*
X-139882Y-21075D01*
X-139813Y-20724D01*
D02*
G37*
G36*
X-142437D02*
X-144061D01*
X-143992Y-21075D01*
X-143509Y-21797D01*
X-142788Y-22279D01*
X-142437Y-22349D01*
Y-20724D01*
D02*
G37*
G36*
X-159498D02*
X-161122D01*
Y-22349D01*
X-160771Y-22279D01*
X-160049Y-21797D01*
X-159567Y-21075D01*
X-159498Y-20724D01*
D02*
G37*
G36*
X-162122D02*
X-163746D01*
X-163677Y-21075D01*
X-163195Y-21797D01*
X-162473Y-22279D01*
X-162122Y-22349D01*
Y-20724D01*
D02*
G37*
G36*
X-72500Y-18570D02*
X-73733Y-18732D01*
X-74883Y-19208D01*
X-75870Y-19965D01*
X-76627Y-20952D01*
X-77103Y-22101D01*
X-77265Y-23335D01*
X-77103Y-24568D01*
X-76627Y-25717D01*
X-75870Y-26704D01*
X-74883Y-27461D01*
X-73733Y-27937D01*
X-72500Y-28100D01*
X-71267Y-27937D01*
X-70117Y-27461D01*
X-69130Y-26704D01*
X-68373Y-25717D01*
X-67897Y-24568D01*
X-67735Y-23335D01*
X-67897Y-22101D01*
X-68373Y-20952D01*
X-69130Y-19965D01*
X-70117Y-19208D01*
X-71267Y-18732D01*
X-72500Y-18570D01*
D02*
G37*
G36*
X-52854Y-37785D02*
Y-39409D01*
X-51230D01*
X-51300Y-39058D01*
X-51782Y-38337D01*
X-52503Y-37855D01*
X-52854Y-37785D01*
D02*
G37*
G36*
X-53854D02*
X-54205Y-37855D01*
X-54927Y-38337D01*
X-55409Y-39058D01*
X-55479Y-39409D01*
X-53854D01*
Y-37785D01*
D02*
G37*
G36*
X-72539D02*
Y-39409D01*
X-70915D01*
X-70985Y-39058D01*
X-71467Y-38337D01*
X-72188Y-37855D01*
X-72539Y-37785D01*
D02*
G37*
G36*
X-73539D02*
X-73890Y-37855D01*
X-74612Y-38337D01*
X-75094Y-39058D01*
X-75164Y-39409D01*
X-73539D01*
Y-37785D01*
D02*
G37*
G36*
X-92224D02*
Y-39409D01*
X-90600D01*
X-90670Y-39058D01*
X-91152Y-38337D01*
X-91873Y-37855D01*
X-92224Y-37785D01*
D02*
G37*
G36*
X-93224D02*
X-93575Y-37855D01*
X-94297Y-38337D01*
X-94779Y-39058D01*
X-94849Y-39409D01*
X-93224D01*
Y-37785D01*
D02*
G37*
G36*
X-111909D02*
Y-39409D01*
X-110285D01*
X-110355Y-39058D01*
X-110837Y-38337D01*
X-111558Y-37855D01*
X-111909Y-37785D01*
D02*
G37*
G36*
X-112909D02*
X-113260Y-37855D01*
X-113982Y-38337D01*
X-114464Y-39058D01*
X-114534Y-39409D01*
X-112909D01*
Y-37785D01*
D02*
G37*
G36*
X-131595D02*
Y-39409D01*
X-129970D01*
X-130040Y-39058D01*
X-130522Y-38337D01*
X-131244Y-37855D01*
X-131595Y-37785D01*
D02*
G37*
G36*
X-132595D02*
X-132946Y-37855D01*
X-133667Y-38337D01*
X-134149Y-39058D01*
X-134219Y-39409D01*
X-132595D01*
Y-37785D01*
D02*
G37*
G36*
X-51230Y-40409D02*
X-52854D01*
Y-42034D01*
X-52503Y-41964D01*
X-51782Y-41482D01*
X-51300Y-40760D01*
X-51230Y-40409D01*
D02*
G37*
G36*
X-53854D02*
X-55479D01*
X-55409Y-40760D01*
X-54927Y-41482D01*
X-54205Y-41964D01*
X-53854Y-42034D01*
Y-40409D01*
D02*
G37*
G36*
X-70915D02*
X-72539D01*
Y-42034D01*
X-72188Y-41964D01*
X-71467Y-41482D01*
X-70985Y-40760D01*
X-70915Y-40409D01*
D02*
G37*
G36*
X-73539D02*
X-75164D01*
X-75094Y-40760D01*
X-74612Y-41482D01*
X-73890Y-41964D01*
X-73539Y-42034D01*
Y-40409D01*
D02*
G37*
G36*
X-90600D02*
X-92224D01*
Y-42034D01*
X-91873Y-41964D01*
X-91152Y-41482D01*
X-90670Y-40760D01*
X-90600Y-40409D01*
D02*
G37*
G36*
X-93224D02*
X-94849D01*
X-94779Y-40760D01*
X-94297Y-41482D01*
X-93575Y-41964D01*
X-93224Y-42034D01*
Y-40409D01*
D02*
G37*
G36*
X-110285D02*
X-111909D01*
Y-42034D01*
X-111558Y-41964D01*
X-110837Y-41482D01*
X-110355Y-40760D01*
X-110285Y-40409D01*
D02*
G37*
G36*
X-112909D02*
X-114534D01*
X-114464Y-40760D01*
X-113982Y-41482D01*
X-113260Y-41964D01*
X-112909Y-42034D01*
Y-40409D01*
D02*
G37*
G36*
X-163500Y-48531D02*
Y-52000D01*
X-160031D01*
X-160103Y-51456D01*
X-160506Y-50483D01*
X-161147Y-49647D01*
X-161983Y-49006D01*
X-162956Y-48603D01*
X-163500Y-48531D01*
D02*
G37*
G36*
X-164500D02*
X-165044Y-48603D01*
X-166017Y-49006D01*
X-166853Y-49647D01*
X-167494Y-50483D01*
X-167897Y-51456D01*
X-167969Y-52000D01*
X-164500D01*
Y-48531D01*
D02*
G37*
G36*
X-180213Y-48713D02*
X-187787D01*
Y-56287D01*
X-180213D01*
Y-48713D01*
D02*
G37*
G36*
X-154000Y-48680D02*
X-154989Y-48810D01*
X-155910Y-49192D01*
X-156701Y-49799D01*
X-157308Y-50590D01*
X-157690Y-51511D01*
X-157820Y-52500D01*
X-157690Y-53489D01*
X-157308Y-54410D01*
X-156701Y-55201D01*
X-155910Y-55808D01*
X-154989Y-56190D01*
X-154000Y-56320D01*
X-153011Y-56190D01*
X-152090Y-55808D01*
X-151299Y-55201D01*
X-150692Y-54410D01*
X-150310Y-53489D01*
X-150180Y-52500D01*
X-150310Y-51511D01*
X-150692Y-50590D01*
X-151299Y-49799D01*
X-152090Y-49192D01*
X-153011Y-48810D01*
X-154000Y-48680D01*
D02*
G37*
G36*
X-174000D02*
X-174989Y-48810D01*
X-175910Y-49192D01*
X-176701Y-49799D01*
X-177308Y-50590D01*
X-177690Y-51511D01*
X-177820Y-52500D01*
X-177690Y-53489D01*
X-177308Y-54410D01*
X-176701Y-55201D01*
X-175910Y-55808D01*
X-174989Y-56190D01*
X-174000Y-56320D01*
X-173011Y-56190D01*
X-172090Y-55808D01*
X-171299Y-55201D01*
X-170692Y-54410D01*
X-170310Y-53489D01*
X-170180Y-52500D01*
X-170310Y-51511D01*
X-170692Y-50590D01*
X-171299Y-49799D01*
X-172090Y-49192D01*
X-173011Y-48810D01*
X-174000Y-48680D01*
D02*
G37*
G36*
X-160031Y-53000D02*
X-163500D01*
Y-56469D01*
X-162956Y-56397D01*
X-161983Y-55994D01*
X-161147Y-55353D01*
X-160506Y-54517D01*
X-160103Y-53544D01*
X-160031Y-53000D01*
D02*
G37*
G36*
X-164500D02*
X-167969D01*
X-167897Y-53544D01*
X-167494Y-54517D01*
X-166853Y-55353D01*
X-166017Y-55994D01*
X-165044Y-56397D01*
X-164500Y-56469D01*
Y-53000D01*
D02*
G37*
G36*
X-72500Y-48694D02*
X-73528Y-48830D01*
X-74485Y-49226D01*
X-75308Y-49858D01*
X-75939Y-50680D01*
X-76336Y-51638D01*
X-76471Y-52665D01*
X-76336Y-53693D01*
X-75939Y-54651D01*
X-75308Y-55473D01*
X-74485Y-56104D01*
X-73528Y-56501D01*
X-72500Y-56636D01*
X-71472Y-56501D01*
X-70515Y-56104D01*
X-69692Y-55473D01*
X-69061Y-54651D01*
X-68664Y-53693D01*
X-68529Y-52665D01*
X-68664Y-51638D01*
X-69061Y-50680D01*
X-69692Y-49858D01*
X-70515Y-49226D01*
X-71472Y-48830D01*
X-72500Y-48694D01*
D02*
G37*
G36*
X-43012Y-57470D02*
Y-59095D01*
X-41387D01*
X-41457Y-58744D01*
X-41939Y-58022D01*
X-42661Y-57540D01*
X-43012Y-57470D01*
D02*
G37*
G36*
X-44012D02*
X-44363Y-57540D01*
X-45084Y-58022D01*
X-45566Y-58744D01*
X-45636Y-59095D01*
X-44012D01*
Y-57470D01*
D02*
G37*
G36*
X-62697D02*
Y-59095D01*
X-61072D01*
X-61142Y-58744D01*
X-61624Y-58022D01*
X-62346Y-57540D01*
X-62697Y-57470D01*
D02*
G37*
G36*
X-63697D02*
X-64048Y-57540D01*
X-64769Y-58022D01*
X-65251Y-58744D01*
X-65321Y-59095D01*
X-63697D01*
Y-57470D01*
D02*
G37*
G36*
X-82382D02*
Y-59095D01*
X-80757D01*
X-80827Y-58744D01*
X-81309Y-58022D01*
X-82031Y-57540D01*
X-82382Y-57470D01*
D02*
G37*
G36*
X-83382D02*
X-83733Y-57540D01*
X-84454Y-58022D01*
X-84936Y-58744D01*
X-85006Y-59095D01*
X-83382D01*
Y-57470D01*
D02*
G37*
G36*
X-102067D02*
Y-59095D01*
X-100443D01*
X-100512Y-58744D01*
X-100994Y-58022D01*
X-101716Y-57540D01*
X-102067Y-57470D01*
D02*
G37*
G36*
X-103067D02*
X-103418Y-57540D01*
X-104139Y-58022D01*
X-104622Y-58744D01*
X-104691Y-59095D01*
X-103067D01*
Y-57470D01*
D02*
G37*
G36*
X-142437D02*
X-142788Y-57540D01*
X-143509Y-58022D01*
X-143992Y-58744D01*
X-144061Y-59095D01*
X-142437D01*
Y-57470D01*
D02*
G37*
G36*
X-161122D02*
Y-59095D01*
X-159498D01*
X-159567Y-58744D01*
X-160049Y-58022D01*
X-160771Y-57540D01*
X-161122Y-57470D01*
D02*
G37*
G36*
X-162122D02*
X-162473Y-57540D01*
X-163195Y-58022D01*
X-163677Y-58744D01*
X-163746Y-59095D01*
X-162122D01*
Y-57470D01*
D02*
G37*
G36*
X-41387Y-60094D02*
X-43012D01*
Y-61719D01*
X-42661Y-61649D01*
X-41939Y-61167D01*
X-41457Y-60445D01*
X-41387Y-60094D01*
D02*
G37*
G36*
X-44012D02*
X-45636D01*
X-45566Y-60445D01*
X-45084Y-61167D01*
X-44363Y-61649D01*
X-44012Y-61719D01*
Y-60094D01*
D02*
G37*
G36*
X-61072D02*
X-62697D01*
Y-61719D01*
X-62346Y-61649D01*
X-61624Y-61167D01*
X-61142Y-60445D01*
X-61072Y-60094D01*
D02*
G37*
G36*
X-63697D02*
X-65321D01*
X-65251Y-60445D01*
X-64769Y-61167D01*
X-64048Y-61649D01*
X-63697Y-61719D01*
Y-60094D01*
D02*
G37*
G36*
X-80757D02*
X-82382D01*
Y-61719D01*
X-82031Y-61649D01*
X-81309Y-61167D01*
X-80827Y-60445D01*
X-80757Y-60094D01*
D02*
G37*
G36*
X-83382D02*
X-85006D01*
X-84936Y-60445D01*
X-84454Y-61167D01*
X-83733Y-61649D01*
X-83382Y-61719D01*
Y-60094D01*
D02*
G37*
G36*
X-100443D02*
X-102067D01*
Y-61719D01*
X-101716Y-61649D01*
X-100994Y-61167D01*
X-100512Y-60445D01*
X-100443Y-60094D01*
D02*
G37*
G36*
X-103067D02*
X-104691D01*
X-104622Y-60445D01*
X-104139Y-61167D01*
X-103418Y-61649D01*
X-103067Y-61719D01*
Y-60094D01*
D02*
G37*
G36*
X-142437D02*
X-144061D01*
X-143992Y-60445D01*
X-143509Y-61167D01*
X-142788Y-61649D01*
X-142437Y-61719D01*
Y-60094D01*
D02*
G37*
G36*
X-159498D02*
X-161122D01*
Y-61719D01*
X-160771Y-61649D01*
X-160049Y-61167D01*
X-159567Y-60445D01*
X-159498Y-60094D01*
D02*
G37*
G36*
X-162122D02*
X-163746D01*
X-163677Y-60445D01*
X-163195Y-61167D01*
X-162473Y-61649D01*
X-162122Y-61719D01*
Y-60094D01*
D02*
G37*
G36*
X-72000Y-68159D02*
Y-69784D01*
X-70376D01*
X-70446Y-69432D01*
X-70928Y-68711D01*
X-71649Y-68229D01*
X-72000Y-68159D01*
D02*
G37*
G36*
X-73000D02*
X-73351Y-68229D01*
X-74072Y-68711D01*
X-74555Y-69432D01*
X-74624Y-69784D01*
X-73000D01*
Y-68159D01*
D02*
G37*
G36*
X-52854Y-77155D02*
Y-78780D01*
X-51230D01*
X-51300Y-78429D01*
X-51782Y-77707D01*
X-52503Y-77225D01*
X-52854Y-77155D01*
D02*
G37*
G36*
X-53854D02*
X-54205Y-77225D01*
X-54927Y-77707D01*
X-55409Y-78429D01*
X-55479Y-78780D01*
X-53854D01*
Y-77155D01*
D02*
G37*
G36*
X-92224D02*
Y-78780D01*
X-90600D01*
X-90670Y-78429D01*
X-91152Y-77707D01*
X-91873Y-77225D01*
X-92224Y-77155D01*
D02*
G37*
G36*
X-93224D02*
X-93575Y-77225D01*
X-94297Y-77707D01*
X-94779Y-78429D01*
X-94849Y-78780D01*
X-93224D01*
Y-77155D01*
D02*
G37*
G36*
X-111909D02*
Y-78780D01*
X-110285D01*
X-110355Y-78429D01*
X-110837Y-77707D01*
X-111558Y-77225D01*
X-111909Y-77155D01*
D02*
G37*
G36*
X-112909D02*
X-113260Y-77225D01*
X-113982Y-77707D01*
X-114464Y-78429D01*
X-114534Y-78780D01*
X-112909D01*
Y-77155D01*
D02*
G37*
G36*
X-131595D02*
Y-78780D01*
X-129970D01*
X-130040Y-78429D01*
X-130522Y-77707D01*
X-131244Y-77225D01*
X-131595Y-77155D01*
D02*
G37*
G36*
X-132595D02*
X-132946Y-77225D01*
X-133667Y-77707D01*
X-134149Y-78429D01*
X-134219Y-78780D01*
X-132595D01*
Y-77155D01*
D02*
G37*
G36*
X-151279D02*
Y-78780D01*
X-149655D01*
X-149725Y-78429D01*
X-150207Y-77707D01*
X-150928Y-77225D01*
X-151279Y-77155D01*
D02*
G37*
G36*
X-152279D02*
X-152630Y-77225D01*
X-153352Y-77707D01*
X-153834Y-78429D01*
X-153904Y-78780D01*
X-152279D01*
Y-77155D01*
D02*
G37*
G36*
X-170965D02*
Y-78780D01*
X-169340D01*
X-169410Y-78429D01*
X-169892Y-77707D01*
X-170614Y-77225D01*
X-170965Y-77155D01*
D02*
G37*
G36*
X-171965D02*
X-172316Y-77225D01*
X-173037Y-77707D01*
X-173519Y-78429D01*
X-173589Y-78780D01*
X-171965D01*
Y-77155D01*
D02*
G37*
G36*
X-43012Y60640D02*
Y59016D01*
X-41387D01*
X-41457Y59367D01*
X-41939Y60088D01*
X-42661Y60570D01*
X-43012Y60640D01*
D02*
G37*
G36*
X-44012D02*
X-44363Y60570D01*
X-45084Y60088D01*
X-45566Y59367D01*
X-45636Y59016D01*
X-44012D01*
Y60640D01*
D02*
G37*
G36*
X-62697D02*
Y59016D01*
X-61072D01*
X-61142Y59367D01*
X-61624Y60088D01*
X-62346Y60570D01*
X-62697Y60640D01*
D02*
G37*
G36*
X-63697D02*
X-64048Y60570D01*
X-64769Y60088D01*
X-65251Y59367D01*
X-65321Y59016D01*
X-63697D01*
Y60640D01*
D02*
G37*
G36*
X-41387Y58016D02*
X-43012D01*
Y56391D01*
X-42661Y56461D01*
X-41939Y56943D01*
X-41457Y57665D01*
X-41387Y58016D01*
D02*
G37*
G36*
X-44012D02*
X-45636D01*
X-45566Y57665D01*
X-45084Y56943D01*
X-44363Y56461D01*
X-44012Y56391D01*
Y58016D01*
D02*
G37*
G36*
X-61072D02*
X-62697D01*
Y56391D01*
X-62346Y56461D01*
X-61624Y56943D01*
X-61142Y57665D01*
X-61072Y58016D01*
D02*
G37*
G36*
X-63697D02*
X-65321D01*
X-65251Y57665D01*
X-64769Y56943D01*
X-64048Y56461D01*
X-63697Y56391D01*
Y58016D01*
D02*
G37*
G36*
X-52854Y40955D02*
Y39331D01*
X-51230D01*
X-51300Y39682D01*
X-51782Y40403D01*
X-52503Y40885D01*
X-52854Y40955D01*
D02*
G37*
G36*
X-53854D02*
X-54205Y40885D01*
X-54927Y40403D01*
X-55409Y39682D01*
X-55479Y39331D01*
X-53854D01*
Y40955D01*
D02*
G37*
G36*
X-51230Y38331D02*
X-52854D01*
Y36706D01*
X-52503Y36776D01*
X-51782Y37258D01*
X-51300Y37980D01*
X-51230Y38331D01*
D02*
G37*
G36*
X-53854D02*
X-55479D01*
X-55409Y37980D01*
X-54927Y37258D01*
X-54205Y36776D01*
X-53854Y36706D01*
Y38331D01*
D02*
G37*
G36*
X-60000Y28421D02*
X-63453D01*
Y23000D01*
X-60000D01*
Y28421D01*
D02*
G37*
G36*
X-55547Y22000D02*
X-59000D01*
Y16579D01*
X-55547D01*
Y22000D01*
D02*
G37*
G36*
X-60000D02*
X-63453D01*
Y16579D01*
X-60000D01*
Y22000D01*
D02*
G37*
G36*
X-58669Y13957D02*
X-60744D01*
Y11685D01*
X-58669D01*
Y13957D01*
D02*
G37*
G36*
X-61744D02*
X-63819D01*
Y11685D01*
X-61744D01*
Y13957D01*
D02*
G37*
G36*
X-143228Y67756D02*
X-145500D01*
Y65681D01*
X-143228D01*
Y67756D01*
D02*
G37*
G36*
X-96311Y57135D02*
X-96855Y57064D01*
X-97828Y56661D01*
X-98664Y56020D01*
X-99305Y55184D01*
X-99708Y54211D01*
X-99780Y53667D01*
X-96311D01*
Y57135D01*
D02*
G37*
G36*
Y52667D02*
X-99780D01*
X-99708Y52122D01*
X-99305Y51149D01*
X-98664Y50314D01*
X-97828Y49673D01*
X-96855Y49270D01*
X-96311Y49198D01*
Y52667D01*
D02*
G37*
G36*
Y73388D02*
X-99780D01*
X-99708Y72844D01*
X-99305Y71871D01*
X-98664Y71035D01*
X-97828Y70394D01*
X-96855Y69991D01*
X-96311Y69919D01*
Y73388D01*
D02*
G37*
G36*
X-120500Y69832D02*
X-121492Y69701D01*
X-122416Y69319D01*
X-123210Y68710D01*
X-123819Y67916D01*
X-124201Y66992D01*
X-124332Y66000D01*
X-124201Y65008D01*
X-123819Y64084D01*
X-123210Y63290D01*
X-122416Y62681D01*
X-121492Y62299D01*
X-120500Y62168D01*
X-119508Y62299D01*
X-118584Y62681D01*
X-117790Y63290D01*
X-117181Y64084D01*
X-116799Y65008D01*
X-116668Y66000D01*
X-116799Y66992D01*
X-117181Y67916D01*
X-117790Y68710D01*
X-118584Y69319D01*
X-119508Y69701D01*
X-120500Y69832D01*
D02*
G37*
G36*
X-145169Y55272D02*
X-147244D01*
Y53000D01*
X-145169D01*
Y55272D01*
D02*
G37*
G36*
X-148244D02*
X-150319D01*
Y53000D01*
X-148244D01*
Y55272D01*
D02*
G37*
%LPD*%
D15*
X106626Y138500D02*
X108000Y137126D01*
X78626Y138500D02*
X106626D01*
X76809Y136683D02*
X78626Y138500D01*
X-18500Y18635D02*
Y29000D01*
X-19000Y18135D02*
X-18500Y18635D01*
X-19000Y8000D02*
Y18135D01*
X-27000Y4000D02*
Y22000D01*
Y4000D02*
X-26500Y3500D01*
X-23750Y20250D02*
X-23500Y20500D01*
X-21000Y15213D02*
Y25500D01*
X-21500Y14713D02*
X-21000Y15213D01*
X-23750Y7750D02*
Y20250D01*
X122500Y132500D02*
X122750Y132250D01*
Y127250D02*
Y132250D01*
Y127250D02*
X123000Y127000D01*
X120000Y117464D02*
Y129500D01*
X123000Y118343D02*
Y127000D01*
X104718Y100061D02*
X123000Y118343D01*
X-5478Y100061D02*
X104718D01*
X104096Y101561D02*
X120000Y117464D01*
X8540Y101561D02*
X104096D01*
X187346Y140154D02*
X187607Y139893D01*
X186346Y140154D02*
X187346D01*
X173000Y153500D02*
X186346Y140154D01*
X183000Y136500D02*
X187000D01*
X169500Y150000D02*
X183000Y136500D01*
X-5433Y102575D02*
X7526D01*
X-5579Y102720D02*
X-5433Y102575D01*
X7526D02*
X8540Y101561D01*
X-5579Y100161D02*
X-5478Y100061D01*
X-8474Y102335D02*
X-5965D01*
X-9228Y101581D02*
X-8474Y102335D01*
X-9228Y99266D02*
Y101581D01*
X-12494Y96000D02*
X-9228Y99266D01*
X-56121Y96000D02*
X-12494D01*
X-5579Y96421D02*
Y100161D01*
X-7500Y94500D02*
X-5579Y96421D01*
X-55500Y94500D02*
X-7500D01*
X-24543Y100655D02*
X-19919Y105280D01*
X-15421D01*
X-23500Y112406D02*
X-19284Y108189D01*
X-15772D01*
X-15421Y107839D01*
X-79523Y84969D02*
X-67153D01*
X-5965Y102335D02*
X-5579Y102720D01*
X-67153Y84969D02*
X-56121Y96000D01*
X-67500Y82500D02*
X-55500Y94500D01*
X-24543Y100457D02*
Y100655D01*
X-82293Y82197D02*
X-79523Y84969D01*
X-82293Y79532D02*
Y82197D01*
X-78500Y82500D02*
X-67500D01*
X29500Y-137750D02*
Y-137500D01*
X7500Y-159750D02*
X29500Y-137750D01*
X7500Y-160000D02*
Y-159750D01*
X-87451Y23937D02*
X-87343D01*
X-87736D02*
X-87451D01*
X-42500Y3000D02*
X-34500Y11000D01*
X-42500Y2000D02*
Y3000D01*
X-34500Y11000D02*
Y27000D01*
X-35374Y27874D02*
X-34500Y27000D01*
X-46528Y27874D02*
X-35374D01*
X-89713Y12476D02*
Y21961D01*
Y12476D02*
X-87240Y10004D01*
X-89713Y21961D02*
X-87736Y23937D01*
X-124500Y110000D02*
X-120500Y106000D01*
X-176500Y110000D02*
X-124500D01*
X-24000Y7500D02*
X-23750Y7750D01*
X-21500Y5000D02*
Y14713D01*
X-74158Y36106D02*
Y36500D01*
X-94000Y36500D02*
X-93843D01*
X-87937Y73888D02*
X-82293Y79532D01*
X-110124Y51701D02*
X-87937Y73888D01*
Y53167D02*
Y73888D01*
X-180500Y66000D02*
X-163941Y49441D01*
X-138368Y51701D02*
X-110124D01*
X-140628Y49441D02*
X-138368Y51701D01*
X-163941Y49441D02*
X-140628D01*
X-87640Y24126D02*
X-87451Y23937D01*
X-87240Y8921D02*
Y10004D01*
X-87937Y36500D02*
X-87640Y36203D01*
Y24126D02*
Y36203D01*
X-87937Y36500D02*
Y53167D01*
X-71500Y29000D02*
X-71239Y28739D01*
Y27687D02*
Y28739D01*
Y27687D02*
X-70914Y27362D01*
X-66921D01*
X-79500Y-7000D02*
Y-1000D01*
X-74500D01*
X-79681D02*
X-79500D01*
X-79760Y-921D02*
X-79681Y-1000D01*
X-66953Y5500D02*
Y17606D01*
X-66783Y17776D01*
X-50039Y24362D02*
X-46528Y27874D01*
X-51929Y24362D02*
X-50039D01*
X-52217Y24075D02*
X-51929Y24362D01*
X-46571Y20925D02*
X-43075Y24421D01*
X-52217Y20925D02*
X-46571D01*
X-52217Y17776D02*
X-46272D01*
X-43075Y14579D01*
X-41500D01*
X-43075Y24421D02*
X-41500D01*
X-52441Y157500D02*
X-47441Y152500D01*
X-132500Y157500D02*
X-52441D01*
X-179701Y110299D02*
X-132500Y157500D01*
X-182281Y110299D02*
X-179701D01*
X-186500Y106080D02*
X-182281Y110299D01*
X-186500Y2000D02*
Y106080D01*
Y2000D02*
X-180500Y-4000D01*
X-188000Y-24027D02*
Y108500D01*
X-189500Y-24648D02*
Y117000D01*
Y-24648D02*
X-170648Y-43500D01*
X-189500Y117000D02*
X-180500Y126000D01*
X-188000Y108500D02*
X-180500Y116000D01*
X-188000Y-24027D02*
X-170027Y-42000D01*
X-157621Y41000D02*
X-115500D01*
X-104000Y52500D01*
X-172621Y56000D02*
X-157621Y41000D01*
X-180500Y56000D02*
X-172621D01*
X-180500Y106000D02*
X-176500Y110000D01*
X-170027Y-42000D02*
X-133500D01*
X-129000Y-46500D01*
X-140743Y-43500D02*
X-138500Y-45743D01*
X-170648Y-43500D02*
X-140743D01*
X-138500Y-74000D02*
Y-45743D01*
Y-74000D02*
X-137638Y-74862D01*
X-131500Y-64409D02*
X-129000Y-61909D01*
X-131500Y-65000D02*
Y-64409D01*
Y-65000D02*
X-126000D01*
X-131500Y-72000D02*
X-126000D01*
X-131984Y-72484D02*
X-131500Y-72000D01*
X-131984Y-73864D02*
Y-72484D01*
X-132983Y-74862D02*
X-131984Y-73864D01*
X-137638Y-74862D02*
X-132983D01*
X-129000Y-61909D02*
Y-46500D01*
X-123000Y-72000D02*
Y-65000D01*
X-123484Y-64516D02*
X-123000Y-65000D01*
X-123484Y-64516D02*
Y-53016D01*
X-124000Y-52500D02*
X-123484Y-53016D01*
X-134500Y-72000D02*
Y-65000D01*
X-134250Y-64750D01*
Y-52750D01*
X-134000Y-52500D01*
X-160854Y68547D02*
X-153894D01*
X-125799Y71701D02*
X-115799D01*
X-137618Y59882D02*
X-125799Y71701D01*
X-149039Y59882D02*
X-137618D01*
X-91542Y78799D02*
X-80063Y90279D01*
X-108701Y78799D02*
X-91542D01*
X-115799Y71701D02*
X-108701Y78799D01*
X-97916Y80299D02*
X-87937Y90279D01*
X-123457Y80299D02*
X-97916D01*
X-153894Y68547D02*
X-153500D01*
X-132256Y71500D02*
X-123457Y80299D01*
X-118719Y91701D02*
X-114982Y95438D01*
X-120299Y91701D02*
X-118719D01*
X-121000Y91000D02*
X-120299Y91701D01*
X-133961Y91000D02*
X-121000D01*
X-114982Y95438D02*
Y107982D01*
X-147923Y71500D02*
X-132256D01*
X-149657Y60500D02*
X-149039Y59882D01*
X-155517Y60500D02*
X-149657D01*
X-156559Y61541D02*
X-155517Y60500D01*
X-156559Y61541D02*
Y65882D01*
X-153894Y68547D01*
X-158343Y79580D02*
X-154958Y82965D01*
X-141997D01*
X-133961Y91000D01*
X-150076Y69347D02*
X-147923Y71500D01*
X-150076Y66483D02*
Y69347D01*
X-153106Y63453D02*
X-150076Y66483D01*
X-153500Y63453D02*
X-153106D01*
X-153500Y57547D02*
X-153256Y57303D01*
Y52500D02*
Y57303D01*
X-153500Y79256D02*
X-153256Y79500D01*
X-153500Y74453D02*
Y79256D01*
X-114982Y107982D02*
X-103000Y119965D01*
Y123437D01*
X-97937Y128500D01*
X-158343Y78716D02*
Y79580D01*
X-162606Y74453D02*
X-158343Y78716D01*
X-163000Y74453D02*
X-162606D01*
X-80063Y90279D02*
Y111000D01*
X-87937D02*
Y128500D01*
Y90279D02*
Y111000D01*
X-80063Y53167D02*
Y73888D01*
Y36500D02*
Y53167D01*
X-66921Y27362D02*
X-66783Y27224D01*
X-66852Y24006D02*
X-66783Y24075D01*
X-79990Y24006D02*
X-66852D01*
X-80059Y23937D02*
X-79990Y24006D01*
X-80061Y23939D02*
X-80059Y23937D01*
X-80061Y23939D02*
Y36498D01*
X-80063Y36500D02*
X-80061Y36498D01*
X-78248Y23748D02*
X-77500Y23000D01*
X-79870Y23748D02*
X-78248D01*
X-80059Y23937D02*
X-79870Y23748D01*
X-77500Y12264D02*
Y23000D01*
X-79760Y10004D02*
X-77500Y12264D01*
X-79760Y8921D02*
Y10004D01*
D18*
X-15285Y100297D02*
X-12422D01*
X11500Y-37382D02*
X21976Y-26906D01*
X11500Y-47047D02*
Y-37382D01*
X3626Y95563D02*
X3752Y95437D01*
Y87063D02*
Y95437D01*
X-15421Y99421D02*
X-15000Y99000D01*
X-15421Y99421D02*
Y100161D01*
X-5579Y105280D02*
X-2106D01*
X-5579Y105280D02*
X-5579Y105280D01*
X-3500Y108441D02*
Y108500D01*
X-4102Y107839D02*
X-3500Y108441D01*
X-5579Y107839D02*
X-4102D01*
X-10978Y114396D02*
X-9500Y115874D01*
X-10978Y101741D02*
Y114396D01*
X-12422Y100297D02*
X-10978Y101741D01*
X-15421Y100161D02*
X-15285Y100297D01*
X112185Y-26906D02*
X117500Y-32221D01*
Y-44126D02*
Y-32221D01*
X112579Y-49047D02*
X117500Y-44126D01*
X112185Y-49047D02*
X112579D01*
D21*
X-35000Y60500D02*
D03*
X-45000Y87500D02*
D03*
X-28500D02*
D03*
D22*
X3626Y95563D02*
D03*
X19374D02*
D03*
X11500D02*
D03*
X3752Y87063D02*
D03*
X19500D02*
D03*
X11626D02*
D03*
D23*
X-5579Y107839D02*
D03*
Y105280D02*
D03*
Y102720D02*
D03*
Y100161D02*
D03*
X-15421D02*
D03*
Y102720D02*
D03*
Y105280D02*
D03*
Y107839D02*
D03*
D24*
X11500Y-52953D02*
D03*
Y-47047D02*
D03*
X-169500Y67547D02*
D03*
Y73453D02*
D03*
X112185Y-49047D02*
D03*
Y-54953D02*
D03*
X-163000Y68547D02*
D03*
Y74453D02*
D03*
X-153500Y63453D02*
D03*
Y57547D02*
D03*
X-153500Y68547D02*
D03*
Y74453D02*
D03*
D25*
X134000Y137126D02*
D03*
Y152874D02*
D03*
Y145000D02*
D03*
X126500Y137126D02*
D03*
Y152874D02*
D03*
Y145000D02*
D03*
X116000Y137126D02*
D03*
Y152874D02*
D03*
Y145000D02*
D03*
X108000Y137126D02*
D03*
Y152874D02*
D03*
Y145000D02*
D03*
D26*
X-131500Y-65000D02*
D03*
X-134500D02*
D03*
X-123000D02*
D03*
X-126000D02*
D03*
Y-72000D02*
D03*
X-123000D02*
D03*
X-134500D02*
D03*
X-131500D02*
D03*
X-74500Y-1000D02*
D03*
X-71500D02*
D03*
D27*
X-52217Y17776D02*
D03*
Y20925D02*
D03*
Y24075D02*
D03*
Y27224D02*
D03*
X-66783D02*
D03*
Y24075D02*
D03*
Y20925D02*
D03*
Y17776D02*
D03*
D28*
X-59500Y22500D02*
D03*
D29*
X-66953Y5500D02*
D03*
X-61047D02*
D03*
X-93843Y36500D02*
D03*
X-87937D02*
D03*
X-74158Y36500D02*
D03*
X-80063D02*
D03*
X-45047Y111000D02*
D03*
X-50953D02*
D03*
D30*
X-61244Y11185D02*
D03*
X-66756D02*
D03*
X-147744Y52500D02*
D03*
X-153256D02*
D03*
X-147744Y79500D02*
D03*
X-153256D02*
D03*
D31*
X-79760Y8921D02*
D03*
X-83500D02*
D03*
X-87240D02*
D03*
Y-921D02*
D03*
X-79760D02*
D03*
D32*
X-79500Y-10000D02*
D03*
Y-7000D02*
D03*
D33*
X-80059Y20000D02*
D03*
Y23937D02*
D03*
X-87343D02*
D03*
Y20000D02*
D03*
D34*
X-83701Y21969D02*
D03*
D35*
X-146000Y68256D02*
D03*
Y62744D02*
D03*
D36*
X-51445Y117000D02*
D03*
X-44555D02*
D03*
D37*
X-41500Y14579D02*
D03*
Y24421D02*
D03*
D72*
X145106Y-115291D02*
X155815Y-126000D01*
X145106Y-115291D02*
Y61069D01*
X56476Y-115500D02*
Y60476D01*
X87401Y-126000D02*
Y-105654D01*
X67216Y-85469D02*
X87401Y-105654D01*
X145106Y61069D02*
X155815Y71777D01*
X56476Y60476D02*
X67685Y71685D01*
X57976Y-116760D02*
X67216Y-126000D01*
X175500D02*
Y-105154D01*
X155815Y-85469D02*
X175500Y-105154D01*
D73*
X44563Y-144250D02*
Y-45563D01*
X31839Y-32839D02*
X44563Y-45563D01*
X90381Y64361D02*
Y79309D01*
Y64361D02*
X90838Y63903D01*
X113349D02*
X113626Y63626D01*
X90838Y63903D02*
X113349D01*
X31839Y-32839D02*
Y-25339D01*
X8500Y-2000D02*
X31839Y-25339D01*
X40518Y87517D02*
X82172D01*
X29000Y76000D02*
X40518Y87517D01*
X-15376Y76000D02*
X29000D01*
X-15376D02*
X8500Y52124D01*
X-26876Y87500D02*
X-15376Y76000D01*
X82172Y87517D02*
X90381Y79309D01*
X8500Y-2000D02*
Y52124D01*
X113626Y63626D02*
X133018Y83017D01*
X164823D01*
X180905Y66935D01*
X44563Y-144250D02*
X69798D01*
X32750D02*
X44563D01*
X-3658Y125906D02*
X-3638Y125886D01*
Y123638D02*
Y125886D01*
X-28500Y87500D02*
X-26876D01*
X25500Y-151500D02*
X32750Y-144250D01*
X69798D02*
X77048Y-151500D01*
X114500D01*
X-57500Y110500D02*
X-51453D01*
X-50953Y111000D01*
D74*
X184646Y-58646D02*
X189500Y-63500D01*
X184500Y-58500D02*
X184646Y-58646D01*
X184500Y-58500D02*
Y-43146D01*
X189500Y-85000D02*
Y-63500D01*
X186500Y-88000D02*
X189500Y-85000D01*
X186500Y-150328D02*
Y-88000D01*
X185328Y-151500D02*
X186500Y-150328D01*
X134500Y-151500D02*
X185328D01*
X103500Y-59348D02*
Y-47963D01*
Y-100000D02*
Y-59348D01*
X101526Y-57374D02*
X103500Y-59348D01*
X101526Y-57374D02*
Y-57276D01*
X103500Y-100000D02*
X134500Y-131000D01*
X-93843Y36106D02*
Y36500D01*
X-87240Y161D02*
X-85289D01*
X22185Y-94000D02*
Y-63638D01*
X12272Y-53724D02*
X22185Y-63638D01*
X12272Y-53724D02*
Y-53331D01*
X11894Y-52953D02*
X12272Y-53331D01*
X11500Y-52953D02*
X11894D01*
X111791Y-101000D02*
X111861Y-100931D01*
Y-55277D01*
X112185Y-54953D01*
X116000Y137126D02*
X126500D01*
X139500Y146000D02*
X146500Y153000D01*
X139500Y142626D02*
Y146000D01*
X134000Y137126D02*
X139500Y142626D01*
X108000Y137126D02*
X116000D01*
X126500D02*
X134000D01*
X146500Y153000D02*
X160500D01*
X169500Y144000D01*
Y137000D02*
Y144000D01*
X19437Y87126D02*
X19500Y87063D01*
X19437Y87126D02*
Y95500D01*
X19374Y95563D02*
X19437Y95500D01*
X953Y-52953D02*
X11500D01*
X14500Y-123000D02*
X22185Y-115315D01*
X-3711Y-123000D02*
X14500D01*
X-9421Y-128711D02*
X-3711Y-123000D01*
X-49886Y-156831D02*
X-24831D01*
X-19500Y-151500D01*
X-85289Y161D02*
X-82321Y3130D01*
X-76370D01*
X-75500Y4000D01*
X-84951Y-10000D02*
X-79500D01*
X-91000Y-3951D02*
X-84951Y-10000D01*
X-91000Y-3951D02*
Y2000D01*
X-88130Y4870D01*
X-85319D01*
X-83681Y6508D01*
Y8740D01*
X-83500Y8921D01*
X-62336Y836D02*
X-52836D01*
X-75500Y4000D02*
X-74000Y5500D01*
X-104299Y30799D02*
X-99543D01*
X-94614Y35728D01*
X-94221D01*
X-93843Y36106D01*
X-72500Y-134216D02*
Y-70284D01*
Y-134216D02*
X-49886Y-156831D01*
X134500Y-151500D02*
Y-131000D01*
X22185Y-115315D02*
Y-94000D01*
X-62336Y836D02*
X-61425Y1746D01*
X-64172Y-1000D02*
X-62336Y836D01*
X-52836D02*
X953Y-52953D01*
X-132500Y36000D02*
X-128500Y32000D01*
X-128000D01*
X-126799Y30799D01*
X-104299D01*
X-92500Y19000D01*
X-75500Y4000D02*
X-74413D01*
X-80063Y18500D02*
X-80061Y18502D01*
Y19998D01*
X-80059Y20000D01*
X-74000Y5500D02*
Y19000D01*
X-83681Y9102D02*
X-83500Y8921D01*
X-83681Y9102D02*
Y14185D01*
X-87260Y17764D02*
X-83681Y14185D01*
X-87260Y17764D02*
Y19917D01*
X-87343Y20000D02*
X-87260Y19917D01*
X-74158Y36500D02*
Y36894D01*
X-72189Y38862D01*
Y53167D01*
X-74413Y4000D02*
X-71516Y1103D01*
Y-984D02*
Y1103D01*
Y-984D02*
X-71500Y-1000D01*
X-87240Y-921D02*
Y161D01*
X-61425Y1746D02*
Y5122D01*
X-61047Y5500D01*
X-71500Y-1000D02*
X-64172D01*
X-72189Y53167D02*
Y73888D01*
D75*
X-27626Y115874D02*
X-9500D01*
X116000Y117000D02*
Y137126D01*
X103209Y104209D02*
X116000Y117000D01*
X9427Y104209D02*
X103209D01*
X-2238Y115874D02*
X9427Y104209D01*
X-9500Y115874D02*
X-2238D01*
X-51831Y100457D02*
X-24543D01*
X-57500Y106126D02*
X-51831Y100457D01*
X-57500Y106126D02*
Y110500D01*
X-36559Y106941D02*
X-27626Y115874D01*
X-45658Y106941D02*
X-36559D01*
X-48000Y104598D02*
X-45658Y106941D01*
X-58612Y73888D02*
X-45000Y87500D01*
X-72189Y73888D02*
X-58612D01*
X-140069Y62819D02*
X-139500Y63388D01*
X-145925Y62819D02*
X-140069D01*
X-146000Y62744D02*
X-145925Y62819D01*
X-105500Y132000D02*
X-85000Y152500D01*
X-105500Y121000D02*
Y132000D01*
X-120500Y106000D02*
X-105500Y121000D01*
X-65158Y151661D02*
Y152500D01*
Y151661D02*
X-63874Y150377D01*
Y119315D02*
Y150377D01*
X-72189Y111000D02*
X-63874Y119315D01*
X-44555Y116752D02*
Y117000D01*
X-44925Y116382D02*
X-44555Y116752D01*
X-44925Y111122D02*
Y116382D01*
X-45047Y111000D02*
X-44925Y111122D01*
X-72189Y90279D02*
Y111000D01*
D76*
X112185Y33094D02*
D03*
Y13094D02*
D03*
X21976Y33094D02*
D03*
Y13094D02*
D03*
X134500Y-151500D02*
D03*
X124500D02*
D03*
X114500D02*
D03*
X45500D02*
D03*
X35500D02*
D03*
X25500D02*
D03*
X21976Y13094D02*
D03*
Y33094D02*
D03*
X112185D02*
D03*
Y13094D02*
D03*
D77*
Y-26906D02*
D03*
Y-36906D02*
D03*
X21976Y-26906D02*
D03*
Y-36906D02*
D03*
D78*
X-120500Y-14000D02*
D03*
X-180500D02*
D03*
X-120500Y-4000D02*
D03*
X-180500D02*
D03*
X-120500Y6000D02*
D03*
X-180500D02*
D03*
X-120500Y16000D02*
D03*
X-180500D02*
D03*
X-120500Y26000D02*
D03*
X-180500D02*
D03*
X-120500Y36000D02*
D03*
X-180500D02*
D03*
X-120500Y46000D02*
D03*
X-180500D02*
D03*
X-120500Y56000D02*
D03*
X-180500D02*
D03*
X-120500Y66000D02*
D03*
X-180500D02*
D03*
X-120500Y76000D02*
D03*
X-180500D02*
D03*
X-120500Y86000D02*
D03*
X-180500D02*
D03*
X-120500Y96000D02*
D03*
X-180500D02*
D03*
X-120500Y106000D02*
D03*
X-180500D02*
D03*
X-120500Y116000D02*
D03*
X-180500D02*
D03*
D79*
X-120500Y126000D02*
D03*
X-180500D02*
D03*
D80*
X67216Y-126000D02*
D03*
X86901D02*
D03*
X-3658Y125906D02*
D03*
X-23343D02*
D03*
X67216Y125500D02*
D03*
X86901D02*
D03*
X155815D02*
D03*
X175500D02*
D03*
Y-126000D02*
D03*
X155815D02*
D03*
D81*
X-3000Y-151500D02*
D03*
X-29500D02*
D03*
D82*
X7000D02*
D03*
X-19500D02*
D03*
D83*
X-72500Y-52665D02*
D03*
D84*
Y-23335D02*
D03*
X-70098Y142697D02*
D03*
X-42500D02*
D03*
X-107658D02*
D03*
X-80059D02*
D03*
D85*
X-97937Y128500D02*
D03*
D86*
X-87937D02*
D03*
D87*
X-72189Y53167D02*
D03*
X-95811D02*
D03*
X-87937D02*
D03*
X-80063D02*
D03*
X-72189Y73888D02*
D03*
X-95811D02*
D03*
X-87937D02*
D03*
X-80063D02*
D03*
X-95811Y90279D02*
D03*
X-72189D02*
D03*
X-80063D02*
D03*
X-87937D02*
D03*
X-95811Y111000D02*
D03*
X-72189D02*
D03*
X-80063D02*
D03*
X-87937D02*
D03*
X-124000Y-52500D02*
D03*
X-134000D02*
D03*
X-144000D02*
D03*
X-154000D02*
D03*
X-164000D02*
D03*
X-174000D02*
D03*
D88*
X-65158Y152500D02*
D03*
X-47441D02*
D03*
X-102717D02*
D03*
X-85000D02*
D03*
D89*
X-184000Y-52500D02*
D03*
D90*
X-157283Y-96063D02*
D03*
Y96063D02*
D03*
D91*
X157283D02*
D03*
D92*
X132193Y15872D02*
D03*
Y63903D02*
D03*
X179437Y15872D02*
D03*
Y63903D02*
D03*
X155815Y71777D02*
D03*
X43595Y15872D02*
D03*
Y63903D02*
D03*
X90838Y15872D02*
D03*
Y63903D02*
D03*
X67216Y71777D02*
D03*
X179437Y-29563D02*
D03*
Y-77595D02*
D03*
X132193Y-29563D02*
D03*
Y-77595D02*
D03*
X155815Y-85469D02*
D03*
X90838Y-29563D02*
D03*
Y-77595D02*
D03*
X43595Y-29563D02*
D03*
Y-77595D02*
D03*
X67216Y-85469D02*
D03*
D93*
X184500Y-43146D02*
D03*
X184646Y-58646D02*
D03*
X101526Y-57276D02*
D03*
X103500Y-47963D02*
D03*
X-43512Y-20224D02*
D03*
X-53354Y-79280D02*
D03*
X-63197Y97886D02*
D03*
Y58516D02*
D03*
Y-20224D02*
D03*
Y-59595D02*
D03*
X-82882D02*
D03*
X-102567Y-20224D02*
D03*
X-112409Y-39909D02*
D03*
X-102567Y-59595D02*
D03*
X-122252Y137256D02*
D03*
X-132095Y78201D02*
D03*
X-122252Y-20224D02*
D03*
X-151779Y-539D02*
D03*
X-171465Y38831D02*
D03*
X-161622Y19146D02*
D03*
Y-20224D02*
D03*
X88000Y135764D02*
D03*
X173110Y135264D02*
D03*
X163181Y117571D02*
D03*
X104126D02*
D03*
X64756D02*
D03*
X54913Y137256D02*
D03*
X45071Y117571D02*
D03*
X15543Y137256D02*
D03*
X5701Y117571D02*
D03*
X-4142Y137256D02*
D03*
X-33669Y117571D02*
D03*
X-43512Y58516D02*
D03*
X-53354Y38831D02*
D03*
Y-39909D02*
D03*
X-43512Y-59595D02*
D03*
X-73039Y117571D02*
D03*
Y-39909D02*
D03*
X-92724Y117571D02*
D03*
X-82882Y-20224D02*
D03*
X-92724Y-39909D02*
D03*
Y-79280D02*
D03*
X-102567Y97886D02*
D03*
X-112409Y-79280D02*
D03*
X-132095Y117571D02*
D03*
Y-39909D02*
D03*
Y-79280D02*
D03*
X-141937Y137256D02*
D03*
X-151779Y117571D02*
D03*
X-141937Y19146D02*
D03*
Y-20224D02*
D03*
Y-59595D02*
D03*
X-151779Y-79280D02*
D03*
X-161622Y137256D02*
D03*
X-171465Y-539D02*
D03*
X-161622Y-59595D02*
D03*
X-171465Y-79280D02*
D03*
X76809Y136683D02*
D03*
X-27000Y22000D02*
D03*
X-23500Y20500D02*
D03*
X-21000Y25500D02*
D03*
X-18500Y29000D02*
D03*
X111791Y-101000D02*
D03*
X120000Y129500D02*
D03*
X122500Y132500D02*
D03*
X123000Y127000D02*
D03*
X169500Y137000D02*
D03*
X187607Y139893D02*
D03*
X173000Y153500D02*
D03*
X187000Y136500D02*
D03*
X169500Y150000D02*
D03*
X126500Y145000D02*
D03*
X134000D02*
D03*
X116000D02*
D03*
X108000D02*
D03*
X19500Y87063D02*
D03*
X3626Y95563D02*
D03*
X-15000Y99000D02*
D03*
X11626Y87063D02*
D03*
X-2106Y105280D02*
D03*
X11500Y95500D02*
D03*
X-3500Y108500D02*
D03*
X-24543Y100457D02*
D03*
X-78500Y82500D02*
D03*
X29500Y-137500D02*
D03*
X7500Y-160000D02*
D03*
X14500Y-123000D02*
D03*
X-9421Y-128711D02*
D03*
X-133000Y69000D02*
D03*
X-48000Y104598D02*
D03*
X-72500Y-70284D02*
D03*
X22185Y-94000D02*
D03*
X-42500Y2000D02*
D03*
X-132500Y36000D02*
D03*
X-92500Y19000D02*
D03*
X-80063Y18500D02*
D03*
X-74000Y19000D02*
D03*
X-26500Y3500D02*
D03*
X-24000Y7500D02*
D03*
X-19000Y8000D02*
D03*
X-21500Y5000D02*
D03*
X-74158Y36500D02*
D03*
X-94000Y36500D02*
D03*
X-71500Y29000D02*
D03*
X-87240Y-921D02*
D03*
X-104000Y52500D02*
D03*
X-153500Y63453D02*
D03*
X-139500Y63388D02*
D03*
X-160854Y68388D02*
D03*
X-169500Y73453D02*
D03*
X-23500Y112406D02*
D03*
X-28500Y87500D02*
D03*
X-48000Y88500D02*
D03*
X-57500Y110500D02*
D03*
D94*
X21976Y-36906D02*
D03*
Y-26906D02*
D03*
X112185Y-36906D02*
D03*
Y-26906D02*
D03*
D95*
X-42500Y142697D02*
D03*
X-70098D02*
D03*
X-80059D02*
D03*
X-107658D02*
D03*
D96*
X-102717Y152500D02*
D03*
X-85000D02*
D03*
X-65158D02*
D03*
X-47441D02*
D03*
M02*
