G04*
G04 #@! TF.GenerationSoftware,Altium Limited,Altium Designer,19.0.10 (269)*
G04*
G04 Layer_Color=8421504*
%FSLAX25Y25*%
%MOIN*%
G70*
G01*
G75*
%ADD21C,0.11000*%
%ADD22R,0.05906X0.04724*%
%ADD23R,0.04724X0.01772*%
%ADD24R,0.03543X0.02756*%
%ADD25R,0.04724X0.05906*%
%ADD26R,0.01968X0.03150*%
%ADD27R,0.03937X0.01575*%
%ADD28R,0.05906X0.09843*%
%ADD29R,0.02756X0.03543*%
%ADD30R,0.03150X0.03543*%
%ADD31R,0.02362X0.04528*%
%ADD32R,0.03150X0.01968*%
%ADD33R,0.02165X0.01378*%
%ADD34R,0.02756X0.06299*%
%ADD35R,0.03543X0.03150*%
%ADD36R,0.02756X0.03740*%
%ADD37R,0.07480X0.04331*%
D21*
X-35000Y60500D02*
D03*
X-45000Y87500D02*
D03*
X-28500D02*
D03*
D22*
X3626Y95563D02*
D03*
X19374D02*
D03*
X11500D02*
D03*
X3752Y87063D02*
D03*
X19500D02*
D03*
X11626D02*
D03*
D23*
X-5579Y107839D02*
D03*
Y105280D02*
D03*
Y102720D02*
D03*
Y100161D02*
D03*
X-15421D02*
D03*
Y102720D02*
D03*
Y105280D02*
D03*
Y107839D02*
D03*
D24*
X11500Y-52953D02*
D03*
Y-47047D02*
D03*
X-169500Y67547D02*
D03*
Y73453D02*
D03*
X112185Y-49047D02*
D03*
Y-54953D02*
D03*
X-163000Y68547D02*
D03*
Y74453D02*
D03*
X-153500Y63453D02*
D03*
Y57547D02*
D03*
X-153500Y68547D02*
D03*
Y74453D02*
D03*
D25*
X134000Y137126D02*
D03*
Y152874D02*
D03*
Y145000D02*
D03*
X126500Y137126D02*
D03*
Y152874D02*
D03*
Y145000D02*
D03*
X116000Y137126D02*
D03*
Y152874D02*
D03*
Y145000D02*
D03*
X108000Y137126D02*
D03*
Y152874D02*
D03*
Y145000D02*
D03*
D26*
X-131500Y-65000D02*
D03*
X-134500D02*
D03*
X-123000D02*
D03*
X-126000D02*
D03*
Y-72000D02*
D03*
X-123000D02*
D03*
X-134500D02*
D03*
X-131500D02*
D03*
X-74500Y-1000D02*
D03*
X-71500D02*
D03*
D27*
X-52217Y17776D02*
D03*
Y20925D02*
D03*
Y24075D02*
D03*
Y27224D02*
D03*
X-66783D02*
D03*
Y24075D02*
D03*
Y20925D02*
D03*
Y17776D02*
D03*
D28*
X-59500Y22500D02*
D03*
D29*
X-66953Y5500D02*
D03*
X-61047D02*
D03*
X-93843Y36500D02*
D03*
X-87937D02*
D03*
X-74158Y36500D02*
D03*
X-80063D02*
D03*
X-45047Y111000D02*
D03*
X-50953D02*
D03*
D30*
X-61244Y11185D02*
D03*
X-66756D02*
D03*
X-147744Y52500D02*
D03*
X-153256D02*
D03*
X-147744Y79500D02*
D03*
X-153256D02*
D03*
D31*
X-79760Y8921D02*
D03*
X-83500D02*
D03*
X-87240D02*
D03*
Y-921D02*
D03*
X-79760D02*
D03*
D32*
X-79500Y-10000D02*
D03*
Y-7000D02*
D03*
D33*
X-80059Y20000D02*
D03*
Y23937D02*
D03*
X-87343D02*
D03*
Y20000D02*
D03*
D34*
X-83701Y21969D02*
D03*
D35*
X-146000Y68256D02*
D03*
Y62744D02*
D03*
D36*
X-51445Y117000D02*
D03*
X-44555D02*
D03*
D37*
X-41500Y14579D02*
D03*
Y24421D02*
D03*
M02*
