G04*
G04 #@! TF.GenerationSoftware,Altium Limited,Altium Designer,19.0.10 (269)*
G04*
G04 Layer_Color=16711935*
%FSLAX25Y25*%
%MOIN*%
G70*
G01*
G75*
%ADD41R,0.04343X0.03556*%
%ADD43R,0.02769X0.03950*%
%ADD46R,0.03556X0.04343*%
%ADD47R,0.03950X0.04343*%
%ADD52R,0.04343X0.03950*%
%ADD55C,0.07296*%
%ADD56C,0.05918*%
%ADD57C,0.06824*%
%ADD58R,0.06824X0.06824*%
%ADD59C,0.11430*%
%ADD60R,0.07887X0.07887*%
%ADD61C,0.07887*%
%ADD62C,0.07099*%
%ADD63C,0.08674*%
%ADD64C,0.06706*%
%ADD65R,0.06706X0.06706*%
%ADD66C,0.06800*%
%ADD67C,0.06902*%
%ADD68R,0.06800X0.06800*%
%ADD69C,0.24422*%
%ADD70C,0.16548*%
%ADD71C,0.10642*%
%ADD111R,0.02572X0.05524*%
%ADD112R,0.06312X0.01981*%
%ADD113R,0.13595X0.07296*%
%ADD114R,0.04540X0.07296*%
%ADD115R,0.07887X0.05524*%
%ADD116R,0.03359X0.06804*%
%ADD117R,0.09855X0.18517*%
%ADD118R,0.06804X0.03359*%
%ADD119R,0.07887X0.05918*%
%ADD120R,0.10150X0.08280*%
%ADD121R,0.06607X0.09068*%
%ADD122R,0.02572X0.06233*%
%ADD123R,0.05721X0.09265*%
%ADD124R,0.03162X0.04737*%
D41*
X51500Y35453D02*
D03*
Y29547D02*
D03*
X56000Y25953D02*
D03*
Y20047D02*
D03*
X142000Y35453D02*
D03*
Y29547D02*
D03*
X148500Y25953D02*
D03*
Y20047D02*
D03*
X87028Y-143453D02*
D03*
Y-137547D02*
D03*
X175500Y-143453D02*
D03*
Y-137547D02*
D03*
X184291Y-45047D02*
D03*
Y-50953D02*
D03*
X177000Y-50953D02*
D03*
Y-45047D02*
D03*
X95276Y-50953D02*
D03*
Y-45047D02*
D03*
X87795Y-45047D02*
D03*
Y-50953D02*
D03*
D43*
X93779Y113500D02*
D03*
X90780D02*
D03*
X-110500Y-4000D02*
D03*
X-107500D02*
D03*
X171500Y115500D02*
D03*
X168500D02*
D03*
X42500Y33500D02*
D03*
X39500D02*
D03*
X135161D02*
D03*
X132161D02*
D03*
D46*
X124453Y-142500D02*
D03*
X118547D02*
D03*
X118547Y-137000D02*
D03*
X124453D02*
D03*
X35405Y-143000D02*
D03*
X29500D02*
D03*
Y-137500D02*
D03*
X35405D02*
D03*
D47*
X-42488Y68500D02*
D03*
X-48000D02*
D03*
X-42488Y74500D02*
D03*
X-48000D02*
D03*
X-42488Y80500D02*
D03*
X-48000D02*
D03*
X-42488Y86500D02*
D03*
X-48000D02*
D03*
D52*
X-38945Y-139256D02*
D03*
Y-133744D02*
D03*
X16500Y-133756D02*
D03*
Y-128244D02*
D03*
X-57055Y90244D02*
D03*
Y95756D02*
D03*
X67343Y-137744D02*
D03*
Y-143256D02*
D03*
X155815Y-137744D02*
D03*
Y-143256D02*
D03*
D55*
X112185Y33094D02*
D03*
Y13094D02*
D03*
X21976Y33094D02*
D03*
Y13094D02*
D03*
X134500Y-151500D02*
D03*
X124500D02*
D03*
X114500D02*
D03*
X45500D02*
D03*
X35500D02*
D03*
X25500D02*
D03*
D56*
X112185Y-26906D02*
D03*
Y-36906D02*
D03*
X21976Y-26906D02*
D03*
Y-36906D02*
D03*
D57*
X-120500Y-14000D02*
D03*
X-180500D02*
D03*
X-120500Y-4000D02*
D03*
X-180500D02*
D03*
X-120500Y6000D02*
D03*
X-180500D02*
D03*
X-120500Y16000D02*
D03*
X-180500D02*
D03*
X-120500Y26000D02*
D03*
X-180500D02*
D03*
X-120500Y36000D02*
D03*
X-180500D02*
D03*
X-120500Y46000D02*
D03*
X-180500D02*
D03*
X-120500Y56000D02*
D03*
X-180500D02*
D03*
X-120500Y66000D02*
D03*
X-180500D02*
D03*
X-120500Y76000D02*
D03*
X-180500D02*
D03*
X-120500Y86000D02*
D03*
X-180500D02*
D03*
X-120500Y96000D02*
D03*
X-180500D02*
D03*
X-120500Y106000D02*
D03*
X-180500D02*
D03*
X-120500Y116000D02*
D03*
X-180500D02*
D03*
D58*
X-120500Y126000D02*
D03*
X-180500D02*
D03*
D59*
X67216Y-126000D02*
D03*
X86901D02*
D03*
X-3658Y125906D02*
D03*
X-23343D02*
D03*
X67216Y125500D02*
D03*
X86901D02*
D03*
X155815D02*
D03*
X175500D02*
D03*
Y-126000D02*
D03*
X155815D02*
D03*
D60*
X-3000Y-151500D02*
D03*
X-29500D02*
D03*
D61*
X7000D02*
D03*
X-19500D02*
D03*
D62*
X-72500Y-52665D02*
D03*
D63*
Y-23335D02*
D03*
X-70098Y142697D02*
D03*
X-42500D02*
D03*
X-107658D02*
D03*
X-80059D02*
D03*
D64*
X-97937Y128500D02*
D03*
D65*
X-87937D02*
D03*
D66*
X-72189Y53167D02*
D03*
X-95811D02*
D03*
X-87937D02*
D03*
X-80063D02*
D03*
X-72189Y73888D02*
D03*
X-95811D02*
D03*
X-87937D02*
D03*
X-80063D02*
D03*
X-95811Y90279D02*
D03*
X-72189D02*
D03*
X-80063D02*
D03*
X-87937D02*
D03*
X-95811Y111000D02*
D03*
X-72189D02*
D03*
X-80063D02*
D03*
X-87937D02*
D03*
X-124000Y-52500D02*
D03*
X-134000D02*
D03*
X-144000D02*
D03*
X-154000D02*
D03*
X-164000D02*
D03*
X-174000D02*
D03*
D67*
X-65158Y152500D02*
D03*
X-47441D02*
D03*
X-102717D02*
D03*
X-85000D02*
D03*
D68*
X-184000Y-52500D02*
D03*
D69*
X-157283Y-96063D02*
D03*
Y96063D02*
D03*
D70*
X157283D02*
D03*
D71*
X132193Y15872D02*
D03*
Y63903D02*
D03*
X179437Y15872D02*
D03*
Y63903D02*
D03*
X155815Y71777D02*
D03*
X43595Y15872D02*
D03*
Y63903D02*
D03*
X90838Y15872D02*
D03*
Y63903D02*
D03*
X67216Y71777D02*
D03*
X179437Y-29563D02*
D03*
Y-77595D02*
D03*
X132193Y-29563D02*
D03*
Y-77595D02*
D03*
X155815Y-85469D02*
D03*
X90838Y-29563D02*
D03*
Y-77595D02*
D03*
X43595Y-29563D02*
D03*
Y-77595D02*
D03*
X67216Y-85469D02*
D03*
D111*
X93339Y139579D02*
D03*
X90780D02*
D03*
X88221D02*
D03*
X85661D02*
D03*
Y149421D02*
D03*
X88221D02*
D03*
X90780D02*
D03*
X93339D02*
D03*
X178339Y139579D02*
D03*
X175779D02*
D03*
X173221D02*
D03*
X170661D02*
D03*
Y149421D02*
D03*
X173221D02*
D03*
X175779D02*
D03*
X178339D02*
D03*
D112*
X98000Y145516D02*
D03*
Y143547D02*
D03*
Y141579D02*
D03*
Y139610D02*
D03*
Y137642D02*
D03*
X80677D02*
D03*
Y139610D02*
D03*
Y141579D02*
D03*
Y143547D02*
D03*
Y145516D02*
D03*
X183161D02*
D03*
Y143547D02*
D03*
Y141579D02*
D03*
Y139610D02*
D03*
Y137642D02*
D03*
X165839D02*
D03*
Y139610D02*
D03*
Y141579D02*
D03*
Y143547D02*
D03*
Y145516D02*
D03*
D113*
X-48000Y129402D02*
D03*
D114*
X-57055Y104598D02*
D03*
X-48000D02*
D03*
X-38945D02*
D03*
D115*
X-24500Y100221D02*
D03*
Y112031D02*
D03*
X67216Y147406D02*
D03*
Y135594D02*
D03*
X155815Y147406D02*
D03*
Y135594D02*
D03*
D116*
X-17000Y-112646D02*
D03*
X-22000D02*
D03*
X-27000D02*
D03*
X-32000D02*
D03*
Y-134000D02*
D03*
X-27000D02*
D03*
X-22000D02*
D03*
X-17000D02*
D03*
X9264Y-112323D02*
D03*
X4264D02*
D03*
X-736D02*
D03*
X-5736D02*
D03*
Y-133677D02*
D03*
X-736D02*
D03*
X4264D02*
D03*
X9264D02*
D03*
D117*
X-72500Y-70284D02*
D03*
Y-5717D02*
D03*
D118*
X-139500Y73388D02*
D03*
Y68388D02*
D03*
Y63388D02*
D03*
Y58388D02*
D03*
X-160854D02*
D03*
Y63388D02*
D03*
Y68388D02*
D03*
Y73388D02*
D03*
D119*
X-37764Y94500D02*
D03*
X-48000D02*
D03*
D120*
X-2034Y159500D02*
D03*
X-24967D02*
D03*
D121*
X-24524Y150445D02*
D03*
X-2476D02*
D03*
D122*
X-8382Y149028D02*
D03*
X-10941D02*
D03*
X-13500D02*
D03*
X-16059D02*
D03*
X-18618D02*
D03*
D123*
X165748Y-23500D02*
D03*
X148819D02*
D03*
X165748Y-59000D02*
D03*
X148819D02*
D03*
X58720D02*
D03*
X75650D02*
D03*
X58220Y-23500D02*
D03*
X75150D02*
D03*
D124*
X177165Y-57276D02*
D03*
X184646D02*
D03*
X180905Y-66724D02*
D03*
X91535D02*
D03*
X95276Y-57276D02*
D03*
X87795D02*
D03*
M02*
