G04*
G04 #@! TF.GenerationSoftware,Altium Limited,Altium Designer,19.0.10 (269)*
G04*
G04 Layer_Color=32896*
%FSLAX25Y25*%
%MOIN*%
G70*
G01*
G75*
%ADD11C,0.00787*%
%ADD13C,0.00984*%
%ADD14C,0.00394*%
%ADD16C,0.00500*%
%ADD17C,0.00400*%
%ADD19C,0.00700*%
D11*
X-59546Y-69596D02*
X-58663Y-69138D01*
X-57797Y-68651D01*
X-56947Y-68135D01*
X-56115Y-67590D01*
X-55303Y-67017D01*
X-54510Y-66416D01*
X-53739Y-65789D01*
X-52989Y-65136D01*
X-52263Y-64458D01*
X-51559Y-63755D01*
X-50880Y-63029D01*
X-50226Y-62280D01*
X-49599Y-61509D01*
X-48998Y-60717D01*
X-48424Y-59905D01*
X-47878Y-59074D01*
X-47361Y-58224D01*
X-46873Y-57358D01*
X-46415Y-56476D01*
X-45988Y-55578D01*
X-45591Y-54666D01*
X-45226Y-53742D01*
X-44892Y-52805D01*
X-44591Y-51858D01*
X-44322Y-50901D01*
X-44086Y-49935D01*
X-43883Y-48961D01*
X-43713Y-47982D01*
X-43577Y-46997D01*
X-43474Y-46008D01*
X-43406Y-45016D01*
X-43371Y-44023D01*
X-43370Y-43028D01*
X-43403Y-42035D01*
X-43470Y-41043D01*
X-43571Y-40054D01*
X-43705Y-39068D01*
X-43873Y-38089D01*
X-44074Y-37115D01*
X-44309Y-36149D01*
X-44576Y-35191D01*
X-44876Y-34243D01*
X-45208Y-33306D01*
X-45572Y-32381D01*
X-45967Y-31468D01*
X-46393Y-30570D01*
X-46849Y-29687D01*
X-47335Y-28819D01*
X-47851Y-27969D01*
X-48395Y-27137D01*
X-48967Y-26324D01*
X-49567Y-25531D01*
X-50194Y-24759D01*
X-50846Y-24009D01*
X-51524Y-23282D01*
X-52226Y-22578D01*
X-52952Y-21898D01*
X-53700Y-21244D01*
X-54470Y-20615D01*
X-55262Y-20013D01*
X-56073Y-19439D01*
X-56904Y-18892D01*
X-57753Y-18374D01*
X-58618Y-17886D01*
X-59500Y-17427D01*
X-85422Y-17158D02*
X-86304Y-17616D01*
X-87171Y-18103D01*
X-88021Y-18619D01*
X-88852Y-19164D01*
X-89665Y-19737D01*
X-90457Y-20338D01*
X-91229Y-20965D01*
X-91978Y-21618D01*
X-92705Y-22296D01*
X-93409Y-22999D01*
X-94087Y-23725D01*
X-94741Y-24474D01*
X-95369Y-25245D01*
X-95970Y-26037D01*
X-96544Y-26849D01*
X-97090Y-27680D01*
X-97607Y-28529D01*
X-98094Y-29396D01*
X-98552Y-30278D01*
X-98980Y-31176D01*
X-99377Y-32087D01*
X-99742Y-33012D01*
X-100076Y-33949D01*
X-100377Y-34896D01*
X-100646Y-35853D01*
X-100882Y-36819D01*
X-101085Y-37793D01*
X-101255Y-38772D01*
X-101391Y-39757D01*
X-101493Y-40746D01*
X-101562Y-41738D01*
X-101597Y-42731D01*
X-101598Y-43726D01*
X-101565Y-44719D01*
X-101498Y-45711D01*
X-101397Y-46700D01*
X-101262Y-47686D01*
X-101095Y-48665D01*
X-100893Y-49639D01*
X-100659Y-50605D01*
X-100392Y-51563D01*
X-100092Y-52511D01*
X-99760Y-53448D01*
X-99396Y-54373D01*
X-99001Y-55286D01*
X-98575Y-56184D01*
X-98119Y-57067D01*
X-97632Y-57934D01*
X-97117Y-58785D01*
X-96573Y-59617D01*
X-96000Y-60430D01*
X-95400Y-61222D01*
X-94774Y-61995D01*
X-94121Y-62745D01*
X-93444Y-63472D01*
X-92742Y-64176D01*
X-92016Y-64856D01*
X-91268Y-65510D01*
X-90497Y-66139D01*
X-89706Y-66741D01*
X-88894Y-67315D01*
X-88064Y-67862D01*
X-87215Y-68379D01*
X-86349Y-68868D01*
X-85467Y-69327D01*
X95209Y143319D02*
Y145681D01*
X83791D02*
X95209D01*
X83791Y143319D02*
Y145681D01*
Y143319D02*
X95209D01*
X95602Y137216D02*
Y141941D01*
X84811Y147484D02*
X93866D01*
X84811Y135673D02*
Y147484D01*
Y135673D02*
X93866D01*
Y147484D01*
X95244D02*
X100756D01*
X180209Y143319D02*
Y145681D01*
X168791D02*
X180209D01*
X168791Y143319D02*
Y145681D01*
Y143319D02*
X180209D01*
X180602Y137216D02*
Y141941D01*
X169972Y147484D02*
X179028D01*
X169972Y135673D02*
Y147484D01*
Y135673D02*
X179028D01*
Y147484D01*
X180405D02*
X185917D01*
X-35697Y101350D02*
Y107846D01*
X-60795Y110110D02*
X-35205D01*
X-60795D02*
Y123890D01*
X-35205D01*
Y110110D02*
Y123890D01*
X-27256Y106126D02*
X-21744D01*
X-14343Y-137004D02*
Y-131000D01*
X-34146Y-129622D02*
X-14854D01*
X-34146D02*
Y-117024D01*
X-14854D01*
Y-129622D02*
Y-117024D01*
X11921Y-136681D02*
Y-130677D01*
X-7882Y-129299D02*
X11409D01*
X-7882D02*
Y-116701D01*
X11409D01*
Y-129299D02*
Y-116701D01*
X64461Y141500D02*
X69972D01*
X-66634Y-10795D02*
X-45602D01*
X-99365Y-10549D02*
X-78582D01*
X-59524Y-17417D02*
X-45602D01*
Y-10795D01*
X-99365Y-17171D02*
Y-10549D01*
Y-17171D02*
X-85448D01*
X-156476Y75534D02*
X-143878D01*
X-156476Y56242D02*
Y75534D01*
Y56242D02*
X-143878D01*
Y75534D01*
X-142500Y76046D02*
X-136496D01*
X120713Y-141122D02*
X122287D01*
X120713Y-143878D02*
X122287D01*
X120713Y-138378D02*
X122287D01*
X120713Y-135622D02*
X122287D01*
X31665Y-141622D02*
X33240D01*
X31665Y-144378D02*
X33240D01*
X31665Y-138878D02*
X33240D01*
X31665Y-136122D02*
X33240D01*
X153059Y141500D02*
X158571D01*
X-49181Y97748D02*
X-36583D01*
X-51543Y91252D02*
X-36583D01*
X50122Y31713D02*
Y33287D01*
X52878Y31713D02*
Y33287D01*
X54622Y22213D02*
Y23787D01*
X57378Y22213D02*
Y23787D01*
X140622Y31713D02*
Y33287D01*
X143378Y31713D02*
Y33287D01*
X147122Y22213D02*
Y23787D01*
X149878Y22213D02*
Y23787D01*
X88406Y-141287D02*
Y-139713D01*
X85650Y-141287D02*
Y-139713D01*
X176878Y-141287D02*
Y-139713D01*
X174122Y-141287D02*
Y-139713D01*
X147244Y-31374D02*
X167323D01*
X147244Y-15626D02*
X167323D01*
X182913Y-48787D02*
Y-47213D01*
X185669Y-48787D02*
Y-47213D01*
X178378Y-48787D02*
Y-47213D01*
X175622Y-48787D02*
Y-47213D01*
X175000Y-64756D02*
Y-60819D01*
Y-64756D02*
X178150D01*
X186811D02*
Y-60819D01*
X183661Y-64756D02*
X186811D01*
X147244Y-66874D02*
X167323D01*
X147244Y-51126D02*
X167323D01*
X94291Y-64756D02*
X97441D01*
Y-60819D01*
X85630Y-64756D02*
X88779D01*
X85630D02*
Y-60819D01*
X96653Y-48787D02*
Y-47213D01*
X93898Y-48787D02*
Y-47213D01*
X86417Y-48787D02*
Y-47213D01*
X89173Y-48787D02*
Y-47213D01*
X57146Y-51126D02*
X77224D01*
X57146Y-66874D02*
X77224D01*
X56646Y-15626D02*
X76724D01*
X56646Y-31374D02*
X76724D01*
D13*
X174311Y-57276D02*
X173573Y-56849D01*
Y-57702D01*
X174311Y-57276D01*
X84941D02*
X84203Y-56849D01*
Y-57702D01*
X84941Y-57276D01*
D14*
X-19602Y144933D02*
D03*
X147441Y-32949D02*
D03*
X147441Y-68449D02*
D03*
X57342D02*
D03*
X56842Y-32949D02*
D03*
D16*
X280Y146902D02*
X1264D01*
X-28264D02*
X-27279D01*
X1264D02*
Y154776D01*
X-28264Y146902D02*
Y154776D01*
D17*
X88779Y111000D02*
X95780D01*
Y116000D01*
X88779Y111000D02*
Y116000D01*
X95780D01*
X-112500Y-1500D02*
X-105500D01*
X-112500Y-6500D02*
Y-1500D01*
X-105500Y-6500D02*
Y-1500D01*
X-112500Y-6500D02*
X-105500D01*
X166500Y113000D02*
X173500D01*
Y118000D01*
X166500Y113000D02*
Y118000D01*
X173500D01*
X37500Y31000D02*
X44500D01*
Y36000D01*
X37500Y31000D02*
Y36000D01*
X44500D01*
X130161Y31000D02*
X137161D01*
Y36000D01*
X130161Y31000D02*
Y36000D01*
X137161D01*
D19*
X105999Y137000D02*
Y138000D01*
Y137500D01*
X103000D01*
Y137000D01*
Y138000D01*
X105499Y141498D02*
X105999Y140999D01*
Y139999D01*
X105499Y139499D01*
X103500D01*
X103000Y139999D01*
Y140999D01*
X103500Y141498D01*
X103000Y142498D02*
Y143498D01*
Y142998D01*
X105999D01*
X105499Y142498D01*
X103000Y144997D02*
Y145997D01*
Y145497D01*
X105999D01*
X105499Y144997D01*
X190999Y136500D02*
Y137500D01*
Y137000D01*
X188000D01*
Y136500D01*
Y137500D01*
X190499Y140998D02*
X190999Y140499D01*
Y139499D01*
X190499Y138999D01*
X188500D01*
X188000Y139499D01*
Y140499D01*
X188500Y140998D01*
X188000Y141998D02*
Y142998D01*
Y142498D01*
X190999D01*
X190499Y141998D01*
Y144497D02*
X190999Y144997D01*
Y145997D01*
X190499Y146497D01*
X188500D01*
X188000Y145997D01*
Y144997D01*
X188500Y144497D01*
X190499D01*
X101280Y109125D02*
Y108625D01*
X101779D01*
X100780D01*
X101280D01*
Y107126D01*
X100780Y106626D01*
X98781D02*
X97781D01*
X97281Y107126D01*
Y108125D01*
X97781Y108625D01*
X98781D01*
X99280Y108125D01*
Y107126D01*
X98781Y106626D01*
X96281Y106126D02*
X94282D01*
X91283Y109125D02*
X91783Y109625D01*
X92782D01*
X93282Y109125D01*
Y107126D01*
X92782Y106626D01*
X91783D01*
X91283Y107126D01*
Y108125D01*
X92283D01*
X90283Y106626D02*
Y109625D01*
X88284Y106626D01*
Y109625D01*
X87284D02*
Y106626D01*
X85785D01*
X85285Y107126D01*
Y109125D01*
X85785Y109625D01*
X87284D01*
X82286Y106626D02*
X84285D01*
X82286Y108625D01*
Y109125D01*
X82786Y109625D01*
X83785D01*
X84285Y109125D01*
X-30000Y109500D02*
X-32999D01*
Y108001D01*
X-32499Y107501D01*
X-31499D01*
X-31000Y108001D01*
Y109500D01*
Y108500D02*
X-30000Y107501D01*
Y106501D02*
Y105501D01*
Y106001D01*
X-32999D01*
X-32499Y106501D01*
X-32999Y102002D02*
Y104002D01*
X-31499D01*
X-31999Y103002D01*
Y102502D01*
X-31499Y102002D01*
X-30500D01*
X-30000Y102502D01*
Y103502D01*
X-30500Y104002D01*
X10263Y-128500D02*
Y-127500D01*
Y-128000D01*
X7264D01*
Y-128500D01*
Y-127500D01*
X9763Y-124002D02*
X10263Y-124501D01*
Y-125501D01*
X9763Y-126001D01*
X7763D01*
X7264Y-125501D01*
Y-124501D01*
X7763Y-124002D01*
X10263Y-123002D02*
Y-121002D01*
X9763D01*
X7763Y-123002D01*
X7264D01*
X-16001Y-128823D02*
Y-127823D01*
Y-128323D01*
X-19000D01*
Y-128823D01*
Y-127823D01*
X-16501Y-124324D02*
X-16001Y-124824D01*
Y-125824D01*
X-16501Y-126324D01*
X-18500D01*
X-19000Y-125824D01*
Y-124824D01*
X-18500Y-124324D01*
X-16501Y-123325D02*
X-16001Y-122825D01*
Y-121825D01*
X-16501Y-121325D01*
X-17001D01*
X-17501Y-121825D01*
X-18000Y-121325D01*
X-18500D01*
X-19000Y-121825D01*
Y-122825D01*
X-18500Y-123325D01*
X-18000D01*
X-17501Y-122825D01*
X-17001Y-123325D01*
X-16501D01*
X-17501Y-122825D02*
Y-121825D01*
X-43001Y-139001D02*
X-42501Y-139500D01*
Y-140500D01*
X-43001Y-141000D01*
X-45000D01*
X-45500Y-140500D01*
Y-139500D01*
X-45000Y-139001D01*
X-45500Y-138001D02*
Y-137001D01*
Y-137501D01*
X-42501D01*
X-43001Y-138001D01*
X-42501Y-133502D02*
X-43001Y-134502D01*
X-44001Y-135502D01*
X-45000D01*
X-45500Y-135002D01*
Y-134002D01*
X-45000Y-133502D01*
X-44500D01*
X-44001Y-134002D01*
Y-135502D01*
X21999Y-132501D02*
X22499Y-133001D01*
Y-134000D01*
X21999Y-134500D01*
X20000D01*
X19500Y-134000D01*
Y-133001D01*
X20000Y-132501D01*
X19500Y-131501D02*
Y-130501D01*
Y-131001D01*
X22499D01*
X21999Y-131501D01*
X22499Y-127002D02*
Y-129002D01*
X21000D01*
X21499Y-128002D01*
Y-127502D01*
X21000Y-127002D01*
X20000D01*
X19500Y-127502D01*
Y-128502D01*
X20000Y-129002D01*
X38000Y-141500D02*
Y-144499D01*
X39500D01*
X39999Y-143999D01*
Y-142999D01*
X39500Y-142500D01*
X38000D01*
X39000D02*
X39999Y-141500D01*
X40999D02*
X41999D01*
X41499D01*
Y-144499D01*
X40999Y-143999D01*
X45498Y-141500D02*
X43498D01*
X45498Y-143499D01*
Y-143999D01*
X44998Y-144499D01*
X43998D01*
X43498Y-143999D01*
X38000Y-136000D02*
Y-138999D01*
X39500D01*
X39999Y-138499D01*
Y-137499D01*
X39500Y-137000D01*
X38000D01*
X39000D02*
X39999Y-136000D01*
X40999D02*
X41999D01*
X41499D01*
Y-138999D01*
X40999Y-138499D01*
X43498Y-136000D02*
X44498D01*
X43998D01*
Y-138999D01*
X43498Y-138499D01*
X127000Y-141000D02*
Y-143999D01*
X128499D01*
X128999Y-143499D01*
Y-142499D01*
X128499Y-142000D01*
X127000D01*
X128000D02*
X128999Y-141000D01*
X129999D02*
X130999D01*
X130499D01*
Y-143999D01*
X129999Y-143499D01*
X132498D02*
X132998Y-143999D01*
X133998D01*
X134498Y-143499D01*
Y-141500D01*
X133998Y-141000D01*
X132998D01*
X132498Y-141500D01*
Y-143499D01*
X127000Y-135500D02*
Y-138499D01*
X128499D01*
X128999Y-137999D01*
Y-136999D01*
X128499Y-136500D01*
X127000D01*
X128000D02*
X128999Y-135500D01*
X129999Y-136000D02*
X130499Y-135500D01*
X131499D01*
X131998Y-136000D01*
Y-137999D01*
X131499Y-138499D01*
X130499D01*
X129999Y-137999D01*
Y-137499D01*
X130499Y-136999D01*
X131998D01*
X280Y140487D02*
Y142487D01*
X-220D01*
X-720Y141987D01*
Y140487D01*
Y141987D01*
X-1220Y142487D01*
X-1720Y141987D01*
Y140487D01*
X-2719D02*
X-3719D01*
X-3219D01*
Y142487D01*
X-2719D01*
X-7218D02*
X-5719D01*
X-5219Y141987D01*
Y140987D01*
X-5719Y140487D01*
X-7218D01*
X-8218Y142487D02*
Y140487D01*
Y141487D01*
X-8718Y141987D01*
X-9217Y142487D01*
X-9717D01*
X-11717Y140487D02*
X-12716D01*
X-13216Y140987D01*
Y141987D01*
X-12716Y142487D01*
X-11717D01*
X-11217Y141987D01*
Y140987D01*
X-11717Y140487D01*
X-17215Y143486D02*
Y140987D01*
X-17715Y140487D01*
X-18714D01*
X-19214Y140987D01*
Y143486D01*
X-22213Y142987D02*
X-21713Y143486D01*
X-20714D01*
X-20214Y142987D01*
Y142487D01*
X-20714Y141987D01*
X-21713D01*
X-22213Y141487D01*
Y140987D01*
X-21713Y140487D01*
X-20714D01*
X-20214Y140987D01*
X-23213Y143486D02*
Y140487D01*
X-24712D01*
X-25212Y140987D01*
Y141487D01*
X-24712Y141987D01*
X-23213D01*
X-24712D01*
X-25212Y142487D01*
Y142987D01*
X-24712Y143486D01*
X-23213D01*
X-26212Y140487D02*
X-27212D01*
X-26712D01*
Y143486D01*
X-26212Y142987D01*
X93000Y156773D02*
X92000D01*
X92500D01*
Y153774D01*
X93000D01*
X92000D01*
X88502Y156273D02*
X89001Y156773D01*
X90001D01*
X90501Y156273D01*
Y154274D01*
X90001Y153774D01*
X89001D01*
X88502Y154274D01*
X85502Y156773D02*
X86502Y156273D01*
X87502Y155273D01*
Y154274D01*
X87002Y153774D01*
X86002D01*
X85502Y154274D01*
Y154773D01*
X86002Y155273D01*
X87502D01*
X178339Y156773D02*
X177339D01*
X177839D01*
Y153774D01*
X178339D01*
X177339D01*
X173840Y156273D02*
X174340Y156773D01*
X175340D01*
X175839Y156273D01*
Y154274D01*
X175340Y153774D01*
X174340D01*
X173840Y154274D01*
X170841Y156773D02*
X172840D01*
Y155273D01*
X171841Y155773D01*
X171341D01*
X170841Y155273D01*
Y154274D01*
X171341Y153774D01*
X172341D01*
X172840Y154274D01*
X-52000Y122499D02*
X-53000D01*
X-52500D01*
Y119500D01*
X-52000D01*
X-53000D01*
X-56498Y121999D02*
X-55999Y122499D01*
X-54999D01*
X-54499Y121999D01*
Y120000D01*
X-54999Y119500D01*
X-55999D01*
X-56498Y120000D01*
X-59498Y119500D02*
X-57498D01*
X-59498Y121499D01*
Y121999D01*
X-58998Y122499D01*
X-57998D01*
X-57498Y121999D01*
X-55958Y83999D02*
X-55458Y83499D01*
Y82500D01*
X-55958Y82000D01*
X-57957D01*
X-58457Y82500D01*
Y83499D01*
X-57957Y83999D01*
Y84999D02*
X-58457Y85499D01*
Y86499D01*
X-57957Y86998D01*
X-55958D01*
X-55458Y86499D01*
Y85499D01*
X-55958Y84999D01*
X-56457D01*
X-56957Y85499D01*
Y86998D01*
X-37501Y67501D02*
X-38001Y67001D01*
X-39000D01*
X-39500Y67501D01*
Y69500D01*
X-39000Y70000D01*
X-38001D01*
X-37501Y69500D01*
X-36501Y67501D02*
X-36001Y67001D01*
X-35001D01*
X-34502Y67501D01*
Y68001D01*
X-35001Y68501D01*
X-34502Y69000D01*
Y69500D01*
X-35001Y70000D01*
X-36001D01*
X-36501Y69500D01*
Y69000D01*
X-36001Y68501D01*
X-36501Y68001D01*
Y67501D01*
X-36001Y68501D02*
X-35001D01*
X-37501Y85501D02*
X-38001Y85001D01*
X-39000D01*
X-39500Y85501D01*
Y87500D01*
X-39000Y88000D01*
X-38001D01*
X-37501Y87500D01*
X-36501Y85001D02*
X-34502D01*
Y85501D01*
X-36501Y87500D01*
Y88000D01*
X-37501Y79501D02*
X-38001Y79001D01*
X-39000D01*
X-39500Y79501D01*
Y81500D01*
X-39000Y82000D01*
X-38001D01*
X-37501Y81500D01*
X-34502Y79001D02*
X-35501Y79501D01*
X-36501Y80501D01*
Y81500D01*
X-36001Y82000D01*
X-35001D01*
X-34502Y81500D01*
Y81000D01*
X-35001Y80501D01*
X-36501D01*
X-37501Y73501D02*
X-38001Y73001D01*
X-39000D01*
X-39500Y73501D01*
Y75500D01*
X-39000Y76000D01*
X-38001D01*
X-37501Y75500D01*
X-34502Y73001D02*
X-36501D01*
Y74501D01*
X-35501Y74001D01*
X-35001D01*
X-34502Y74501D01*
Y75500D01*
X-35001Y76000D01*
X-36001D01*
X-36501Y75500D01*
X-30001Y93999D02*
X-29501Y93499D01*
Y92500D01*
X-30001Y92000D01*
X-32000D01*
X-32500Y92500D01*
Y93499D01*
X-32000Y93999D01*
X-32500Y96499D02*
X-29501D01*
X-31001Y94999D01*
Y96998D01*
X-41001Y-28500D02*
X-44000D01*
Y-27000D01*
X-43500Y-26501D01*
X-43000D01*
X-42500Y-27000D01*
Y-28500D01*
Y-27000D01*
X-42001Y-26501D01*
X-41501D01*
X-41001Y-27000D01*
Y-28500D01*
X-42001Y-25001D02*
Y-24001D01*
X-42500Y-23502D01*
X-44000D01*
Y-25001D01*
X-43500Y-25501D01*
X-43000Y-25001D01*
Y-23502D01*
X-41501Y-22002D02*
X-42001D01*
Y-22502D01*
Y-21502D01*
Y-22002D01*
X-43500D01*
X-44000Y-21502D01*
X-41501Y-19503D02*
X-42001D01*
Y-20003D01*
Y-19003D01*
Y-19503D01*
X-43500D01*
X-44000Y-19003D01*
X-44500Y-17504D02*
Y-15504D01*
X-41501Y-12505D02*
X-41001Y-13005D01*
Y-14005D01*
X-41501Y-14504D01*
X-43500D01*
X-44000Y-14005D01*
Y-13005D01*
X-43500Y-12505D01*
X-44000Y-11506D02*
X-41001D01*
Y-10006D01*
X-41501Y-9506D01*
X-42500D01*
X-43000Y-10006D01*
Y-11506D01*
Y-10506D02*
X-44000Y-9506D01*
Y-8506D02*
Y-7507D01*
Y-8007D01*
X-41001D01*
X-41501Y-8506D01*
X179000Y111499D02*
Y110999D01*
X179500D01*
X178500D01*
X179000D01*
Y109500D01*
X178500Y109000D01*
X176501D02*
X175501D01*
X175002Y109500D01*
Y110500D01*
X175501Y110999D01*
X176501D01*
X177001Y110500D01*
Y109500D01*
X176501Y109000D01*
X174002Y108500D02*
X172002D01*
X169003Y111499D02*
X169503Y111999D01*
X170503D01*
X171003Y111499D01*
Y109500D01*
X170503Y109000D01*
X169503D01*
X169003Y109500D01*
Y110500D01*
X170003D01*
X168004Y109000D02*
Y111999D01*
X166004Y109000D01*
Y111999D01*
X165005D02*
Y109000D01*
X163505D01*
X163005Y109500D01*
Y111499D01*
X163505Y111999D01*
X165005D01*
X162006Y109000D02*
X161006D01*
X161506D01*
Y111999D01*
X162006Y111499D01*
X71000Y152000D02*
Y154999D01*
X69500D01*
X69001Y154499D01*
Y153499D01*
X69500Y153000D01*
X71000D01*
X70000D02*
X69001Y152000D01*
X68001D02*
X67001D01*
X67501D01*
Y154999D01*
X68001Y154499D01*
X64002Y152000D02*
Y154999D01*
X65502Y153499D01*
X63502D01*
X159500Y151500D02*
Y154499D01*
X158001D01*
X157501Y153999D01*
Y152999D01*
X158001Y152500D01*
X159500D01*
X158500D02*
X157501Y151500D01*
X156501D02*
X155501D01*
X156001D01*
Y154499D01*
X156501Y153999D01*
X154002D02*
X153502Y154499D01*
X152502D01*
X152002Y153999D01*
Y153499D01*
X152502Y152999D01*
X153002D01*
X152502D01*
X152002Y152500D01*
Y152000D01*
X152502Y151500D01*
X153502D01*
X154002Y152000D01*
X179315Y-144500D02*
X182314D01*
Y-143000D01*
X181814Y-142501D01*
X180814D01*
X180315Y-143000D01*
Y-144500D01*
Y-143500D02*
X179315Y-142501D01*
Y-139502D02*
Y-141501D01*
X181314Y-139502D01*
X181814D01*
X182314Y-140001D01*
Y-141001D01*
X181814Y-141501D01*
Y-138502D02*
X182314Y-138002D01*
Y-137002D01*
X181814Y-136503D01*
X181314D01*
X180814Y-137002D01*
Y-137502D01*
Y-137002D01*
X180315Y-136503D01*
X179815D01*
X179315Y-137002D01*
Y-138002D01*
X179815Y-138502D01*
X151700Y19500D02*
X154699D01*
Y21000D01*
X154199Y21499D01*
X153200D01*
X152700Y21000D01*
Y19500D01*
Y20500D02*
X151700Y21499D01*
Y24498D02*
Y22499D01*
X153699Y24498D01*
X154199D01*
X154699Y23999D01*
Y22999D01*
X154199Y22499D01*
X154699Y27497D02*
X154199Y26498D01*
X153200Y25498D01*
X152200D01*
X151700Y25998D01*
Y26998D01*
X152200Y27497D01*
X152700D01*
X153200Y26998D01*
Y25498D01*
X143378Y46000D02*
X140379D01*
Y44500D01*
X140879Y44001D01*
X141878D01*
X142378Y44500D01*
Y46000D01*
Y45000D02*
X143378Y44001D01*
Y41002D02*
Y43001D01*
X141379Y41002D01*
X140879D01*
X140379Y41501D01*
Y42501D01*
X140879Y43001D01*
X140379Y40002D02*
Y38003D01*
X140879D01*
X142878Y40002D01*
X143378D01*
X175500Y-42431D02*
X178499D01*
Y-40931D01*
X177999Y-40431D01*
X176999D01*
X176500Y-40931D01*
Y-42431D01*
Y-41431D02*
X175500Y-40431D01*
Y-37432D02*
Y-39432D01*
X177499Y-37432D01*
X177999D01*
X178499Y-37932D01*
Y-38932D01*
X177999Y-39432D01*
X175500Y-34933D02*
X178499D01*
X176999Y-36433D01*
Y-34433D01*
X183000Y-42000D02*
X185999D01*
Y-40501D01*
X185499Y-40001D01*
X184500D01*
X184000Y-40501D01*
Y-42000D01*
Y-41000D02*
X183000Y-40001D01*
Y-37002D02*
Y-39001D01*
X184999Y-37002D01*
X185499D01*
X185999Y-37501D01*
Y-38501D01*
X185499Y-39001D01*
X185999Y-34003D02*
Y-36002D01*
X184500D01*
X184999Y-35002D01*
Y-34502D01*
X184500Y-34003D01*
X183500D01*
X183000Y-34502D01*
Y-35502D01*
X183500Y-36002D01*
X90500Y-144500D02*
X93499D01*
Y-143000D01*
X92999Y-142501D01*
X92000D01*
X91500Y-143000D01*
Y-144500D01*
Y-143500D02*
X90500Y-142501D01*
Y-139502D02*
Y-141501D01*
X92499Y-139502D01*
X92999D01*
X93499Y-140001D01*
Y-141001D01*
X92999Y-141501D01*
Y-138502D02*
X93499Y-138002D01*
Y-137002D01*
X92999Y-136503D01*
X92499D01*
X92000Y-137002D01*
X91500Y-136503D01*
X91000D01*
X90500Y-137002D01*
Y-138002D01*
X91000Y-138502D01*
X91500D01*
X92000Y-138002D01*
X92499Y-138502D01*
X92999D01*
X92000Y-138002D02*
Y-137002D01*
X60000Y19500D02*
X62999D01*
Y21000D01*
X62499Y21499D01*
X61500D01*
X61000Y21000D01*
Y19500D01*
Y20500D02*
X60000Y21499D01*
X62499Y22499D02*
X62999Y22999D01*
Y23999D01*
X62499Y24498D01*
X61999D01*
X61500Y23999D01*
Y23499D01*
Y23999D01*
X61000Y24498D01*
X60500D01*
X60000Y23999D01*
Y22999D01*
X60500Y22499D01*
X60000Y25498D02*
Y26498D01*
Y25998D01*
X62999D01*
X62499Y25498D01*
X48500Y36500D02*
X45501D01*
Y35001D01*
X46001Y34501D01*
X47001D01*
X47500Y35001D01*
Y36500D01*
Y35500D02*
X48500Y34501D01*
X46001Y33501D02*
X45501Y33001D01*
Y32001D01*
X46001Y31502D01*
X46501D01*
X47001Y32001D01*
Y32501D01*
Y32001D01*
X47500Y31502D01*
X48000D01*
X48500Y32001D01*
Y33001D01*
X48000Y33501D01*
X48500Y28503D02*
Y30502D01*
X46501Y28503D01*
X46001D01*
X45501Y29002D01*
Y30002D01*
X46001Y30502D01*
X89295Y-34500D02*
X86296D01*
Y-36000D01*
X86796Y-36499D01*
X87796D01*
X88296Y-36000D01*
Y-34500D01*
Y-35500D02*
X89295Y-36499D01*
Y-39498D02*
Y-37499D01*
X87296Y-39498D01*
X86796D01*
X86296Y-38999D01*
Y-37999D01*
X86796Y-37499D01*
X88795Y-40498D02*
X89295Y-40998D01*
Y-41998D01*
X88795Y-42497D01*
X86796D01*
X86296Y-41998D01*
Y-40998D01*
X86796Y-40498D01*
X87296D01*
X87796Y-40998D01*
Y-42497D01*
X96516Y-34500D02*
X93517D01*
Y-36000D01*
X94016Y-36499D01*
X95016D01*
X95516Y-36000D01*
Y-34500D01*
Y-35500D02*
X96516Y-36499D01*
X94016Y-37499D02*
X93517Y-37999D01*
Y-38999D01*
X94016Y-39498D01*
X94516D01*
X95016Y-38999D01*
Y-38499D01*
Y-38999D01*
X95516Y-39498D01*
X96016D01*
X96516Y-38999D01*
Y-37999D01*
X96016Y-37499D01*
X94016Y-40498D02*
X93517Y-40998D01*
Y-41998D01*
X94016Y-42497D01*
X96016D01*
X96516Y-41998D01*
Y-40998D01*
X96016Y-40498D01*
X94016D01*
X187598Y-69000D02*
Y-66001D01*
X186599Y-67001D01*
X185599Y-66001D01*
Y-69000D01*
X184599D02*
X183600D01*
X184100D01*
Y-66001D01*
X184599Y-66501D01*
X99453Y-69500D02*
Y-66501D01*
X98453Y-67501D01*
X97453Y-66501D01*
Y-69500D01*
X94454D02*
X96454D01*
X94454Y-67501D01*
Y-67001D01*
X94954Y-66501D01*
X95954D01*
X96454Y-67001D01*
X-146500Y73999D02*
X-147500D01*
X-147000D01*
Y71000D01*
X-146500D01*
X-147500D01*
X-150998Y73499D02*
X-150499Y73999D01*
X-149499D01*
X-148999Y73499D01*
Y71500D01*
X-149499Y71000D01*
X-150499D01*
X-150998Y71500D01*
X-151998Y71000D02*
X-152998D01*
X-152498D01*
Y73999D01*
X-151998Y73499D01*
X150700Y-44301D02*
Y-47300D01*
X149200D01*
X148701Y-46800D01*
Y-44801D01*
X149200Y-44301D01*
X150700D01*
X147701Y-47300D02*
X146701D01*
X147201D01*
Y-44301D01*
X147701Y-44801D01*
X151700Y-8801D02*
Y-11800D01*
X150200D01*
X149701Y-11300D01*
Y-9301D01*
X150200Y-8801D01*
X151700D01*
X146702Y-11800D02*
X148701D01*
X146702Y-9801D01*
Y-9301D01*
X147201Y-8801D01*
X148201D01*
X148701Y-9301D01*
X77800Y-44301D02*
Y-47300D01*
X76301D01*
X75801Y-46800D01*
Y-44801D01*
X76301Y-44301D01*
X77800D01*
X74801Y-44801D02*
X74301Y-44301D01*
X73301D01*
X72802Y-44801D01*
Y-45301D01*
X73301Y-45801D01*
X73801D01*
X73301D01*
X72802Y-46300D01*
Y-46800D01*
X73301Y-47300D01*
X74301D01*
X74801Y-46800D01*
X77300Y-8801D02*
Y-11800D01*
X75801D01*
X75301Y-11300D01*
Y-9301D01*
X75801Y-8801D01*
X77300D01*
X72801Y-11800D02*
Y-8801D01*
X74301Y-10300D01*
X72302D01*
X149816Y-138696D02*
X149316Y-138196D01*
Y-137197D01*
X149816Y-136697D01*
X151815D01*
X152315Y-137197D01*
Y-138196D01*
X151815Y-138696D01*
X152315Y-139696D02*
Y-140696D01*
Y-140196D01*
X149316D01*
X149816Y-139696D01*
Y-142195D02*
X149316Y-142695D01*
Y-143695D01*
X149816Y-144194D01*
X150316D01*
X150815Y-143695D01*
Y-143195D01*
Y-143695D01*
X151315Y-144194D01*
X151815D01*
X152315Y-143695D01*
Y-142695D01*
X151815Y-142195D01*
X61501Y-138499D02*
X61001Y-137999D01*
Y-137000D01*
X61501Y-136500D01*
X63500D01*
X64000Y-137000D01*
Y-137999D01*
X63500Y-138499D01*
X64000Y-139499D02*
Y-140499D01*
Y-139999D01*
X61001D01*
X61501Y-139499D01*
X64000Y-143498D02*
X61001D01*
X62501Y-141998D01*
Y-143998D01*
X-109000Y1400D02*
Y2400D01*
Y1900D01*
X-106001D01*
X-106501Y1400D01*
X127261Y35499D02*
X125262D01*
Y34999D01*
X127261Y33000D01*
Y32500D01*
X34600Y34978D02*
X34100Y35478D01*
X33101D01*
X32601Y34978D01*
Y34478D01*
X33101Y33978D01*
X32601Y33478D01*
Y32979D01*
X33101Y32479D01*
X34100D01*
X34600Y32979D01*
Y33478D01*
X34100Y33978D01*
X34600Y34478D01*
Y34978D01*
X34100Y33978D02*
X33101D01*
M02*
