G04*
G04 #@! TF.GenerationSoftware,Altium Limited,Altium Designer,19.0.10 (269)*
G04*
G04 Layer_Physical_Order=2*
G04 Layer_Color=16711680*
%FSLAX25Y25*%
%MOIN*%
G70*
G01*
G75*
%ADD15C,0.01000*%
%ADD18C,0.01500*%
%ADD24R,0.03543X0.02756*%
%ADD26R,0.01968X0.03150*%
%ADD29R,0.02756X0.03543*%
%ADD30R,0.03150X0.03543*%
%ADD35R,0.03543X0.03150*%
%ADD72C,0.10000*%
%ADD73C,0.05000*%
%ADD74C,0.02000*%
%ADD75C,0.03000*%
%ADD76C,0.06496*%
%ADD77C,0.05118*%
%ADD78C,0.06024*%
%ADD79R,0.06024X0.06024*%
%ADD80C,0.10630*%
%ADD81R,0.07087X0.07087*%
%ADD82C,0.07087*%
%ADD83C,0.06299*%
%ADD84C,0.07874*%
%ADD85C,0.05906*%
%ADD86R,0.05906X0.05906*%
%ADD87C,0.06000*%
%ADD88C,0.06102*%
%ADD89R,0.06000X0.06000*%
%ADD90C,0.23622*%
%ADD91C,0.15748*%
%ADD92C,0.09843*%
%ADD93C,0.02362*%
%ADD94C,0.03937*%
%ADD95C,0.05512*%
%ADD96C,0.04724*%
%ADD97R,0.01772X0.04724*%
%ADD98R,0.05512X0.01181*%
%ADD99R,0.12795X0.06496*%
%ADD100R,0.03740X0.06496*%
%ADD101R,0.07087X0.04724*%
%ADD102R,0.02559X0.06004*%
%ADD103R,0.09055X0.17717*%
%ADD104R,0.06004X0.02559*%
%ADD105R,0.07087X0.05118*%
%ADD106R,0.09350X0.07480*%
%ADD107R,0.05807X0.08268*%
%ADD108R,0.01772X0.05433*%
%ADD109R,0.04921X0.08465*%
%ADD110R,0.02362X0.03937*%
G36*
X191703Y109500D02*
X181337D01*
Y123721D01*
X181514Y124304D01*
X181632Y125500D01*
X181514Y126696D01*
X181165Y127847D01*
X180598Y128907D01*
X179836Y129836D01*
X178907Y130598D01*
X177847Y131165D01*
X176696Y131514D01*
X175670Y131615D01*
X175476Y132032D01*
X175471Y132123D01*
X178881Y135534D01*
X179165Y135959D01*
X179187Y136069D01*
X179618Y136264D01*
X179618Y136264D01*
X179618Y136264D01*
X184848D01*
X185088Y136025D01*
X185146Y135732D01*
X185581Y135081D01*
X186232Y134646D01*
X187000Y134493D01*
X187768Y134646D01*
X188419Y135081D01*
X188854Y135732D01*
X189007Y136500D01*
X188854Y137268D01*
X188607Y137639D01*
X188434Y137936D01*
X188734Y138279D01*
X189026Y138474D01*
X189461Y139125D01*
X189614Y139893D01*
X189461Y140662D01*
X189026Y141313D01*
X188375Y141748D01*
X187607Y141901D01*
X187205Y141821D01*
X186744Y142142D01*
X186705Y142214D01*
Y146894D01*
X181474D01*
X180012Y148356D01*
Y152571D01*
X179651D01*
Y153774D01*
X179551Y154276D01*
X179267Y154702D01*
X174040Y159928D01*
X173615Y160213D01*
X173112Y160313D01*
X143374D01*
X142871Y160213D01*
X142446Y159928D01*
X128830Y146313D01*
X127990D01*
X127919Y146419D01*
X127268Y146854D01*
X126500Y147007D01*
X125732Y146854D01*
X125081Y146419D01*
X124646Y145768D01*
X124493Y145000D01*
X124646Y144232D01*
X125081Y143581D01*
X125732Y143146D01*
X126500Y142993D01*
X127268Y143146D01*
X127919Y143581D01*
X127990Y143687D01*
X129374D01*
X129876Y143787D01*
X130302Y144072D01*
X131546Y145316D01*
X132007Y145070D01*
X131993Y145000D01*
X132146Y144232D01*
X132581Y143581D01*
X133232Y143146D01*
X133934Y143006D01*
X134064Y142785D01*
X134147Y142512D01*
X124838Y133203D01*
X124291Y133363D01*
X123919Y133919D01*
X123813Y133990D01*
Y144112D01*
X123713Y144615D01*
X123428Y145041D01*
X112970Y155499D01*
X112544Y155784D01*
X112041Y155884D01*
X88301D01*
X87799Y155784D01*
X87373Y155499D01*
X85119Y153245D01*
X84834Y152819D01*
X84785Y152571D01*
X83988D01*
Y146894D01*
X77134D01*
Y144860D01*
X72925D01*
X72599Y145277D01*
X72855Y145895D01*
X73054Y147406D01*
X72855Y148916D01*
X72272Y150324D01*
X71344Y151533D01*
X70135Y152461D01*
X68727Y153044D01*
X67216Y153243D01*
X52905D01*
X51395Y153044D01*
X49987Y152461D01*
X48778Y151533D01*
X25372Y128128D01*
X24445Y126919D01*
X23862Y125511D01*
X23663Y124000D01*
Y109500D01*
X3500D01*
Y106388D01*
X3038Y106197D01*
X-209Y109443D01*
X-717Y109783D01*
X-1000Y109839D01*
D01*
X-1317Y109903D01*
X-2070D01*
X-2081Y109919D01*
X-2732Y110354D01*
X-3500Y110507D01*
X-4268Y110354D01*
X-4919Y109919D01*
X-5354Y109268D01*
X-5507Y108500D01*
X-5354Y107732D01*
X-4919Y107081D01*
X-4268Y106646D01*
X-4085Y106609D01*
X-3893Y106147D01*
X-3960Y106048D01*
X-4113Y105280D01*
X-3960Y104511D01*
X-3525Y103860D01*
X-2874Y103425D01*
X-2390Y103329D01*
X-129Y101067D01*
X-336Y100567D01*
X-13803D01*
X-14232Y100854D01*
X-15000Y101007D01*
X-15768Y100854D01*
X-16419Y100419D01*
X-16854Y99768D01*
X-17007Y99000D01*
X-16854Y98232D01*
X-16419Y97581D01*
X-15768Y97146D01*
X-15000Y96993D01*
X-14232Y97146D01*
X-13803Y97433D01*
X-460D01*
X1671Y95301D01*
X1772Y94795D01*
X2207Y94144D01*
X2858Y93709D01*
X3500Y93581D01*
Y84322D01*
X-21500D01*
X-21500Y84322D01*
X-22197Y84184D01*
X-22789Y83789D01*
X-29577Y77000D01*
X-34500D01*
Y72077D01*
X-36255Y70322D01*
X-39913D01*
Y71228D01*
X-39913Y71272D01*
Y71728D01*
X-39913Y71772D01*
Y74000D01*
X-42488D01*
X-45063D01*
Y71772D01*
X-45063Y71728D01*
Y71272D01*
X-45063Y71228D01*
Y69000D01*
X-42488D01*
Y68500D01*
X-41988D01*
Y65728D01*
X-39913D01*
Y66678D01*
X-35500D01*
X-35500Y66678D01*
X-35000Y66777D01*
X-34500Y66463D01*
Y26313D01*
X-89714D01*
X-109687Y46286D01*
Y76500D01*
X-109787Y77002D01*
X-110072Y77428D01*
X-117049Y84405D01*
X-116799Y85008D01*
X-116668Y86000D01*
X-116799Y86992D01*
X-117181Y87916D01*
X-117790Y88710D01*
X-118584Y89319D01*
X-119508Y89701D01*
X-120500Y89832D01*
X-121492Y89701D01*
X-122416Y89319D01*
X-123210Y88710D01*
X-123819Y87916D01*
X-124201Y86992D01*
X-124332Y86000D01*
X-124201Y85008D01*
X-123819Y84084D01*
X-123210Y83290D01*
X-122722Y82916D01*
X-122891Y82416D01*
X-167560D01*
X-177572Y92428D01*
X-177664Y92489D01*
X-177684Y93104D01*
X-177639Y93139D01*
X-176996Y93977D01*
X-176592Y94953D01*
X-176519Y95500D01*
X-184481D01*
X-184408Y94953D01*
X-184004Y93977D01*
X-183361Y93139D01*
X-183316Y93104D01*
X-183336Y92489D01*
X-183428Y92428D01*
X-186428Y89428D01*
X-186713Y89002D01*
X-186813Y88500D01*
Y81000D01*
X-186713Y80498D01*
X-186428Y80072D01*
X-183951Y77595D01*
X-184201Y76992D01*
X-184332Y76000D01*
X-184201Y75008D01*
X-183819Y74084D01*
X-183210Y73290D01*
X-182416Y72681D01*
X-181492Y72299D01*
X-180500Y72168D01*
X-179508Y72299D01*
X-178584Y72681D01*
X-177790Y73290D01*
X-177181Y74084D01*
X-176799Y75008D01*
X-176668Y76000D01*
X-176799Y76992D01*
X-177181Y77916D01*
X-177790Y78710D01*
X-178584Y79319D01*
X-179508Y79701D01*
X-180500Y79832D01*
X-181492Y79701D01*
X-182095Y79452D01*
X-184187Y81544D01*
Y83743D01*
X-183687Y83913D01*
X-183210Y83290D01*
X-182416Y82681D01*
X-181492Y82299D01*
X-180500Y82168D01*
X-179508Y82299D01*
X-178905Y82548D01*
X-175031Y78675D01*
X-174606Y78391D01*
X-174103Y78290D01*
X-147981D01*
X-143289Y73599D01*
Y71321D01*
X-135711D01*
Y75455D01*
X-141433D01*
X-145307Y79329D01*
X-145115Y79791D01*
X-134257D01*
X-133990Y79290D01*
X-134149Y79052D01*
X-134219Y78701D01*
X-129970D01*
X-130040Y79052D01*
X-130199Y79290D01*
X-129932Y79791D01*
X-122754D01*
X-122451Y79345D01*
X-122453Y79290D01*
X-123210Y78710D01*
X-123819Y77916D01*
X-124201Y76992D01*
X-124332Y76000D01*
X-124201Y75008D01*
X-123951Y74405D01*
X-127227Y71129D01*
X-127512Y70703D01*
X-127612Y70201D01*
Y43299D01*
X-127512Y42797D01*
X-127227Y42371D01*
X-124928Y40072D01*
X-124502Y39787D01*
X-124000Y39687D01*
X-122757D01*
X-122587Y39187D01*
X-123210Y38710D01*
X-123819Y37916D01*
X-124201Y36992D01*
X-124332Y36000D01*
X-124201Y35008D01*
X-123819Y34084D01*
X-123210Y33290D01*
X-122416Y32681D01*
X-121492Y32299D01*
X-120500Y32168D01*
X-119508Y32299D01*
X-118905Y32548D01*
X-97126Y10769D01*
X-97317Y10308D01*
X-108928D01*
X-115549Y16928D01*
X-115975Y17213D01*
X-116477Y17313D01*
X-116931D01*
X-117181Y17916D01*
X-117790Y18710D01*
X-118584Y19319D01*
X-119508Y19701D01*
X-120500Y19832D01*
X-121492Y19701D01*
X-122416Y19319D01*
X-123210Y18710D01*
X-123819Y17916D01*
X-124201Y16992D01*
X-124332Y16000D01*
X-124201Y15008D01*
X-123819Y14084D01*
X-123381Y13513D01*
X-123627Y13013D01*
X-126157D01*
X-160072Y46928D01*
X-160498Y47213D01*
X-161000Y47313D01*
X-176932D01*
X-177181Y47916D01*
X-177790Y48710D01*
X-178413Y49187D01*
X-178243Y49687D01*
X-148610D01*
X-148108Y49787D01*
X-147682Y50072D01*
X-141433Y56321D01*
X-135711D01*
Y59926D01*
X-135211Y60133D01*
X-134322Y59245D01*
Y36816D01*
X-134354Y36768D01*
X-134507Y36000D01*
X-134354Y35232D01*
X-133919Y34581D01*
X-133268Y34146D01*
X-132500Y33993D01*
X-131732Y34146D01*
X-131081Y34581D01*
X-130646Y35232D01*
X-130493Y36000D01*
X-130646Y36768D01*
X-130678Y36816D01*
Y60000D01*
X-130678Y60000D01*
X-130816Y60697D01*
X-131211Y61289D01*
X-134599Y64677D01*
X-135191Y65072D01*
X-135711Y65175D01*
Y65455D01*
X-143289D01*
Y61321D01*
X-136398D01*
X-136032Y60955D01*
X-136239Y60455D01*
X-143289D01*
Y58177D01*
X-149154Y52313D01*
X-178243D01*
X-178413Y52813D01*
X-177790Y53290D01*
X-177181Y54084D01*
X-176799Y55008D01*
X-176668Y56000D01*
X-176799Y56992D01*
X-177181Y57916D01*
X-177790Y58710D01*
X-178584Y59319D01*
X-179508Y59701D01*
X-180500Y59832D01*
X-181492Y59701D01*
X-182416Y59319D01*
X-183210Y58710D01*
X-183819Y57916D01*
X-184201Y56992D01*
X-184332Y56000D01*
X-184201Y55008D01*
X-183819Y54084D01*
X-183210Y53290D01*
X-182416Y52681D01*
X-182311Y52638D01*
X-182277Y52083D01*
X-182508Y51928D01*
X-186928Y47508D01*
X-187213Y47082D01*
X-187313Y46580D01*
Y11500D01*
X-187213Y10998D01*
X-186928Y10572D01*
X-183951Y7595D01*
X-184201Y6992D01*
X-184332Y6000D01*
X-184201Y5008D01*
X-183819Y4084D01*
X-183257Y3352D01*
X-183255Y3348D01*
X-183253Y3090D01*
X-183327Y2750D01*
X-183508Y2629D01*
X-184905Y1232D01*
X-185002Y1213D01*
X-185428Y928D01*
X-189216Y-2859D01*
X-189500Y-3285D01*
X-189600Y-3787D01*
Y-66213D01*
X-189500Y-66715D01*
X-189216Y-67141D01*
X-175318Y-81038D01*
X-175510Y-81500D01*
X-191703D01*
Y164144D01*
X-30881D01*
X-30429Y164028D01*
X-30429Y163644D01*
Y154973D01*
X-28215D01*
Y145524D01*
X-21565D01*
Y141520D01*
X-24992Y138093D01*
X-25497Y137336D01*
X-25675Y136444D01*
Y131575D01*
X-25689Y131571D01*
X-26749Y131004D01*
X-27678Y130241D01*
X-28441Y129312D01*
X-29008Y128252D01*
X-29357Y127102D01*
X-29474Y125906D01*
X-29357Y124709D01*
X-29008Y123559D01*
X-28441Y122499D01*
X-27678Y121570D01*
X-26749Y120807D01*
X-25689Y120240D01*
X-25675Y120236D01*
Y115181D01*
X-28831D01*
Y108882D01*
X-20169D01*
Y115181D01*
X-21010D01*
Y120236D01*
X-20996Y120240D01*
X-19936Y120807D01*
X-19007Y121570D01*
X-18244Y122499D01*
X-17677Y123559D01*
X-17328Y124709D01*
X-17211Y125906D01*
X-17328Y127102D01*
X-17677Y128252D01*
X-18244Y129312D01*
X-19007Y130241D01*
X-19936Y131004D01*
X-20996Y131571D01*
X-21010Y131575D01*
Y135478D01*
X-17583Y138905D01*
X-17078Y139662D01*
X-16900Y140554D01*
Y145524D01*
X-10268D01*
Y145311D01*
X-8882D01*
Y149028D01*
Y152744D01*
X-10268D01*
Y152532D01*
X-20291D01*
Y151517D01*
X-20333Y151492D01*
X-20833Y151776D01*
Y154973D01*
X-19504D01*
Y163644D01*
X-19504Y164028D01*
X-19052Y164144D01*
X-7948D01*
X-7496Y164028D01*
X-7496Y163644D01*
Y154973D01*
X-6167D01*
Y153108D01*
X-6496Y152744D01*
X-6667Y152744D01*
X-7882D01*
Y149028D01*
Y145311D01*
X-6579D01*
X-6496Y145311D01*
X-6084Y145524D01*
X-5996Y145524D01*
X1215D01*
Y154973D01*
X3429D01*
Y164028D01*
X3881Y164144D01*
X191703D01*
Y109500D01*
D02*
G37*
G36*
X172297Y155838D02*
X172137Y155291D01*
X172028Y155218D01*
X147397D01*
X146894Y155118D01*
X146468Y154834D01*
X136848Y145213D01*
X136348Y145310D01*
X136298Y145370D01*
X136314Y145458D01*
X147044Y156187D01*
X171947D01*
X172297Y155838D01*
D02*
G37*
G36*
X167611Y150593D02*
X167493Y150000D01*
X167646Y149232D01*
X168081Y148581D01*
X168732Y148146D01*
X168988Y148095D01*
Y146894D01*
X162295D01*
Y145228D01*
X161882Y145072D01*
X161522Y145417D01*
X161652Y146405D01*
X161453Y147916D01*
X160870Y149324D01*
X160270Y150107D01*
X160146Y150555D01*
D01*
X160133Y150593D01*
X160493Y151093D01*
X167307D01*
X167611Y150593D01*
D02*
G37*
G36*
X115296Y147338D02*
X115137Y146791D01*
X114581Y146419D01*
X114146Y145768D01*
X113993Y145000D01*
X114018Y144874D01*
X112988Y143844D01*
X110151D01*
X109877Y144344D01*
X110007Y145000D01*
X109854Y145768D01*
X109419Y146419D01*
X108768Y146854D01*
X108000Y147007D01*
X107232Y146854D01*
X107175Y146817D01*
X107116Y146828D01*
X101543D01*
Y146894D01*
X96313D01*
X95012Y148195D01*
Y151758D01*
X110876D01*
X115296Y147338D01*
D02*
G37*
G36*
X118427Y143801D02*
Y130813D01*
X111853D01*
X102217Y140448D01*
X101792Y140732D01*
X101543Y140782D01*
Y142235D01*
X103542D01*
X104174Y141603D01*
X104599Y141319D01*
X105102Y141219D01*
X113531D01*
X114034Y141319D01*
X114460Y141603D01*
X115874Y143018D01*
X116000Y142993D01*
X116768Y143146D01*
X117419Y143581D01*
X117591Y143837D01*
X118225Y143953D01*
X118427Y143801D01*
D02*
G37*
G36*
X76921Y140110D02*
X80677D01*
Y139110D01*
X76921D01*
Y138954D01*
X76809D01*
X76307Y138854D01*
X75881Y138570D01*
X75713Y138318D01*
X75390Y138102D01*
X74955Y137451D01*
X74802Y136683D01*
X74955Y135915D01*
X75390Y135264D01*
X76041Y134829D01*
X76809Y134676D01*
X77577Y134829D01*
X78228Y135264D01*
X78664Y135915D01*
X78733Y136264D01*
X84220D01*
Y136329D01*
X85201D01*
X85386Y136366D01*
X85490Y136264D01*
X88000D01*
Y135264D01*
X85876D01*
X85945Y134913D01*
X86191Y134545D01*
X85924Y134045D01*
X73054D01*
Y135594D01*
X72855Y137105D01*
X72536Y137876D01*
X74926Y140266D01*
X76921D01*
Y140110D01*
D02*
G37*
G36*
X138214Y139688D02*
X138163Y139300D01*
Y121697D01*
X125965Y109500D01*
X92618Y109500D01*
Y110925D01*
X93279D01*
Y113500D01*
X93779D01*
D01*
X93279D01*
Y116075D01*
X92618D01*
Y123324D01*
X92916Y124304D01*
X93033Y125500D01*
X92916Y126696D01*
X92567Y127847D01*
X92000Y128907D01*
X91237Y129836D01*
X90308Y130598D01*
X89529Y131015D01*
X89517Y131272D01*
X89567Y131562D01*
X89930Y131804D01*
X93881Y135755D01*
X94058Y136020D01*
X94457Y136264D01*
X99687D01*
X110347Y125603D01*
X110773Y125319D01*
X111276Y125219D01*
X122122D01*
X122232Y125146D01*
X123000Y124993D01*
X123768Y125146D01*
X124419Y125581D01*
X124854Y126232D01*
X125007Y127000D01*
X124982Y127126D01*
X137765Y139909D01*
X138214Y139688D01*
D02*
G37*
G36*
X160059Y131219D02*
X172193D01*
X172318Y130719D01*
X172093Y130598D01*
X171164Y129836D01*
X170402Y128907D01*
X169835Y127847D01*
X169486Y126696D01*
X169368Y125500D01*
X169486Y124304D01*
X169663Y123721D01*
Y118075D01*
X169000D01*
Y115500D01*
Y112925D01*
X169663D01*
Y109500D01*
X143129Y109500D01*
X142938Y109962D01*
X148128Y115152D01*
X149055Y116361D01*
X149638Y117769D01*
X149837Y119280D01*
Y122677D01*
X150337Y122802D01*
X150716Y122093D01*
X151479Y121164D01*
X152408Y120402D01*
X153468Y119835D01*
X154619Y119486D01*
X155815Y119368D01*
X157011Y119486D01*
X158161Y119835D01*
X159222Y120402D01*
X160151Y121164D01*
X160913Y122093D01*
X161480Y123153D01*
X161829Y124304D01*
X161947Y125500D01*
X161829Y126696D01*
X161480Y127847D01*
X160913Y128907D01*
X160151Y129836D01*
X159268Y130560D01*
X159245Y130899D01*
X159253Y131001D01*
X159683Y131294D01*
X160059Y131219D01*
D02*
G37*
G36*
X65308Y141068D02*
X64298Y140650D01*
X63089Y139722D01*
X62161Y138513D01*
X61578Y137105D01*
X61379Y135594D01*
Y127279D01*
X61202Y126696D01*
X61085Y125500D01*
X61202Y124304D01*
X61551Y123153D01*
X62118Y122093D01*
X62881Y121164D01*
X63810Y120402D01*
X64199Y120194D01*
X64121Y119668D01*
X63905Y119625D01*
X63183Y119143D01*
X62701Y118422D01*
X62632Y118071D01*
X66880D01*
X66811Y118422D01*
X66465Y118940D01*
X66749Y119414D01*
X67216Y119368D01*
X68413Y119486D01*
X69563Y119835D01*
X70623Y120402D01*
X71552Y121164D01*
X72315Y122093D01*
X72882Y123153D01*
X73231Y124304D01*
X73348Y125500D01*
X73231Y126696D01*
X73054Y127279D01*
Y131420D01*
X83970D01*
X84096Y130920D01*
X83495Y130598D01*
X82566Y129836D01*
X81803Y128907D01*
X81236Y127847D01*
X80888Y126696D01*
X80770Y125500D01*
X80888Y124304D01*
X80944Y124118D01*
Y113500D01*
Y109500D01*
X35337D01*
Y121582D01*
X55323Y141568D01*
X65209D01*
X65308Y141068D01*
D02*
G37*
G36*
X-183819Y44084D02*
X-183210Y43290D01*
X-182416Y42681D01*
X-181492Y42299D01*
X-180500Y42168D01*
X-179508Y42299D01*
X-178584Y42681D01*
X-177790Y43290D01*
X-177181Y44084D01*
X-176932Y44687D01*
X-161544D01*
X-127629Y10773D01*
X-127203Y10488D01*
X-126701Y10388D01*
X-114843D01*
X-111022Y6567D01*
X-110596Y6282D01*
X-110093Y6182D01*
X-103612D01*
X-103421Y5720D01*
X-106128Y3013D01*
X-117373D01*
X-117619Y3513D01*
X-117181Y4084D01*
X-116799Y5008D01*
X-116668Y6000D01*
X-116799Y6992D01*
X-117181Y7916D01*
X-117790Y8710D01*
X-118584Y9319D01*
X-119508Y9701D01*
X-120500Y9832D01*
X-121492Y9701D01*
X-122416Y9319D01*
X-123210Y8710D01*
X-123819Y7916D01*
X-124201Y6992D01*
X-124332Y6000D01*
X-124201Y5008D01*
X-123819Y4084D01*
X-123381Y3513D01*
X-123627Y3013D01*
X-130879D01*
X-131381Y2913D01*
X-131807Y2629D01*
X-147124Y-12687D01*
X-176932D01*
X-177181Y-12084D01*
X-177790Y-11290D01*
X-178584Y-10681D01*
X-179508Y-10299D01*
X-180500Y-10168D01*
X-181492Y-10299D01*
X-182416Y-10681D01*
X-183210Y-11290D01*
X-183819Y-12084D01*
X-184201Y-13008D01*
X-184332Y-14000D01*
X-184201Y-14992D01*
X-183819Y-15916D01*
X-183210Y-16710D01*
X-182416Y-17319D01*
X-181492Y-17701D01*
X-180500Y-17832D01*
X-179508Y-17701D01*
X-178584Y-17319D01*
X-177790Y-16710D01*
X-177181Y-15916D01*
X-176932Y-15313D01*
X-146580D01*
X-146078Y-15213D01*
X-145652Y-14928D01*
X-130335Y388D01*
X-105584D01*
X-105082Y488D01*
X-104656Y773D01*
X-100746Y4682D01*
X-34500D01*
Y-81500D01*
X-51852D01*
X-52003Y-81000D01*
X-51782Y-80852D01*
X-51300Y-80130D01*
X-51230Y-79779D01*
X-55479D01*
X-55409Y-80130D01*
X-54927Y-80852D01*
X-54705Y-81000D01*
X-54857Y-81500D01*
X-91222D01*
X-91373Y-81000D01*
X-91152Y-80852D01*
X-90670Y-80130D01*
X-90600Y-79779D01*
X-94849D01*
X-94779Y-80130D01*
X-94297Y-80852D01*
X-94075Y-81000D01*
X-94227Y-81500D01*
X-110907D01*
X-111058Y-81000D01*
X-110837Y-80852D01*
X-110355Y-80130D01*
X-110285Y-79779D01*
X-114534D01*
X-114464Y-80130D01*
X-113982Y-80852D01*
X-113760Y-81000D01*
X-113912Y-81500D01*
X-130592D01*
X-130744Y-81000D01*
X-130522Y-80852D01*
X-130040Y-80130D01*
X-129970Y-79779D01*
X-134219D01*
X-134149Y-80130D01*
X-133667Y-80852D01*
X-133446Y-81000D01*
X-133597Y-81500D01*
X-150277D01*
X-150428Y-81000D01*
X-150207Y-80852D01*
X-149725Y-80130D01*
X-149655Y-79779D01*
X-153904D01*
X-153834Y-80130D01*
X-153352Y-80852D01*
X-153130Y-81000D01*
X-153282Y-81500D01*
X-169962D01*
X-170114Y-81000D01*
X-169892Y-80852D01*
X-169410Y-80130D01*
X-169340Y-79779D01*
X-171465D01*
Y-79280D01*
X-171965D01*
Y-77155D01*
X-172316Y-77225D01*
X-173037Y-77707D01*
X-173519Y-78429D01*
X-173531Y-78489D01*
X-174010Y-78634D01*
X-186975Y-65669D01*
Y-56287D01*
X-180213D01*
Y-48713D01*
X-186975D01*
Y-4331D01*
X-184158Y-1514D01*
X-184012Y-1515D01*
X-183768Y-2018D01*
X-183819Y-2084D01*
X-184201Y-3008D01*
X-184332Y-4000D01*
X-184201Y-4992D01*
X-183819Y-5916D01*
X-183210Y-6710D01*
X-182416Y-7319D01*
X-181492Y-7701D01*
X-180500Y-7832D01*
X-179508Y-7701D01*
X-178584Y-7319D01*
X-177790Y-6710D01*
X-177181Y-5916D01*
X-176799Y-4992D01*
X-176668Y-4000D01*
X-176799Y-3008D01*
X-177181Y-2084D01*
X-177790Y-1290D01*
X-178584Y-681D01*
X-179508Y-299D01*
X-180500Y-168D01*
X-181492Y-299D01*
X-182416Y-681D01*
X-182705Y-281D01*
X-182036Y388D01*
X-178719D01*
X-178217Y488D01*
X-177791Y773D01*
X-172946Y5618D01*
X-172661Y6044D01*
X-172562Y6546D01*
Y9374D01*
X-172661Y9877D01*
X-172946Y10302D01*
X-177049Y14405D01*
X-176799Y15008D01*
X-176668Y16000D01*
X-176799Y16992D01*
X-177181Y17916D01*
X-177790Y18710D01*
X-178584Y19319D01*
X-179508Y19701D01*
X-180500Y19832D01*
X-181492Y19701D01*
X-182416Y19319D01*
X-183210Y18710D01*
X-183819Y17916D01*
X-184201Y16992D01*
X-184687Y17074D01*
Y24926D01*
X-184201Y25008D01*
X-183819Y24084D01*
X-183210Y23290D01*
X-182416Y22681D01*
X-181492Y22299D01*
X-180500Y22168D01*
X-179508Y22299D01*
X-178584Y22681D01*
X-177790Y23290D01*
X-177181Y24084D01*
X-176799Y25008D01*
X-176668Y26000D01*
X-176799Y26992D01*
X-177181Y27916D01*
X-177790Y28710D01*
X-178584Y29319D01*
X-179508Y29701D01*
X-180500Y29832D01*
X-181492Y29701D01*
X-182416Y29319D01*
X-183210Y28710D01*
X-183819Y27916D01*
X-184201Y26992D01*
X-184687Y27074D01*
Y34926D01*
X-184201Y35008D01*
X-183819Y34084D01*
X-183210Y33290D01*
X-182416Y32681D01*
X-181492Y32299D01*
X-180500Y32168D01*
X-179508Y32299D01*
X-178584Y32681D01*
X-177790Y33290D01*
X-177181Y34084D01*
X-176799Y35008D01*
X-176668Y36000D01*
X-176799Y36992D01*
X-177181Y37916D01*
X-177790Y38710D01*
X-178584Y39319D01*
X-179508Y39701D01*
X-180500Y39832D01*
X-181492Y39701D01*
X-182416Y39319D01*
X-183210Y38710D01*
X-183819Y37916D01*
X-184201Y36992D01*
X-184687Y37074D01*
Y44926D01*
X-184201Y45008D01*
X-183819Y44084D01*
D02*
G37*
%LPC*%
G36*
X-102216Y156520D02*
Y153000D01*
X-98696D01*
X-98770Y153558D01*
X-99178Y154543D01*
X-99827Y155389D01*
X-100673Y156039D01*
X-101659Y156447D01*
X-102216Y156520D01*
D02*
G37*
G36*
X-103217D02*
X-103774Y156447D01*
X-104760Y156039D01*
X-105606Y155389D01*
X-106255Y154543D01*
X-106663Y153558D01*
X-106737Y153000D01*
X-103217D01*
Y156520D01*
D02*
G37*
G36*
X-47441Y156372D02*
X-48443Y156240D01*
X-49377Y155853D01*
X-50179Y155238D01*
X-50794Y154436D01*
X-51181Y153502D01*
X-51313Y152500D01*
X-51181Y151498D01*
X-50794Y150564D01*
X-50179Y149762D01*
X-49377Y149147D01*
X-48443Y148760D01*
X-47441Y148628D01*
X-46439Y148760D01*
X-45505Y149147D01*
X-44703Y149762D01*
X-44088Y150564D01*
X-43701Y151498D01*
X-43569Y152500D01*
X-43701Y153502D01*
X-44088Y154436D01*
X-44703Y155238D01*
X-45505Y155853D01*
X-46439Y156240D01*
X-47441Y156372D01*
D02*
G37*
G36*
X-65158D02*
X-66160Y156240D01*
X-67093Y155853D01*
X-67895Y155238D01*
X-68511Y154436D01*
X-68897Y153502D01*
X-69029Y152500D01*
X-68897Y151498D01*
X-68511Y150564D01*
X-67895Y149762D01*
X-67093Y149147D01*
X-66160Y148760D01*
X-65158Y148628D01*
X-64155Y148760D01*
X-63222Y149147D01*
X-62420Y149762D01*
X-61804Y150564D01*
X-61418Y151498D01*
X-61286Y152500D01*
X-61418Y153502D01*
X-61804Y154436D01*
X-62420Y155238D01*
X-63222Y155853D01*
X-64155Y156240D01*
X-65158Y156372D01*
D02*
G37*
G36*
X-85000D02*
X-86002Y156240D01*
X-86936Y155853D01*
X-87738Y155238D01*
X-88353Y154436D01*
X-88740Y153502D01*
X-88872Y152500D01*
X-88740Y151498D01*
X-88353Y150564D01*
X-87738Y149762D01*
X-86936Y149147D01*
X-86002Y148760D01*
X-85000Y148628D01*
X-83998Y148760D01*
X-83064Y149147D01*
X-82262Y149762D01*
X-81647Y150564D01*
X-81260Y151498D01*
X-81128Y152500D01*
X-81260Y153502D01*
X-81647Y154436D01*
X-82262Y155238D01*
X-83064Y155853D01*
X-83998Y156240D01*
X-85000Y156372D01*
D02*
G37*
G36*
X-98696Y152000D02*
X-102216D01*
Y148480D01*
X-101659Y148553D01*
X-100673Y148961D01*
X-99827Y149611D01*
X-99178Y150457D01*
X-98770Y151442D01*
X-98696Y152000D01*
D02*
G37*
G36*
X-103217D02*
X-106737D01*
X-106663Y151442D01*
X-106255Y150457D01*
X-105606Y149611D01*
X-104760Y148961D01*
X-103774Y148553D01*
X-103217Y148480D01*
Y152000D01*
D02*
G37*
G36*
X-70098Y147462D02*
X-71332Y147300D01*
X-72481Y146824D01*
X-73468Y146066D01*
X-74225Y145079D01*
X-74701Y143930D01*
X-74827Y142978D01*
X-75331D01*
X-75456Y143930D01*
X-75932Y145079D01*
X-76690Y146066D01*
X-77676Y146824D01*
X-78826Y147300D01*
X-80059Y147462D01*
X-81292Y147300D01*
X-82442Y146824D01*
X-83429Y146066D01*
X-84186Y145079D01*
X-84662Y143930D01*
X-84824Y142697D01*
X-84662Y141463D01*
X-84186Y140314D01*
X-83429Y139327D01*
X-82442Y138570D01*
X-81292Y138094D01*
X-80059Y137932D01*
X-78826Y138094D01*
X-77676Y138570D01*
X-76690Y139327D01*
X-75932Y140314D01*
X-75456Y141463D01*
X-75331Y142416D01*
X-74827D01*
X-74701Y141463D01*
X-74225Y140314D01*
X-73468Y139327D01*
X-72481Y138570D01*
X-71332Y138094D01*
X-70098Y137932D01*
X-68865Y138094D01*
X-67716Y138570D01*
X-66729Y139327D01*
X-65972Y140314D01*
X-65496Y141463D01*
X-65333Y142697D01*
X-65496Y143930D01*
X-65972Y145079D01*
X-66729Y146066D01*
X-67716Y146824D01*
X-68865Y147300D01*
X-70098Y147462D01*
D02*
G37*
G36*
X-42500D02*
X-43733Y147300D01*
X-44883Y146824D01*
X-45869Y146066D01*
X-46627Y145079D01*
X-47103Y143930D01*
X-47265Y142697D01*
X-47103Y141463D01*
X-46627Y140314D01*
X-45869Y139327D01*
X-44883Y138570D01*
X-43733Y138094D01*
X-42500Y137932D01*
X-41267Y138094D01*
X-40117Y138570D01*
X-39130Y139327D01*
X-38373Y140314D01*
X-37897Y141463D01*
X-37735Y142697D01*
X-37897Y143930D01*
X-38373Y145079D01*
X-39130Y146066D01*
X-40117Y146824D01*
X-41267Y147300D01*
X-42500Y147462D01*
D02*
G37*
G36*
X-107658D02*
X-108891Y147300D01*
X-110040Y146824D01*
X-111027Y146066D01*
X-111784Y145079D01*
X-112260Y143930D01*
X-112423Y142697D01*
X-112260Y141463D01*
X-111784Y140314D01*
X-111027Y139327D01*
X-110040Y138570D01*
X-108891Y138094D01*
X-107658Y137932D01*
X-106424Y138094D01*
X-105275Y138570D01*
X-104288Y139327D01*
X-103531Y140314D01*
X-103055Y141463D01*
X-102892Y142697D01*
X-103055Y143930D01*
X-103531Y145079D01*
X-104288Y146066D01*
X-105275Y146824D01*
X-106424Y147300D01*
X-107658Y147462D01*
D02*
G37*
G36*
X16043Y139380D02*
Y137756D01*
X17668D01*
X17598Y138107D01*
X17116Y138828D01*
X16394Y139311D01*
X16043Y139380D01*
D02*
G37*
G36*
X15043D02*
X14692Y139311D01*
X13971Y138828D01*
X13489Y138107D01*
X13419Y137756D01*
X15043D01*
Y139380D01*
D02*
G37*
G36*
X-3642D02*
Y137756D01*
X-2017D01*
X-2087Y138107D01*
X-2569Y138828D01*
X-3291Y139311D01*
X-3642Y139380D01*
D02*
G37*
G36*
X-4642D02*
X-4993Y139311D01*
X-5714Y138828D01*
X-6196Y138107D01*
X-6266Y137756D01*
X-4642D01*
Y139380D01*
D02*
G37*
G36*
X-121752D02*
Y137756D01*
X-120128D01*
X-120197Y138107D01*
X-120679Y138828D01*
X-121401Y139311D01*
X-121752Y139380D01*
D02*
G37*
G36*
X-122752D02*
X-123103Y139311D01*
X-123825Y138828D01*
X-124306Y138107D01*
X-124376Y137756D01*
X-122752D01*
Y139380D01*
D02*
G37*
G36*
X-141437D02*
Y137756D01*
X-139813D01*
X-139882Y138107D01*
X-140365Y138828D01*
X-141086Y139311D01*
X-141437Y139380D01*
D02*
G37*
G36*
X-142437D02*
X-142788Y139311D01*
X-143509Y138828D01*
X-143992Y138107D01*
X-144061Y137756D01*
X-142437D01*
Y139380D01*
D02*
G37*
G36*
X-161122D02*
Y137756D01*
X-159498D01*
X-159567Y138107D01*
X-160049Y138828D01*
X-160771Y139311D01*
X-161122Y139380D01*
D02*
G37*
G36*
X-162122D02*
X-162473Y139311D01*
X-163195Y138828D01*
X-163677Y138107D01*
X-163746Y137756D01*
X-162122D01*
Y139380D01*
D02*
G37*
G36*
X17668Y136756D02*
X16043D01*
Y135132D01*
X16394Y135201D01*
X17116Y135683D01*
X17598Y136405D01*
X17668Y136756D01*
D02*
G37*
G36*
X15043D02*
X13419D01*
X13489Y136405D01*
X13971Y135683D01*
X14692Y135201D01*
X15043Y135132D01*
Y136756D01*
D02*
G37*
G36*
X-2017D02*
X-3642D01*
Y135132D01*
X-3291Y135201D01*
X-2569Y135683D01*
X-2087Y136405D01*
X-2017Y136756D01*
D02*
G37*
G36*
X-4642D02*
X-6266D01*
X-6196Y136405D01*
X-5714Y135683D01*
X-4993Y135201D01*
X-4642Y135132D01*
Y136756D01*
D02*
G37*
G36*
X-120128D02*
X-121752D01*
Y135132D01*
X-121401Y135201D01*
X-120679Y135683D01*
X-120197Y136405D01*
X-120128Y136756D01*
D02*
G37*
G36*
X-122752D02*
X-124376D01*
X-124306Y136405D01*
X-123825Y135683D01*
X-123103Y135201D01*
X-122752Y135132D01*
Y136756D01*
D02*
G37*
G36*
X-139813D02*
X-141437D01*
Y135132D01*
X-141086Y135201D01*
X-140365Y135683D01*
X-139882Y136405D01*
X-139813Y136756D01*
D02*
G37*
G36*
X-142437D02*
X-144061D01*
X-143992Y136405D01*
X-143509Y135683D01*
X-142788Y135201D01*
X-142437Y135132D01*
Y136756D01*
D02*
G37*
G36*
X-159498D02*
X-161122D01*
Y135132D01*
X-160771Y135201D01*
X-160049Y135683D01*
X-159567Y136405D01*
X-159498Y136756D01*
D02*
G37*
G36*
X-162122D02*
X-163746D01*
X-163677Y136405D01*
X-163195Y135683D01*
X-162473Y135201D01*
X-162122Y135132D01*
Y136756D01*
D02*
G37*
G36*
X-3158Y132202D02*
Y126406D01*
X2639D01*
X2566Y127144D01*
X2205Y128334D01*
X1619Y129431D01*
X829Y130393D01*
X-132Y131182D01*
X-1229Y131768D01*
X-2420Y132129D01*
X-3158Y132202D01*
D02*
G37*
G36*
X-4157D02*
X-4895Y132129D01*
X-6086Y131768D01*
X-7183Y131182D01*
X-8144Y130393D01*
X-8934Y129431D01*
X-9520Y128334D01*
X-9881Y127144D01*
X-9954Y126406D01*
X-4157D01*
Y132202D01*
D02*
G37*
G36*
X-40815Y133437D02*
X-55185D01*
Y125366D01*
X-40815D01*
Y133437D01*
D02*
G37*
G36*
X-176701Y129799D02*
X-184299D01*
Y122201D01*
X-176701D01*
Y129799D01*
D02*
G37*
G36*
X2639Y125406D02*
X-3158D01*
Y119609D01*
X-2420Y119682D01*
X-1229Y120043D01*
X-132Y120629D01*
X829Y121419D01*
X1619Y122380D01*
X2205Y123477D01*
X2566Y124668D01*
X2639Y125406D01*
D02*
G37*
G36*
X-4157D02*
X-9954D01*
X-9881Y124668D01*
X-9520Y123477D01*
X-8934Y122380D01*
X-8144Y121419D01*
X-7183Y120629D01*
X-6086Y120043D01*
X-4895Y119682D01*
X-4157Y119609D01*
Y125406D01*
D02*
G37*
G36*
X6201Y119695D02*
Y118071D01*
X7825D01*
X7755Y118422D01*
X7273Y119143D01*
X6552Y119625D01*
X6201Y119695D01*
D02*
G37*
G36*
X5201D02*
X4850Y119625D01*
X4128Y119143D01*
X3646Y118422D01*
X3576Y118071D01*
X5201D01*
Y119695D01*
D02*
G37*
G36*
X-33169D02*
Y118071D01*
X-31545D01*
X-31615Y118422D01*
X-32097Y119143D01*
X-32818Y119625D01*
X-33169Y119695D01*
D02*
G37*
G36*
X-34169D02*
X-34520Y119625D01*
X-35242Y119143D01*
X-35724Y118422D01*
X-35794Y118071D01*
X-34169D01*
Y119695D01*
D02*
G37*
G36*
X-72539D02*
Y118071D01*
X-70915D01*
X-70985Y118422D01*
X-71467Y119143D01*
X-72188Y119625D01*
X-72539Y119695D01*
D02*
G37*
G36*
X-73539D02*
X-73890Y119625D01*
X-74612Y119143D01*
X-75094Y118422D01*
X-75164Y118071D01*
X-73539D01*
Y119695D01*
D02*
G37*
G36*
X-92224D02*
Y118071D01*
X-90600D01*
X-90670Y118422D01*
X-91152Y119143D01*
X-91873Y119625D01*
X-92224Y119695D01*
D02*
G37*
G36*
X-93224D02*
X-93575Y119625D01*
X-94297Y119143D01*
X-94779Y118422D01*
X-94849Y118071D01*
X-93224D01*
Y119695D01*
D02*
G37*
G36*
X-131595D02*
Y118071D01*
X-129970D01*
X-130040Y118422D01*
X-130522Y119143D01*
X-131244Y119625D01*
X-131595Y119695D01*
D02*
G37*
G36*
X-132595D02*
X-132946Y119625D01*
X-133667Y119143D01*
X-134149Y118422D01*
X-134219Y118071D01*
X-132595D01*
Y119695D01*
D02*
G37*
G36*
X-151279D02*
Y118071D01*
X-149655D01*
X-149725Y118422D01*
X-150207Y119143D01*
X-150928Y119625D01*
X-151279Y119695D01*
D02*
G37*
G36*
X-152279D02*
X-152630Y119625D01*
X-153352Y119143D01*
X-153834Y118422D01*
X-153904Y118071D01*
X-152279D01*
Y119695D01*
D02*
G37*
G36*
X-120000Y119981D02*
Y116500D01*
X-116519D01*
X-116592Y117047D01*
X-116996Y118023D01*
X-117639Y118861D01*
X-118477Y119504D01*
X-119453Y119908D01*
X-120000Y119981D01*
D02*
G37*
G36*
X7825Y117071D02*
X6201D01*
Y115446D01*
X6552Y115516D01*
X7273Y115998D01*
X7755Y116720D01*
X7825Y117071D01*
D02*
G37*
G36*
X5201D02*
X3576D01*
X3646Y116720D01*
X4128Y115998D01*
X4850Y115516D01*
X5201Y115446D01*
Y117071D01*
D02*
G37*
G36*
X-31545D02*
X-33169D01*
Y115446D01*
X-32818Y115516D01*
X-32097Y115998D01*
X-31615Y116720D01*
X-31545Y117071D01*
D02*
G37*
G36*
X-34169D02*
X-35794D01*
X-35724Y116720D01*
X-35242Y115998D01*
X-34520Y115516D01*
X-34169Y115446D01*
Y117071D01*
D02*
G37*
G36*
X-70915D02*
X-72539D01*
Y115446D01*
X-72188Y115516D01*
X-71467Y115998D01*
X-70985Y116720D01*
X-70915Y117071D01*
D02*
G37*
G36*
X-73539D02*
X-75164D01*
X-75094Y116720D01*
X-74612Y115998D01*
X-73890Y115516D01*
X-73539Y115446D01*
Y117071D01*
D02*
G37*
G36*
X-90600D02*
X-92224D01*
Y115446D01*
X-91873Y115516D01*
X-91152Y115998D01*
X-90670Y116720D01*
X-90600Y117071D01*
D02*
G37*
G36*
X-93224D02*
X-94849D01*
X-94779Y116720D01*
X-94297Y115998D01*
X-93575Y115516D01*
X-93224Y115446D01*
Y117071D01*
D02*
G37*
G36*
X-129970D02*
X-131595D01*
Y115446D01*
X-131244Y115516D01*
X-130522Y115998D01*
X-130040Y116720D01*
X-129970Y117071D01*
D02*
G37*
G36*
X-132595D02*
X-134219D01*
X-134149Y116720D01*
X-133667Y115998D01*
X-132946Y115516D01*
X-132595Y115446D01*
Y117071D01*
D02*
G37*
G36*
X-149655D02*
X-151279D01*
Y115446D01*
X-150928Y115516D01*
X-150207Y115998D01*
X-149725Y116720D01*
X-149655Y117071D01*
D02*
G37*
G36*
X-152279D02*
X-153904D01*
X-153834Y116720D01*
X-153352Y115998D01*
X-152630Y115516D01*
X-152279Y115446D01*
Y117071D01*
D02*
G37*
G36*
X-180500Y119832D02*
X-181492Y119701D01*
X-182416Y119319D01*
X-183210Y118710D01*
X-183819Y117916D01*
X-184201Y116992D01*
X-184332Y116000D01*
X-184201Y115008D01*
X-183819Y114084D01*
X-183210Y113290D01*
X-182416Y112681D01*
X-181492Y112299D01*
X-180500Y112168D01*
X-179508Y112299D01*
X-178584Y112681D01*
X-177790Y113290D01*
X-177181Y114084D01*
X-176799Y115008D01*
X-176668Y116000D01*
X-176799Y116992D01*
X-177181Y117916D01*
X-177790Y118710D01*
X-178584Y119319D01*
X-179508Y119701D01*
X-180500Y119832D01*
D02*
G37*
G36*
X-116519Y115500D02*
X-120000D01*
Y112019D01*
X-119453Y112092D01*
X-118477Y112496D01*
X-117639Y113139D01*
X-116996Y113977D01*
X-116592Y114953D01*
X-116519Y115500D01*
D02*
G37*
G36*
X-96311Y114969D02*
X-96855Y114897D01*
X-97828Y114494D01*
X-98664Y113853D01*
X-99305Y113017D01*
X-99708Y112044D01*
X-99780Y111500D01*
X-96311D01*
Y114969D01*
D02*
G37*
G36*
X-95311D02*
Y111000D01*
Y107031D01*
X-94767Y107103D01*
X-93794Y107506D01*
X-92958Y108147D01*
X-92317Y108983D01*
X-92030Y109677D01*
X-91488D01*
X-91245Y109090D01*
X-90638Y108299D01*
X-89847Y107692D01*
X-88926Y107310D01*
X-87937Y107180D01*
X-86948Y107310D01*
X-86027Y107692D01*
X-85236Y108299D01*
X-84629Y109090D01*
X-84247Y110011D01*
X-83753D01*
X-83371Y109090D01*
X-82764Y108299D01*
X-81973Y107692D01*
X-81052Y107310D01*
X-80063Y107180D01*
X-79074Y107310D01*
X-78153Y107692D01*
X-77362Y108299D01*
X-76755Y109090D01*
X-76373Y110011D01*
X-75879D01*
X-75497Y109090D01*
X-74890Y108299D01*
X-74099Y107692D01*
X-73178Y107310D01*
X-72189Y107180D01*
X-71200Y107310D01*
X-70279Y107692D01*
X-69488Y108299D01*
X-68881Y109090D01*
X-68499Y110011D01*
X-68369Y111000D01*
X-68499Y111989D01*
X-68881Y112910D01*
X-69488Y113701D01*
X-70279Y114308D01*
X-71200Y114690D01*
X-72189Y114820D01*
X-73178Y114690D01*
X-74099Y114308D01*
X-74890Y113701D01*
X-75497Y112910D01*
X-75879Y111989D01*
X-76373D01*
X-76755Y112910D01*
X-77362Y113701D01*
X-78153Y114308D01*
X-79074Y114690D01*
X-80063Y114820D01*
X-81052Y114690D01*
X-81973Y114308D01*
X-82764Y113701D01*
X-83371Y112910D01*
X-83753Y111989D01*
X-84247D01*
X-84629Y112910D01*
X-85236Y113701D01*
X-86027Y114308D01*
X-86948Y114690D01*
X-87937Y114820D01*
X-88926Y114690D01*
X-89847Y114308D01*
X-90638Y113701D01*
X-91245Y112910D01*
X-91488Y112323D01*
X-92030D01*
X-92317Y113017D01*
X-92958Y113853D01*
X-93794Y114494D01*
X-94767Y114897D01*
X-95311Y114969D01*
D02*
G37*
G36*
X-96311Y110500D02*
X-99780D01*
X-99708Y109956D01*
X-99305Y108983D01*
X-98664Y108147D01*
X-97828Y107506D01*
X-96855Y107103D01*
X-96311Y107031D01*
Y110500D01*
D02*
G37*
G36*
X-36075Y108846D02*
X-38445D01*
Y105098D01*
X-36075D01*
Y108846D01*
D02*
G37*
G36*
X-39445D02*
X-41815D01*
Y105098D01*
X-39445D01*
Y108846D01*
D02*
G37*
G36*
X-180500Y109832D02*
X-181492Y109701D01*
X-182416Y109319D01*
X-183210Y108710D01*
X-183819Y107916D01*
X-184201Y106992D01*
X-184332Y106000D01*
X-184201Y105008D01*
X-183819Y104084D01*
X-183210Y103290D01*
X-182416Y102681D01*
X-181492Y102299D01*
X-180500Y102168D01*
X-179508Y102299D01*
X-178584Y102681D01*
X-177790Y103290D01*
X-177181Y104084D01*
X-176799Y105008D01*
X-176668Y106000D01*
X-176799Y106992D01*
X-177181Y107916D01*
X-177790Y108710D01*
X-178584Y109319D01*
X-179508Y109701D01*
X-180500Y109832D01*
D02*
G37*
G36*
X-36075Y104098D02*
X-38445D01*
Y100350D01*
X-36075D01*
Y104098D01*
D02*
G37*
G36*
X-39445D02*
X-41815D01*
Y100350D01*
X-39445D01*
Y104098D01*
D02*
G37*
G36*
X-62697Y100010D02*
Y98386D01*
X-61072D01*
X-61142Y98737D01*
X-61624Y99458D01*
X-62346Y99940D01*
X-62697Y100010D01*
D02*
G37*
G36*
X-63697D02*
X-64048Y99940D01*
X-64769Y99458D01*
X-65251Y98737D01*
X-65321Y98386D01*
X-63697D01*
Y100010D01*
D02*
G37*
G36*
X-102067D02*
Y98386D01*
X-100443D01*
X-100512Y98737D01*
X-100994Y99458D01*
X-101716Y99940D01*
X-102067Y100010D01*
D02*
G37*
G36*
X-103067D02*
X-103418Y99940D01*
X-104139Y99458D01*
X-104622Y98737D01*
X-104691Y98386D01*
X-103067D01*
Y100010D01*
D02*
G37*
G36*
X-180000Y99981D02*
Y96500D01*
X-176519D01*
X-176592Y97047D01*
X-176996Y98023D01*
X-177639Y98861D01*
X-178477Y99504D01*
X-179453Y99909D01*
X-180000Y99981D01*
D02*
G37*
G36*
X-181000D02*
X-181547Y99909D01*
X-182523Y99504D01*
X-183361Y98861D01*
X-184004Y98023D01*
X-184408Y97047D01*
X-184481Y96500D01*
X-181000D01*
Y99981D01*
D02*
G37*
G36*
X-61072Y97386D02*
X-62697D01*
Y95762D01*
X-62346Y95831D01*
X-61624Y96313D01*
X-61142Y97035D01*
X-61072Y97386D01*
D02*
G37*
G36*
X-63697D02*
X-65321D01*
X-65251Y97035D01*
X-64769Y96313D01*
X-64048Y95831D01*
X-63697Y95762D01*
Y97386D01*
D02*
G37*
G36*
X-100443D02*
X-102067D01*
Y95762D01*
X-101716Y95831D01*
X-100994Y96313D01*
X-100512Y97035D01*
X-100443Y97386D01*
D02*
G37*
G36*
X-103067D02*
X-104691D01*
X-104622Y97035D01*
X-104139Y96313D01*
X-103418Y95831D01*
X-103067Y95762D01*
Y97386D01*
D02*
G37*
G36*
X-33220Y98059D02*
X-37264D01*
Y95000D01*
X-33220D01*
Y98059D01*
D02*
G37*
G36*
X-38264D02*
X-42307D01*
Y95000D01*
X-38264D01*
Y98059D01*
D02*
G37*
G36*
X-73240Y136072D02*
X-105760D01*
X-106652Y135895D01*
X-107409Y135389D01*
X-114466Y128332D01*
X-116701D01*
Y129799D01*
X-124299D01*
Y125499D01*
X-127448Y122350D01*
X-127954Y121593D01*
X-128131Y120701D01*
Y101324D01*
X-127954Y100432D01*
X-127448Y99675D01*
X-124267Y96494D01*
X-124332Y96000D01*
X-124201Y95008D01*
X-123819Y94084D01*
X-123210Y93290D01*
X-122416Y92681D01*
X-121492Y92299D01*
X-120500Y92168D01*
X-119508Y92299D01*
X-118584Y92681D01*
X-117790Y93290D01*
X-117181Y94084D01*
X-116799Y95008D01*
X-116668Y96000D01*
X-116799Y96992D01*
X-117181Y97916D01*
X-117790Y98710D01*
X-118584Y99319D01*
X-119508Y99701D01*
X-120500Y99832D01*
X-120950Y99773D01*
X-123467Y102290D01*
Y102858D01*
X-122967Y103104D01*
X-122416Y102681D01*
X-121492Y102299D01*
X-120500Y102168D01*
X-119508Y102299D01*
X-118584Y102681D01*
X-117790Y103290D01*
X-117181Y104084D01*
X-116799Y105008D01*
X-116668Y106000D01*
X-116799Y106992D01*
X-117181Y107916D01*
X-117790Y108710D01*
X-118584Y109319D01*
X-119508Y109701D01*
X-120500Y109832D01*
X-121492Y109701D01*
X-122416Y109319D01*
X-122967Y108896D01*
X-123467Y109142D01*
Y112590D01*
X-122967Y112836D01*
X-122523Y112496D01*
X-121547Y112092D01*
X-121000Y112019D01*
Y116000D01*
Y119981D01*
X-121547Y119908D01*
X-122523Y119504D01*
X-122800Y119292D01*
X-123297Y119517D01*
X-123337Y119865D01*
X-121001Y122201D01*
X-116701D01*
Y123668D01*
X-113500D01*
X-112608Y123845D01*
X-111851Y124351D01*
X-104794Y131408D01*
X-101050D01*
X-100804Y130908D01*
X-101204Y130386D01*
X-101581Y129476D01*
X-101709Y128500D01*
X-101581Y127524D01*
X-101204Y126614D01*
X-100604Y125832D01*
X-99823Y125233D01*
X-98913Y124856D01*
X-97937Y124728D01*
X-96961Y124856D01*
X-96051Y125233D01*
X-95270Y125832D01*
X-94670Y126614D01*
X-94293Y127524D01*
X-94165Y128500D01*
X-94293Y129476D01*
X-94670Y130386D01*
X-95070Y130908D01*
X-94824Y131408D01*
X-91677D01*
Y124760D01*
X-84197D01*
Y131408D01*
X-74206D01*
X-59832Y117034D01*
Y112854D01*
X-59845Y112845D01*
X-60372Y112158D01*
X-60703Y111358D01*
X-60816Y110500D01*
Y105043D01*
X-60703Y104185D01*
X-60372Y103385D01*
X-60371Y103385D01*
Y95756D01*
X-60258Y94898D01*
X-59927Y94098D01*
X-59732Y93845D01*
X-59614Y93394D01*
D01*
X-59586Y93319D01*
X-59827Y92819D01*
X-59827D01*
Y90744D01*
X-57055D01*
X-54283D01*
Y92819D01*
X-54283D01*
X-54525Y93319D01*
X-54496Y93394D01*
D01*
X-54378Y93845D01*
X-54184Y94098D01*
X-53852Y94898D01*
X-53739Y95756D01*
Y104598D01*
X-53852Y105457D01*
X-54184Y106256D01*
X-54184Y106257D01*
Y110500D01*
X-54297Y111358D01*
X-54628Y112158D01*
X-55155Y112845D01*
X-55168Y112854D01*
Y118000D01*
X-55345Y118893D01*
X-55851Y119649D01*
X-71591Y135389D01*
X-72348Y135895D01*
X-73240Y136072D01*
D02*
G37*
G36*
X-33220Y94000D02*
X-37264D01*
Y90941D01*
X-33220D01*
Y94000D01*
D02*
G37*
G36*
X-38264D02*
X-42307D01*
Y90941D01*
X-38264D01*
Y94000D01*
D02*
G37*
G36*
X-96311Y94247D02*
X-96855Y94176D01*
X-97828Y93773D01*
X-98664Y93132D01*
X-99305Y92296D01*
X-99708Y91323D01*
X-99780Y90779D01*
X-96311D01*
Y94247D01*
D02*
G37*
G36*
X-54283Y89744D02*
X-56555D01*
Y87669D01*
X-54283D01*
Y89744D01*
D02*
G37*
G36*
X-57555D02*
X-59827D01*
Y87669D01*
X-57555D01*
Y89744D01*
D02*
G37*
G36*
X-39913Y89272D02*
X-41988D01*
Y87000D01*
X-39913D01*
Y89272D01*
D02*
G37*
G36*
X-42988D02*
X-45063D01*
Y87000D01*
X-42988D01*
Y89272D01*
D02*
G37*
G36*
X-96311Y89779D02*
X-99780D01*
X-99708Y89234D01*
X-99305Y88261D01*
X-98664Y87426D01*
X-97828Y86785D01*
X-96855Y86382D01*
X-96311Y86310D01*
Y89779D01*
D02*
G37*
G36*
X-24543Y103772D02*
X-25401Y103659D01*
X-26100Y103370D01*
X-28831D01*
Y97071D01*
X-27859D01*
Y92830D01*
X-30845Y89845D01*
X-31372Y89158D01*
X-31703Y88358D01*
X-31816Y87500D01*
X-31703Y86642D01*
X-31372Y85842D01*
X-30845Y85155D01*
X-30158Y84628D01*
X-29358Y84297D01*
X-28500Y84184D01*
X-27642Y84297D01*
X-26842Y84628D01*
X-26155Y85155D01*
X-22199Y89112D01*
X-21672Y89799D01*
X-21340Y90598D01*
X-21227Y91457D01*
Y97071D01*
X-20169D01*
Y103370D01*
X-22986D01*
X-23685Y103659D01*
X-24543Y103772D01*
D02*
G37*
G36*
X-157283Y108700D02*
X-159260Y108545D01*
X-161189Y108082D01*
X-163021Y107323D01*
X-164711Y106287D01*
X-166219Y104999D01*
X-167507Y103491D01*
X-168544Y101800D01*
X-169302Y99968D01*
X-169765Y98040D01*
X-169921Y96063D01*
X-169765Y94086D01*
X-169302Y92158D01*
X-168544Y90326D01*
X-167507Y88635D01*
X-166219Y87127D01*
X-164711Y85839D01*
X-163021Y84803D01*
X-161189Y84044D01*
X-159260Y83581D01*
X-157283Y83426D01*
X-155306Y83581D01*
X-153378Y84044D01*
X-151546Y84803D01*
X-149855Y85839D01*
X-148347Y87127D01*
X-147060Y88635D01*
X-146023Y90326D01*
X-145265Y92158D01*
X-144802Y94086D01*
X-144646Y96063D01*
X-144802Y98040D01*
X-145265Y99968D01*
X-146023Y101800D01*
X-147060Y103491D01*
X-148347Y104999D01*
X-149855Y106287D01*
X-151546Y107323D01*
X-153378Y108082D01*
X-155306Y108545D01*
X-157283Y108700D01*
D02*
G37*
G36*
X-42488Y86500D02*
D01*
Y86000D01*
X-45063D01*
Y83772D01*
X-45063Y83728D01*
Y83272D01*
X-45063Y83228D01*
Y81000D01*
X-42488D01*
X-39913D01*
Y83228D01*
X-39913Y83272D01*
Y83728D01*
X-39913Y83772D01*
Y86000D01*
X-42488D01*
Y86500D01*
D02*
G37*
G36*
X-129970Y77701D02*
X-131595D01*
Y76076D01*
X-131244Y76146D01*
X-130522Y76628D01*
X-130040Y77350D01*
X-129970Y77701D01*
D02*
G37*
G36*
X-132595D02*
X-134219D01*
X-134149Y77350D01*
X-133667Y76628D01*
X-132946Y76146D01*
X-132595Y76076D01*
Y77701D01*
D02*
G37*
G36*
X-39913Y80000D02*
X-42488D01*
X-45063D01*
Y77772D01*
X-45063Y77728D01*
Y77272D01*
X-45063Y77228D01*
Y75000D01*
X-42488D01*
X-39913D01*
Y77228D01*
X-39913Y77272D01*
Y77728D01*
X-39913Y77772D01*
Y80000D01*
D02*
G37*
G36*
X-95311Y94247D02*
Y90279D01*
Y86310D01*
X-94767Y86382D01*
X-93794Y86785D01*
X-92958Y87426D01*
X-92317Y88261D01*
X-92030Y88955D01*
X-91488D01*
X-91245Y88369D01*
X-90638Y87577D01*
X-89847Y86970D01*
X-88926Y86589D01*
X-87937Y86459D01*
X-86948Y86589D01*
X-86027Y86970D01*
X-85236Y87577D01*
X-84629Y88369D01*
X-84247Y89290D01*
X-83753D01*
X-83371Y88369D01*
X-82764Y87577D01*
X-81973Y86970D01*
X-81052Y86589D01*
X-80063Y86459D01*
X-79074Y86589D01*
X-78153Y86970D01*
X-77362Y87577D01*
X-76755Y88369D01*
X-76373Y89290D01*
X-75879D01*
X-75497Y88369D01*
X-74890Y87577D01*
X-74521Y87294D01*
Y76872D01*
X-74890Y76589D01*
X-75497Y75798D01*
X-75879Y74877D01*
X-76373D01*
X-76755Y75798D01*
X-77187Y76362D01*
Y81010D01*
X-77081Y81081D01*
X-76646Y81732D01*
X-76493Y82500D01*
X-76646Y83268D01*
X-77081Y83919D01*
X-77732Y84354D01*
X-78500Y84507D01*
X-79268Y84354D01*
X-79919Y83919D01*
X-80354Y83268D01*
X-80507Y82500D01*
X-80354Y81732D01*
X-79919Y81081D01*
X-79813Y81010D01*
Y77928D01*
X-80063Y77708D01*
X-81052Y77578D01*
X-81973Y77196D01*
X-82764Y76589D01*
X-83371Y75798D01*
X-83753Y74877D01*
X-84247D01*
X-84629Y75798D01*
X-85236Y76589D01*
X-86027Y77196D01*
X-86948Y77578D01*
X-87937Y77708D01*
X-88926Y77578D01*
X-89847Y77196D01*
X-90638Y76589D01*
X-91245Y75798D01*
X-91488Y75211D01*
X-92030D01*
X-92317Y75905D01*
X-92958Y76741D01*
X-93794Y77382D01*
X-94767Y77785D01*
X-95311Y77857D01*
Y73888D01*
Y69919D01*
X-94767Y69991D01*
X-93794Y70394D01*
X-92958Y71035D01*
X-92317Y71871D01*
X-92030Y72565D01*
X-91488D01*
X-91245Y71978D01*
X-90638Y71187D01*
X-89847Y70580D01*
X-88926Y70198D01*
X-87937Y70068D01*
X-86948Y70198D01*
X-86027Y70580D01*
X-85236Y71187D01*
X-84629Y71978D01*
X-84247Y72899D01*
X-83753D01*
X-83371Y71978D01*
X-82764Y71187D01*
X-81973Y70580D01*
X-81052Y70198D01*
X-80063Y70068D01*
X-79074Y70198D01*
X-78153Y70580D01*
X-77362Y71187D01*
X-76755Y71978D01*
X-76373Y72899D01*
X-75879D01*
X-75497Y71978D01*
X-74890Y71187D01*
X-74099Y70580D01*
X-73178Y70198D01*
X-72189Y70068D01*
X-71200Y70198D01*
X-70279Y70580D01*
X-69488Y71187D01*
X-68881Y71978D01*
X-68499Y72899D01*
X-68369Y73888D01*
X-68499Y74877D01*
X-68881Y75798D01*
X-69488Y76589D01*
X-69857Y76872D01*
Y87294D01*
X-69488Y87577D01*
X-68881Y88369D01*
X-68499Y89290D01*
X-68369Y90279D01*
X-68499Y91267D01*
X-68881Y92189D01*
X-69488Y92980D01*
X-70279Y93587D01*
X-71200Y93969D01*
X-72189Y94099D01*
X-73178Y93969D01*
X-74099Y93587D01*
X-74890Y92980D01*
X-75497Y92189D01*
X-75879Y91267D01*
X-76373D01*
X-76755Y92189D01*
X-77362Y92980D01*
X-78153Y93587D01*
X-79074Y93969D01*
X-80063Y94099D01*
X-81052Y93969D01*
X-81973Y93587D01*
X-82764Y92980D01*
X-83371Y92189D01*
X-83753Y91267D01*
X-84247D01*
X-84629Y92189D01*
X-85236Y92980D01*
X-86027Y93587D01*
X-86948Y93969D01*
X-87937Y94099D01*
X-88926Y93969D01*
X-89847Y93587D01*
X-90638Y92980D01*
X-91245Y92189D01*
X-91488Y91602D01*
X-92030D01*
X-92317Y92296D01*
X-92958Y93132D01*
X-93794Y93773D01*
X-94767Y94176D01*
X-95311Y94247D01*
D02*
G37*
G36*
X-96311Y77857D02*
X-96855Y77785D01*
X-97828Y77382D01*
X-98664Y76741D01*
X-99305Y75905D01*
X-99708Y74932D01*
X-99780Y74388D01*
X-96311D01*
Y77857D01*
D02*
G37*
G36*
X-169500Y75460D02*
X-170268Y75307D01*
X-170919Y74872D01*
X-171354Y74221D01*
X-171507Y73453D01*
X-171354Y72685D01*
X-170919Y72034D01*
X-170268Y71599D01*
X-169500Y71446D01*
X-168732Y71599D01*
X-168081Y72034D01*
X-168031Y72108D01*
X-164644D01*
Y71321D01*
X-157065D01*
Y75455D01*
X-164644D01*
Y74733D01*
X-167988D01*
X-168081Y74872D01*
X-168732Y75307D01*
X-169500Y75460D01*
D02*
G37*
G36*
X-133500Y71124D02*
X-133851Y71055D01*
X-134573Y70573D01*
X-134998Y69936D01*
X-135389Y69978D01*
X-135498Y70019D01*
Y70667D01*
X-139000D01*
Y68388D01*
Y66109D01*
X-135498D01*
Y67981D01*
X-135389Y68022D01*
X-134998Y68064D01*
X-134573Y67427D01*
X-133851Y66945D01*
X-133500Y66876D01*
Y69000D01*
Y71124D01*
D02*
G37*
G36*
X-96311Y73388D02*
X-99780D01*
X-99708Y72844D01*
X-99305Y71871D01*
X-98664Y71035D01*
X-97828Y70394D01*
X-96855Y69991D01*
X-96311Y69919D01*
Y73388D01*
D02*
G37*
G36*
X-132500Y71124D02*
Y69500D01*
X-130876D01*
X-130946Y69851D01*
X-131428Y70573D01*
X-132149Y71055D01*
X-132500Y71124D01*
D02*
G37*
G36*
X-140000Y70667D02*
X-143502D01*
Y68888D01*
X-140000D01*
Y70667D01*
D02*
G37*
G36*
X-130876Y68500D02*
X-132500D01*
Y66876D01*
X-132149Y66945D01*
X-131428Y67427D01*
X-130946Y68149D01*
X-130876Y68500D01*
D02*
G37*
G36*
X-157065Y70455D02*
X-164644D01*
Y66321D01*
X-157065D01*
Y70455D01*
D02*
G37*
G36*
X-140000Y67888D02*
X-143502D01*
Y66109D01*
X-140000D01*
Y67888D01*
D02*
G37*
G36*
X-45342Y108634D02*
X-50657D01*
Y100563D01*
X-50332D01*
Y97847D01*
X-52331D01*
Y91154D01*
X-50332D01*
Y89059D01*
X-50362D01*
Y83941D01*
X-50332D01*
Y83059D01*
X-50362D01*
Y77941D01*
X-50332D01*
Y77059D01*
X-50362D01*
Y71941D01*
X-50332D01*
Y71059D01*
X-50362D01*
Y65941D01*
X-45638D01*
Y71059D01*
X-45668D01*
Y71941D01*
X-45638D01*
Y77059D01*
X-45668D01*
Y77941D01*
X-45638D01*
Y83059D01*
X-45668D01*
Y83941D01*
X-45638D01*
Y89059D01*
X-45668D01*
Y91154D01*
X-43669D01*
Y97847D01*
X-45668D01*
Y100563D01*
X-45342D01*
Y108634D01*
D02*
G37*
G36*
X-42988Y68000D02*
X-45063D01*
Y65728D01*
X-42988D01*
Y68000D01*
D02*
G37*
G36*
X-153500Y65460D02*
X-154268Y65307D01*
X-154919Y64872D01*
X-155012Y64733D01*
X-157065D01*
Y65455D01*
X-164644D01*
Y61321D01*
X-157065D01*
Y62108D01*
X-154969D01*
X-154919Y62034D01*
X-154268Y61598D01*
X-153500Y61446D01*
X-152732Y61598D01*
X-152081Y62034D01*
X-151646Y62685D01*
X-151493Y63453D01*
X-151646Y64221D01*
X-152081Y64872D01*
X-152732Y65307D01*
X-153500Y65460D01*
D02*
G37*
G36*
X-180500Y69832D02*
X-181492Y69701D01*
X-182416Y69319D01*
X-183210Y68710D01*
X-183819Y67916D01*
X-184201Y66992D01*
X-184332Y66000D01*
X-184201Y65008D01*
X-183819Y64084D01*
X-183210Y63290D01*
X-182416Y62681D01*
X-181492Y62299D01*
X-180500Y62168D01*
X-179508Y62299D01*
X-178584Y62681D01*
X-177790Y63290D01*
X-177181Y64084D01*
X-176799Y65008D01*
X-176668Y66000D01*
X-176799Y66992D01*
X-177181Y67916D01*
X-177790Y68710D01*
X-178584Y69319D01*
X-179508Y69701D01*
X-180500Y69832D01*
D02*
G37*
G36*
X-43012Y60640D02*
Y59016D01*
X-41387D01*
X-41457Y59367D01*
X-41939Y60088D01*
X-42661Y60570D01*
X-43012Y60640D01*
D02*
G37*
G36*
X-44012D02*
X-44363Y60570D01*
X-45084Y60088D01*
X-45566Y59367D01*
X-45636Y59016D01*
X-44012D01*
Y60640D01*
D02*
G37*
G36*
X-62697D02*
Y59016D01*
X-61072D01*
X-61142Y59367D01*
X-61624Y60088D01*
X-62346Y60570D01*
X-62697Y60640D01*
D02*
G37*
G36*
X-63697D02*
X-64048Y60570D01*
X-64769Y60088D01*
X-65251Y59367D01*
X-65321Y59016D01*
X-63697D01*
Y60640D01*
D02*
G37*
G36*
X-41387Y58016D02*
X-43012D01*
Y56391D01*
X-42661Y56461D01*
X-41939Y56943D01*
X-41457Y57665D01*
X-41387Y58016D01*
D02*
G37*
G36*
X-44012D02*
X-45636D01*
X-45566Y57665D01*
X-45084Y56943D01*
X-44363Y56461D01*
X-44012Y56391D01*
Y58016D01*
D02*
G37*
G36*
X-61072D02*
X-62697D01*
Y56391D01*
X-62346Y56461D01*
X-61624Y56943D01*
X-61142Y57665D01*
X-61072Y58016D01*
D02*
G37*
G36*
X-63697D02*
X-65321D01*
X-65251Y57665D01*
X-64769Y56943D01*
X-64048Y56461D01*
X-63697Y56391D01*
Y58016D01*
D02*
G37*
G36*
X-157065Y60455D02*
X-164644D01*
Y56321D01*
X-157065D01*
Y60455D01*
D02*
G37*
G36*
X-82954Y58767D02*
X-99046D01*
X-99548Y58667D01*
X-99974Y58382D01*
X-103874Y54482D01*
X-104000Y54507D01*
X-104768Y54354D01*
X-105419Y53919D01*
X-105854Y53268D01*
X-106007Y52500D01*
X-105854Y51732D01*
X-105419Y51081D01*
X-104768Y50646D01*
X-104000Y50493D01*
X-103232Y50646D01*
X-102581Y51081D01*
X-102146Y51732D01*
X-101993Y52500D01*
X-102018Y52626D01*
X-100119Y54524D01*
X-99696Y54241D01*
X-99708Y54211D01*
X-99780Y53667D01*
X-95811D01*
Y53167D01*
X-95311D01*
Y49198D01*
X-94767Y49270D01*
X-93794Y49673D01*
X-92958Y50314D01*
X-92317Y51149D01*
X-92030Y51843D01*
X-91488D01*
X-91245Y51257D01*
X-90638Y50466D01*
X-89847Y49858D01*
X-89250Y49611D01*
Y44058D01*
X-89150Y43556D01*
X-88865Y43130D01*
X-85307Y39572D01*
X-84881Y39287D01*
X-84379Y39187D01*
X-75064D01*
X-74721Y38844D01*
X-74866Y38366D01*
X-74926Y38354D01*
X-74973Y38322D01*
X-93184D01*
X-93232Y38354D01*
X-94000Y38507D01*
X-94768Y38354D01*
X-95419Y37919D01*
X-95854Y37268D01*
X-96007Y36500D01*
X-95854Y35732D01*
X-95419Y35081D01*
X-94768Y34646D01*
X-94000Y34493D01*
X-93232Y34646D01*
X-93184Y34678D01*
X-74973D01*
X-74926Y34646D01*
X-74158Y34493D01*
X-73389Y34646D01*
X-73254Y34736D01*
X-72813Y34501D01*
Y30490D01*
X-72919Y30419D01*
X-73354Y29768D01*
X-73507Y29000D01*
X-73354Y28232D01*
X-72919Y27581D01*
X-72268Y27146D01*
X-71500Y26993D01*
X-70732Y27146D01*
X-70081Y27581D01*
X-69646Y28232D01*
X-69493Y29000D01*
X-69646Y29768D01*
X-70081Y30419D01*
X-70187Y30490D01*
Y37479D01*
X-70287Y37982D01*
X-70572Y38408D01*
X-73592Y41428D01*
X-74018Y41713D01*
X-74520Y41813D01*
X-83835D01*
X-86624Y44602D01*
Y49611D01*
X-86027Y49858D01*
X-85236Y50466D01*
X-84629Y51257D01*
X-84247Y52178D01*
X-83753D01*
X-83371Y51257D01*
X-82764Y50466D01*
X-81973Y49858D01*
X-81052Y49477D01*
X-80063Y49347D01*
X-79074Y49477D01*
X-78153Y49858D01*
X-77362Y50466D01*
X-76755Y51257D01*
X-76373Y52178D01*
X-75879D01*
X-75497Y51257D01*
X-74890Y50466D01*
X-74099Y49858D01*
X-73178Y49477D01*
X-72189Y49347D01*
X-71200Y49477D01*
X-70279Y49858D01*
X-69488Y50466D01*
X-68881Y51257D01*
X-68499Y52178D01*
X-68369Y53167D01*
X-68499Y54155D01*
X-68881Y55077D01*
X-69488Y55868D01*
X-70279Y56475D01*
X-71200Y56857D01*
X-72189Y56987D01*
X-73178Y56857D01*
X-74099Y56475D01*
X-74890Y55868D01*
X-75497Y55077D01*
X-75879Y54155D01*
X-76373D01*
X-76755Y55077D01*
X-77362Y55868D01*
X-78153Y56475D01*
X-79074Y56857D01*
X-80063Y56987D01*
X-80567Y56920D01*
X-80572Y56928D01*
X-82026Y58382D01*
X-82452Y58667D01*
X-82954Y58767D01*
D02*
G37*
G36*
X-96311Y52667D02*
X-99780D01*
X-99708Y52122D01*
X-99305Y51149D01*
X-98664Y50314D01*
X-97828Y49673D01*
X-96855Y49270D01*
X-96311Y49198D01*
Y52667D01*
D02*
G37*
G36*
X-52854Y40955D02*
Y39331D01*
X-51230D01*
X-51300Y39682D01*
X-51782Y40403D01*
X-52503Y40885D01*
X-52854Y40955D01*
D02*
G37*
G36*
X-53854D02*
X-54205Y40885D01*
X-54927Y40403D01*
X-55409Y39682D01*
X-55479Y39331D01*
X-53854D01*
Y40955D01*
D02*
G37*
G36*
X-51230Y38331D02*
X-52854D01*
Y36706D01*
X-52503Y36776D01*
X-51782Y37258D01*
X-51300Y37980D01*
X-51230Y38331D01*
D02*
G37*
G36*
X-53854D02*
X-55479D01*
X-55409Y37980D01*
X-54927Y37258D01*
X-54205Y36776D01*
X-53854Y36706D01*
Y38331D01*
D02*
G37*
G36*
X-120500Y29832D02*
X-121492Y29701D01*
X-122416Y29319D01*
X-123210Y28710D01*
X-123819Y27916D01*
X-124201Y26992D01*
X-124332Y26000D01*
X-124201Y25008D01*
X-123819Y24084D01*
X-123210Y23290D01*
X-122416Y22681D01*
X-121492Y22299D01*
X-120500Y22168D01*
X-119508Y22299D01*
X-118584Y22681D01*
X-117790Y23290D01*
X-117181Y24084D01*
X-116799Y25008D01*
X-116668Y26000D01*
X-116799Y26992D01*
X-117181Y27916D01*
X-117790Y28710D01*
X-118584Y29319D01*
X-119508Y29701D01*
X-120500Y29832D01*
D02*
G37*
G36*
X104626Y119695D02*
Y118071D01*
X106250D01*
X106181Y118422D01*
X105699Y119143D01*
X104977Y119625D01*
X104626Y119695D01*
D02*
G37*
G36*
X103626D02*
X103275Y119625D01*
X102553Y119143D01*
X102071Y118422D01*
X102002Y118071D01*
X103626D01*
Y119695D01*
D02*
G37*
G36*
X106250Y117071D02*
X104626D01*
Y115446D01*
X104977Y115516D01*
X105699Y115998D01*
X106181Y116720D01*
X106250Y117071D01*
D02*
G37*
G36*
X103626D02*
X102002D01*
X102071Y116720D01*
X102553Y115998D01*
X103275Y115516D01*
X103626Y115446D01*
Y117071D01*
D02*
G37*
G36*
X95764Y116075D02*
X94279D01*
Y114000D01*
X95764D01*
Y116075D01*
D02*
G37*
G36*
Y113000D02*
X94279D01*
Y110925D01*
X95764D01*
Y113000D01*
D02*
G37*
G36*
X163681Y119695D02*
Y118071D01*
X165305D01*
X165236Y118422D01*
X164754Y119143D01*
X164032Y119625D01*
X163681Y119695D01*
D02*
G37*
G36*
X162681D02*
X162330Y119625D01*
X161609Y119143D01*
X161127Y118422D01*
X161057Y118071D01*
X162681D01*
Y119695D01*
D02*
G37*
G36*
X168000Y118075D02*
X166516D01*
Y116000D01*
X168000D01*
Y118075D01*
D02*
G37*
G36*
X165305Y117071D02*
X163681D01*
Y115446D01*
X164032Y115516D01*
X164754Y115998D01*
X165236Y116720D01*
X165305Y117071D01*
D02*
G37*
G36*
X162681D02*
X161057D01*
X161127Y116720D01*
X161609Y115998D01*
X162330Y115516D01*
X162681Y115446D01*
Y117071D01*
D02*
G37*
G36*
X168000Y115000D02*
X166516D01*
Y112925D01*
X168000D01*
Y115000D01*
D02*
G37*
G36*
X55413Y139380D02*
Y137756D01*
X57038D01*
X56968Y138107D01*
X56486Y138828D01*
X55764Y139311D01*
X55413Y139380D01*
D02*
G37*
G36*
X54413D02*
X54062Y139311D01*
X53341Y138828D01*
X52859Y138107D01*
X52789Y137756D01*
X54413D01*
Y139380D01*
D02*
G37*
G36*
X57038Y136756D02*
X55413D01*
Y135132D01*
X55764Y135201D01*
X56486Y135683D01*
X56968Y136405D01*
X57038Y136756D01*
D02*
G37*
G36*
X54413D02*
X52789D01*
X52859Y136405D01*
X53341Y135683D01*
X54062Y135201D01*
X54413Y135132D01*
Y136756D01*
D02*
G37*
G36*
X45571Y119695D02*
Y118071D01*
X47195D01*
X47125Y118422D01*
X46643Y119143D01*
X45922Y119625D01*
X45571Y119695D01*
D02*
G37*
G36*
X44571D02*
X44220Y119625D01*
X43498Y119143D01*
X43016Y118422D01*
X42946Y118071D01*
X44571D01*
Y119695D01*
D02*
G37*
G36*
X66880Y117071D02*
X65256D01*
Y115446D01*
X65607Y115516D01*
X66328Y115998D01*
X66811Y116720D01*
X66880Y117071D01*
D02*
G37*
G36*
X64256D02*
X62632D01*
X62701Y116720D01*
X63183Y115998D01*
X63905Y115516D01*
X64256Y115446D01*
Y117071D01*
D02*
G37*
G36*
X47195D02*
X45571D01*
Y115446D01*
X45922Y115516D01*
X46643Y115998D01*
X47125Y116720D01*
X47195Y117071D01*
D02*
G37*
G36*
X44571D02*
X42946D01*
X43016Y116720D01*
X43498Y115998D01*
X44220Y115516D01*
X44571Y115446D01*
Y117071D01*
D02*
G37*
G36*
X-170965Y40955D02*
Y39331D01*
X-169340D01*
X-169410Y39682D01*
X-169892Y40403D01*
X-170614Y40885D01*
X-170965Y40955D01*
D02*
G37*
G36*
X-171965D02*
X-172316Y40885D01*
X-173037Y40403D01*
X-173519Y39682D01*
X-173589Y39331D01*
X-171965D01*
Y40955D01*
D02*
G37*
G36*
X-169340Y38331D02*
X-170965D01*
Y36706D01*
X-170614Y36776D01*
X-169892Y37258D01*
X-169410Y37980D01*
X-169340Y38331D01*
D02*
G37*
G36*
X-171965D02*
X-173589D01*
X-173519Y37980D01*
X-173037Y37258D01*
X-172316Y36776D01*
X-171965Y36706D01*
Y38331D01*
D02*
G37*
G36*
X-141437Y21270D02*
Y19646D01*
X-139813D01*
X-139882Y19997D01*
X-140365Y20718D01*
X-141086Y21200D01*
X-141437Y21270D01*
D02*
G37*
G36*
X-142437D02*
X-142788Y21200D01*
X-143509Y20718D01*
X-143992Y19997D01*
X-144061Y19646D01*
X-142437D01*
Y21270D01*
D02*
G37*
G36*
X-161122D02*
Y19646D01*
X-159498D01*
X-159567Y19997D01*
X-160049Y20718D01*
X-160771Y21200D01*
X-161122Y21270D01*
D02*
G37*
G36*
X-162122D02*
X-162473Y21200D01*
X-163195Y20718D01*
X-163677Y19997D01*
X-163746Y19646D01*
X-162122D01*
Y21270D01*
D02*
G37*
G36*
X-139813Y18646D02*
X-141437D01*
Y17021D01*
X-141086Y17091D01*
X-140365Y17573D01*
X-139882Y18295D01*
X-139813Y18646D01*
D02*
G37*
G36*
X-142437D02*
X-144061D01*
X-143992Y18295D01*
X-143509Y17573D01*
X-142788Y17091D01*
X-142437Y17021D01*
Y18646D01*
D02*
G37*
G36*
X-159498D02*
X-161122D01*
Y17021D01*
X-160771Y17091D01*
X-160049Y17573D01*
X-159567Y18295D01*
X-159498Y18646D01*
D02*
G37*
G36*
X-162122D02*
X-163746D01*
X-163677Y18295D01*
X-163195Y17573D01*
X-162473Y17091D01*
X-162122Y17021D01*
Y18646D01*
D02*
G37*
G36*
X-151279Y1585D02*
Y-39D01*
X-149655D01*
X-149725Y312D01*
X-150207Y1033D01*
X-150928Y1515D01*
X-151279Y1585D01*
D02*
G37*
G36*
X-152279D02*
X-152630Y1515D01*
X-153352Y1033D01*
X-153834Y312D01*
X-153904Y-39D01*
X-152279D01*
Y1585D01*
D02*
G37*
G36*
X-170965D02*
Y-39D01*
X-169340D01*
X-169410Y312D01*
X-169892Y1033D01*
X-170614Y1515D01*
X-170965Y1585D01*
D02*
G37*
G36*
X-171965D02*
X-172316Y1515D01*
X-173037Y1033D01*
X-173519Y312D01*
X-173589Y-39D01*
X-171965D01*
Y1585D01*
D02*
G37*
G36*
X-87240Y1086D02*
X-88008Y933D01*
X-88659Y498D01*
X-89094Y-153D01*
X-89106Y-209D01*
X-91074Y-2178D01*
X-105728D01*
Y-1638D01*
X-112272D01*
Y-2687D01*
X-116931D01*
X-117181Y-2084D01*
X-117790Y-1290D01*
X-118584Y-681D01*
X-119508Y-299D01*
X-120500Y-168D01*
X-121492Y-299D01*
X-122416Y-681D01*
X-123210Y-1290D01*
X-123819Y-2084D01*
X-124201Y-3008D01*
X-124332Y-4000D01*
X-124201Y-4992D01*
X-123819Y-5916D01*
X-123210Y-6710D01*
X-122416Y-7319D01*
X-121492Y-7701D01*
X-120500Y-7832D01*
X-119508Y-7701D01*
X-118584Y-7319D01*
X-117790Y-6710D01*
X-117181Y-5916D01*
X-116931Y-5313D01*
X-112272D01*
Y-6362D01*
X-109322D01*
Y-15745D01*
X-121255Y-27678D01*
X-151000D01*
X-151697Y-27816D01*
X-152289Y-28211D01*
X-152289Y-28211D01*
X-172924Y-48846D01*
X-173011Y-48810D01*
X-174000Y-48680D01*
X-174989Y-48810D01*
X-175910Y-49192D01*
X-176701Y-49799D01*
X-177308Y-50590D01*
X-177690Y-51511D01*
X-177820Y-52500D01*
X-177690Y-53489D01*
X-177308Y-54410D01*
X-176701Y-55201D01*
X-175910Y-55808D01*
X-174989Y-56190D01*
X-174000Y-56320D01*
X-173011Y-56190D01*
X-172090Y-55808D01*
X-171299Y-55201D01*
X-170692Y-54410D01*
X-170310Y-53489D01*
X-170180Y-52500D01*
X-170310Y-51511D01*
X-170346Y-51424D01*
X-150245Y-31322D01*
X-120500D01*
X-120500Y-31322D01*
X-119803Y-31184D01*
X-119211Y-30789D01*
X-106211Y-17789D01*
X-106211Y-17789D01*
X-105816Y-17197D01*
X-105678Y-16500D01*
X-105678Y-16500D01*
Y-5822D01*
X-90319D01*
X-90319Y-5822D01*
X-89622Y-5684D01*
X-89030Y-5289D01*
X-86528Y-2787D01*
X-86472Y-2776D01*
X-85821Y-2341D01*
X-85386Y-1689D01*
X-85233Y-921D01*
X-85386Y-153D01*
X-85821Y498D01*
X-86472Y933D01*
X-87240Y1086D01*
D02*
G37*
G36*
X-149655Y-1039D02*
X-151279D01*
Y-2664D01*
X-150928Y-2594D01*
X-150207Y-2112D01*
X-149725Y-1390D01*
X-149655Y-1039D01*
D02*
G37*
G36*
X-152279D02*
X-153904D01*
X-153834Y-1390D01*
X-153352Y-2112D01*
X-152630Y-2594D01*
X-152279Y-2664D01*
Y-1039D01*
D02*
G37*
G36*
X-169340D02*
X-170965D01*
Y-2664D01*
X-170614Y-2594D01*
X-169892Y-2112D01*
X-169410Y-1390D01*
X-169340Y-1039D01*
D02*
G37*
G36*
X-171965D02*
X-173589D01*
X-173519Y-1390D01*
X-173037Y-2112D01*
X-172316Y-2594D01*
X-171965Y-2664D01*
Y-1039D01*
D02*
G37*
G36*
X-42500Y4007D02*
X-43268Y3854D01*
X-43919Y3419D01*
X-44354Y2768D01*
X-44366Y2712D01*
X-50971Y-3894D01*
X-67185D01*
Y3929D01*
X-77815D01*
Y-15362D01*
X-67185D01*
Y-7539D01*
X-50217D01*
X-50217Y-7539D01*
X-49519Y-7400D01*
X-48928Y-7005D01*
X-41788Y134D01*
X-41732Y146D01*
X-41081Y581D01*
X-40646Y1232D01*
X-40493Y2000D01*
X-40646Y2768D01*
X-41081Y3419D01*
X-41732Y3854D01*
X-42500Y4007D01*
D02*
G37*
G36*
X-120500Y-10168D02*
X-121492Y-10299D01*
X-122416Y-10681D01*
X-123210Y-11290D01*
X-123819Y-12084D01*
X-124201Y-13008D01*
X-124332Y-14000D01*
X-124201Y-14992D01*
X-123819Y-15916D01*
X-123210Y-16710D01*
X-122416Y-17319D01*
X-121768Y-17587D01*
X-121914Y-18068D01*
X-122252Y-18001D01*
X-123103Y-18170D01*
X-123825Y-18652D01*
X-124306Y-19373D01*
X-124376Y-19724D01*
X-120128D01*
X-120197Y-19373D01*
X-120679Y-18652D01*
X-121312Y-18229D01*
X-121185Y-17742D01*
X-120500Y-17832D01*
X-119508Y-17701D01*
X-118584Y-17319D01*
X-117790Y-16710D01*
X-117181Y-15916D01*
X-116799Y-14992D01*
X-116668Y-14000D01*
X-116799Y-13008D01*
X-117181Y-12084D01*
X-117790Y-11290D01*
X-118584Y-10681D01*
X-119508Y-10299D01*
X-120500Y-10168D01*
D02*
G37*
G36*
X-43012Y-18100D02*
Y-19724D01*
X-41387D01*
X-41457Y-19373D01*
X-41939Y-18652D01*
X-42661Y-18170D01*
X-43012Y-18100D01*
D02*
G37*
G36*
X-44012D02*
X-44363Y-18170D01*
X-45084Y-18652D01*
X-45566Y-19373D01*
X-45636Y-19724D01*
X-44012D01*
Y-18100D01*
D02*
G37*
G36*
X-62697D02*
Y-19724D01*
X-61072D01*
X-61142Y-19373D01*
X-61624Y-18652D01*
X-62346Y-18170D01*
X-62697Y-18100D01*
D02*
G37*
G36*
X-63697D02*
X-64048Y-18170D01*
X-64769Y-18652D01*
X-65251Y-19373D01*
X-65321Y-19724D01*
X-63697D01*
Y-18100D01*
D02*
G37*
G36*
X-82382D02*
Y-19724D01*
X-80757D01*
X-80827Y-19373D01*
X-81309Y-18652D01*
X-82031Y-18170D01*
X-82382Y-18100D01*
D02*
G37*
G36*
X-83382D02*
X-83733Y-18170D01*
X-84454Y-18652D01*
X-84936Y-19373D01*
X-85006Y-19724D01*
X-83382D01*
Y-18100D01*
D02*
G37*
G36*
X-102067D02*
Y-19724D01*
X-100443D01*
X-100512Y-19373D01*
X-100994Y-18652D01*
X-101716Y-18170D01*
X-102067Y-18100D01*
D02*
G37*
G36*
X-103067D02*
X-103418Y-18170D01*
X-104139Y-18652D01*
X-104622Y-19373D01*
X-104691Y-19724D01*
X-103067D01*
Y-18100D01*
D02*
G37*
G36*
X-141437D02*
Y-19724D01*
X-139813D01*
X-139882Y-19373D01*
X-140365Y-18652D01*
X-141086Y-18170D01*
X-141437Y-18100D01*
D02*
G37*
G36*
X-142437D02*
X-142788Y-18170D01*
X-143509Y-18652D01*
X-143992Y-19373D01*
X-144061Y-19724D01*
X-142437D01*
Y-18100D01*
D02*
G37*
G36*
X-161122D02*
Y-19724D01*
X-159498D01*
X-159567Y-19373D01*
X-160049Y-18652D01*
X-160771Y-18170D01*
X-161122Y-18100D01*
D02*
G37*
G36*
X-162122D02*
X-162473Y-18170D01*
X-163195Y-18652D01*
X-163677Y-19373D01*
X-163746Y-19724D01*
X-162122D01*
Y-18100D01*
D02*
G37*
G36*
X-41387Y-20724D02*
X-43012D01*
Y-22349D01*
X-42661Y-22279D01*
X-41939Y-21797D01*
X-41457Y-21075D01*
X-41387Y-20724D01*
D02*
G37*
G36*
X-44012D02*
X-45636D01*
X-45566Y-21075D01*
X-45084Y-21797D01*
X-44363Y-22279D01*
X-44012Y-22349D01*
Y-20724D01*
D02*
G37*
G36*
X-61072D02*
X-62697D01*
Y-22349D01*
X-62346Y-22279D01*
X-61624Y-21797D01*
X-61142Y-21075D01*
X-61072Y-20724D01*
D02*
G37*
G36*
X-63697D02*
X-65321D01*
X-65251Y-21075D01*
X-64769Y-21797D01*
X-64048Y-22279D01*
X-63697Y-22349D01*
Y-20724D01*
D02*
G37*
G36*
X-80757D02*
X-82382D01*
Y-22349D01*
X-82031Y-22279D01*
X-81309Y-21797D01*
X-80827Y-21075D01*
X-80757Y-20724D01*
D02*
G37*
G36*
X-83382D02*
X-85006D01*
X-84936Y-21075D01*
X-84454Y-21797D01*
X-83733Y-22279D01*
X-83382Y-22349D01*
Y-20724D01*
D02*
G37*
G36*
X-100443D02*
X-102067D01*
Y-22349D01*
X-101716Y-22279D01*
X-100994Y-21797D01*
X-100512Y-21075D01*
X-100443Y-20724D01*
D02*
G37*
G36*
X-103067D02*
X-104691D01*
X-104622Y-21075D01*
X-104139Y-21797D01*
X-103418Y-22279D01*
X-103067Y-22349D01*
Y-20724D01*
D02*
G37*
G36*
X-120128D02*
X-121752D01*
Y-22349D01*
X-121401Y-22279D01*
X-120679Y-21797D01*
X-120197Y-21075D01*
X-120128Y-20724D01*
D02*
G37*
G36*
X-122752D02*
X-124376D01*
X-124306Y-21075D01*
X-123825Y-21797D01*
X-123103Y-22279D01*
X-122752Y-22349D01*
Y-20724D01*
D02*
G37*
G36*
X-139813D02*
X-141437D01*
Y-22349D01*
X-141086Y-22279D01*
X-140365Y-21797D01*
X-139882Y-21075D01*
X-139813Y-20724D01*
D02*
G37*
G36*
X-142437D02*
X-144061D01*
X-143992Y-21075D01*
X-143509Y-21797D01*
X-142788Y-22279D01*
X-142437Y-22349D01*
Y-20724D01*
D02*
G37*
G36*
X-159498D02*
X-161122D01*
Y-22349D01*
X-160771Y-22279D01*
X-160049Y-21797D01*
X-159567Y-21075D01*
X-159498Y-20724D01*
D02*
G37*
G36*
X-162122D02*
X-163746D01*
X-163677Y-21075D01*
X-163195Y-21797D01*
X-162473Y-22279D01*
X-162122Y-22349D01*
Y-20724D01*
D02*
G37*
G36*
X-72500Y-18570D02*
X-73733Y-18732D01*
X-74883Y-19208D01*
X-75870Y-19965D01*
X-76627Y-20952D01*
X-77103Y-22101D01*
X-77265Y-23335D01*
X-77103Y-24568D01*
X-76627Y-25717D01*
X-75870Y-26704D01*
X-74883Y-27461D01*
X-73733Y-27937D01*
X-72500Y-28100D01*
X-71267Y-27937D01*
X-70117Y-27461D01*
X-69130Y-26704D01*
X-68373Y-25717D01*
X-67897Y-24568D01*
X-67735Y-23335D01*
X-67897Y-22101D01*
X-68373Y-20952D01*
X-69130Y-19965D01*
X-70117Y-19208D01*
X-71267Y-18732D01*
X-72500Y-18570D01*
D02*
G37*
G36*
X-52854Y-37785D02*
Y-39409D01*
X-51230D01*
X-51300Y-39058D01*
X-51782Y-38337D01*
X-52503Y-37855D01*
X-52854Y-37785D01*
D02*
G37*
G36*
X-53854D02*
X-54205Y-37855D01*
X-54927Y-38337D01*
X-55409Y-39058D01*
X-55479Y-39409D01*
X-53854D01*
Y-37785D01*
D02*
G37*
G36*
X-72539D02*
Y-39409D01*
X-70915D01*
X-70985Y-39058D01*
X-71467Y-38337D01*
X-72188Y-37855D01*
X-72539Y-37785D01*
D02*
G37*
G36*
X-73539D02*
X-73890Y-37855D01*
X-74612Y-38337D01*
X-75094Y-39058D01*
X-75164Y-39409D01*
X-73539D01*
Y-37785D01*
D02*
G37*
G36*
X-92224D02*
Y-39409D01*
X-90600D01*
X-90670Y-39058D01*
X-91152Y-38337D01*
X-91873Y-37855D01*
X-92224Y-37785D01*
D02*
G37*
G36*
X-93224D02*
X-93575Y-37855D01*
X-94297Y-38337D01*
X-94779Y-39058D01*
X-94849Y-39409D01*
X-93224D01*
Y-37785D01*
D02*
G37*
G36*
X-111909D02*
Y-39409D01*
X-110285D01*
X-110355Y-39058D01*
X-110837Y-38337D01*
X-111558Y-37855D01*
X-111909Y-37785D01*
D02*
G37*
G36*
X-112909D02*
X-113260Y-37855D01*
X-113982Y-38337D01*
X-114464Y-39058D01*
X-114534Y-39409D01*
X-112909D01*
Y-37785D01*
D02*
G37*
G36*
X-131595D02*
Y-39409D01*
X-129970D01*
X-130040Y-39058D01*
X-130522Y-38337D01*
X-131244Y-37855D01*
X-131595Y-37785D01*
D02*
G37*
G36*
X-132595D02*
X-132946Y-37855D01*
X-133667Y-38337D01*
X-134149Y-39058D01*
X-134219Y-39409D01*
X-132595D01*
Y-37785D01*
D02*
G37*
G36*
X-51230Y-40409D02*
X-52854D01*
Y-42034D01*
X-52503Y-41964D01*
X-51782Y-41482D01*
X-51300Y-40760D01*
X-51230Y-40409D01*
D02*
G37*
G36*
X-53854D02*
X-55479D01*
X-55409Y-40760D01*
X-54927Y-41482D01*
X-54205Y-41964D01*
X-53854Y-42034D01*
Y-40409D01*
D02*
G37*
G36*
X-70915D02*
X-72539D01*
Y-42034D01*
X-72188Y-41964D01*
X-71467Y-41482D01*
X-70985Y-40760D01*
X-70915Y-40409D01*
D02*
G37*
G36*
X-73539D02*
X-75164D01*
X-75094Y-40760D01*
X-74612Y-41482D01*
X-73890Y-41964D01*
X-73539Y-42034D01*
Y-40409D01*
D02*
G37*
G36*
X-90600D02*
X-92224D01*
Y-42034D01*
X-91873Y-41964D01*
X-91152Y-41482D01*
X-90670Y-40760D01*
X-90600Y-40409D01*
D02*
G37*
G36*
X-93224D02*
X-94849D01*
X-94779Y-40760D01*
X-94297Y-41482D01*
X-93575Y-41964D01*
X-93224Y-42034D01*
Y-40409D01*
D02*
G37*
G36*
X-110285D02*
X-111909D01*
Y-42034D01*
X-111558Y-41964D01*
X-110837Y-41482D01*
X-110355Y-40760D01*
X-110285Y-40409D01*
D02*
G37*
G36*
X-112909D02*
X-114534D01*
X-114464Y-40760D01*
X-113982Y-41482D01*
X-113260Y-41964D01*
X-112909Y-42034D01*
Y-40409D01*
D02*
G37*
G36*
X-129970D02*
X-131595D01*
Y-42034D01*
X-131244Y-41964D01*
X-130522Y-41482D01*
X-130040Y-40760D01*
X-129970Y-40409D01*
D02*
G37*
G36*
X-132595D02*
X-134219D01*
X-134149Y-40760D01*
X-133667Y-41482D01*
X-132946Y-41964D01*
X-132595Y-42034D01*
Y-40409D01*
D02*
G37*
G36*
X-163500Y-48531D02*
Y-52000D01*
X-160031D01*
X-160103Y-51456D01*
X-160506Y-50483D01*
X-161147Y-49647D01*
X-161983Y-49006D01*
X-162956Y-48603D01*
X-163500Y-48531D01*
D02*
G37*
G36*
X-164500D02*
X-165044Y-48603D01*
X-166017Y-49006D01*
X-166853Y-49647D01*
X-167494Y-50483D01*
X-167897Y-51456D01*
X-167969Y-52000D01*
X-164500D01*
Y-48531D01*
D02*
G37*
G36*
X-124000Y-48680D02*
X-124989Y-48810D01*
X-125910Y-49192D01*
X-126701Y-49799D01*
X-127308Y-50590D01*
X-127690Y-51511D01*
X-127820Y-52500D01*
X-127690Y-53489D01*
X-127308Y-54410D01*
X-126701Y-55201D01*
X-125910Y-55808D01*
X-124989Y-56190D01*
X-124000Y-56320D01*
X-123011Y-56190D01*
X-122090Y-55808D01*
X-121299Y-55201D01*
X-120692Y-54410D01*
X-120310Y-53489D01*
X-120180Y-52500D01*
X-120310Y-51511D01*
X-120692Y-50590D01*
X-121299Y-49799D01*
X-122090Y-49192D01*
X-123011Y-48810D01*
X-124000Y-48680D01*
D02*
G37*
G36*
X-134000D02*
X-134989Y-48810D01*
X-135910Y-49192D01*
X-136701Y-49799D01*
X-137308Y-50590D01*
X-137690Y-51511D01*
X-137820Y-52500D01*
X-137690Y-53489D01*
X-137308Y-54410D01*
X-136701Y-55201D01*
X-135910Y-55808D01*
X-134989Y-56190D01*
X-134000Y-56320D01*
X-133011Y-56190D01*
X-132090Y-55808D01*
X-131299Y-55201D01*
X-130692Y-54410D01*
X-130310Y-53489D01*
X-130180Y-52500D01*
X-130310Y-51511D01*
X-130692Y-50590D01*
X-131299Y-49799D01*
X-132090Y-49192D01*
X-133011Y-48810D01*
X-134000Y-48680D01*
D02*
G37*
G36*
X-144000D02*
X-144989Y-48810D01*
X-145910Y-49192D01*
X-146701Y-49799D01*
X-147308Y-50590D01*
X-147690Y-51511D01*
X-147820Y-52500D01*
X-147690Y-53489D01*
X-147308Y-54410D01*
X-146701Y-55201D01*
X-145910Y-55808D01*
X-144989Y-56190D01*
X-144000Y-56320D01*
X-143011Y-56190D01*
X-142090Y-55808D01*
X-141299Y-55201D01*
X-140692Y-54410D01*
X-140310Y-53489D01*
X-140180Y-52500D01*
X-140310Y-51511D01*
X-140692Y-50590D01*
X-141299Y-49799D01*
X-142090Y-49192D01*
X-143011Y-48810D01*
X-144000Y-48680D01*
D02*
G37*
G36*
X-154000D02*
X-154989Y-48810D01*
X-155910Y-49192D01*
X-156701Y-49799D01*
X-157308Y-50590D01*
X-157690Y-51511D01*
X-157820Y-52500D01*
X-157690Y-53489D01*
X-157308Y-54410D01*
X-156701Y-55201D01*
X-155910Y-55808D01*
X-154989Y-56190D01*
X-154000Y-56320D01*
X-153011Y-56190D01*
X-152090Y-55808D01*
X-151299Y-55201D01*
X-150692Y-54410D01*
X-150310Y-53489D01*
X-150180Y-52500D01*
X-150310Y-51511D01*
X-150692Y-50590D01*
X-151299Y-49799D01*
X-152090Y-49192D01*
X-153011Y-48810D01*
X-154000Y-48680D01*
D02*
G37*
G36*
X-160031Y-53000D02*
X-163500D01*
Y-56469D01*
X-162956Y-56397D01*
X-161983Y-55994D01*
X-161147Y-55353D01*
X-160506Y-54517D01*
X-160103Y-53544D01*
X-160031Y-53000D01*
D02*
G37*
G36*
X-164500D02*
X-167969D01*
X-167897Y-53544D01*
X-167494Y-54517D01*
X-166853Y-55353D01*
X-166017Y-55994D01*
X-165044Y-56397D01*
X-164500Y-56469D01*
Y-53000D01*
D02*
G37*
G36*
X-72500Y-48694D02*
X-73528Y-48830D01*
X-74485Y-49226D01*
X-75308Y-49858D01*
X-75939Y-50680D01*
X-76336Y-51638D01*
X-76471Y-52665D01*
X-76336Y-53693D01*
X-75939Y-54651D01*
X-75308Y-55473D01*
X-74485Y-56104D01*
X-73528Y-56501D01*
X-72500Y-56636D01*
X-71472Y-56501D01*
X-70515Y-56104D01*
X-69692Y-55473D01*
X-69061Y-54651D01*
X-68664Y-53693D01*
X-68529Y-52665D01*
X-68664Y-51638D01*
X-69061Y-50680D01*
X-69692Y-49858D01*
X-70515Y-49226D01*
X-71472Y-48830D01*
X-72500Y-48694D01*
D02*
G37*
G36*
X-43012Y-57470D02*
Y-59095D01*
X-41387D01*
X-41457Y-58744D01*
X-41939Y-58022D01*
X-42661Y-57540D01*
X-43012Y-57470D01*
D02*
G37*
G36*
X-44012D02*
X-44363Y-57540D01*
X-45084Y-58022D01*
X-45566Y-58744D01*
X-45636Y-59095D01*
X-44012D01*
Y-57470D01*
D02*
G37*
G36*
X-62697D02*
Y-59095D01*
X-61072D01*
X-61142Y-58744D01*
X-61624Y-58022D01*
X-62346Y-57540D01*
X-62697Y-57470D01*
D02*
G37*
G36*
X-63697D02*
X-64048Y-57540D01*
X-64769Y-58022D01*
X-65251Y-58744D01*
X-65321Y-59095D01*
X-63697D01*
Y-57470D01*
D02*
G37*
G36*
X-82382D02*
Y-59095D01*
X-80757D01*
X-80827Y-58744D01*
X-81309Y-58022D01*
X-82031Y-57540D01*
X-82382Y-57470D01*
D02*
G37*
G36*
X-83382D02*
X-83733Y-57540D01*
X-84454Y-58022D01*
X-84936Y-58744D01*
X-85006Y-59095D01*
X-83382D01*
Y-57470D01*
D02*
G37*
G36*
X-102067D02*
Y-59095D01*
X-100443D01*
X-100512Y-58744D01*
X-100994Y-58022D01*
X-101716Y-57540D01*
X-102067Y-57470D01*
D02*
G37*
G36*
X-103067D02*
X-103418Y-57540D01*
X-104139Y-58022D01*
X-104622Y-58744D01*
X-104691Y-59095D01*
X-103067D01*
Y-57470D01*
D02*
G37*
G36*
X-141437D02*
Y-59095D01*
X-139813D01*
X-139882Y-58744D01*
X-140365Y-58022D01*
X-141086Y-57540D01*
X-141437Y-57470D01*
D02*
G37*
G36*
X-142437D02*
X-142788Y-57540D01*
X-143509Y-58022D01*
X-143992Y-58744D01*
X-144061Y-59095D01*
X-142437D01*
Y-57470D01*
D02*
G37*
G36*
X-161122D02*
Y-59095D01*
X-159498D01*
X-159567Y-58744D01*
X-160049Y-58022D01*
X-160771Y-57540D01*
X-161122Y-57470D01*
D02*
G37*
G36*
X-162122D02*
X-162473Y-57540D01*
X-163195Y-58022D01*
X-163677Y-58744D01*
X-163746Y-59095D01*
X-162122D01*
Y-57470D01*
D02*
G37*
G36*
X-41387Y-60094D02*
X-43012D01*
Y-61719D01*
X-42661Y-61649D01*
X-41939Y-61167D01*
X-41457Y-60445D01*
X-41387Y-60094D01*
D02*
G37*
G36*
X-44012D02*
X-45636D01*
X-45566Y-60445D01*
X-45084Y-61167D01*
X-44363Y-61649D01*
X-44012Y-61719D01*
Y-60094D01*
D02*
G37*
G36*
X-61072D02*
X-62697D01*
Y-61719D01*
X-62346Y-61649D01*
X-61624Y-61167D01*
X-61142Y-60445D01*
X-61072Y-60094D01*
D02*
G37*
G36*
X-63697D02*
X-65321D01*
X-65251Y-60445D01*
X-64769Y-61167D01*
X-64048Y-61649D01*
X-63697Y-61719D01*
Y-60094D01*
D02*
G37*
G36*
X-80757D02*
X-82382D01*
Y-61719D01*
X-82031Y-61649D01*
X-81309Y-61167D01*
X-80827Y-60445D01*
X-80757Y-60094D01*
D02*
G37*
G36*
X-83382D02*
X-85006D01*
X-84936Y-60445D01*
X-84454Y-61167D01*
X-83733Y-61649D01*
X-83382Y-61719D01*
Y-60094D01*
D02*
G37*
G36*
X-100443D02*
X-102067D01*
Y-61719D01*
X-101716Y-61649D01*
X-100994Y-61167D01*
X-100512Y-60445D01*
X-100443Y-60094D01*
D02*
G37*
G36*
X-103067D02*
X-104691D01*
X-104622Y-60445D01*
X-104139Y-61167D01*
X-103418Y-61649D01*
X-103067Y-61719D01*
Y-60094D01*
D02*
G37*
G36*
X-139813D02*
X-141437D01*
Y-61719D01*
X-141086Y-61649D01*
X-140365Y-61167D01*
X-139882Y-60445D01*
X-139813Y-60094D01*
D02*
G37*
G36*
X-142437D02*
X-144061D01*
X-143992Y-60445D01*
X-143509Y-61167D01*
X-142788Y-61649D01*
X-142437Y-61719D01*
Y-60094D01*
D02*
G37*
G36*
X-159498D02*
X-161122D01*
Y-61719D01*
X-160771Y-61649D01*
X-160049Y-61167D01*
X-159567Y-60445D01*
X-159498Y-60094D01*
D02*
G37*
G36*
X-162122D02*
X-163746D01*
X-163677Y-60445D01*
X-163195Y-61167D01*
X-162473Y-61649D01*
X-162122Y-61719D01*
Y-60094D01*
D02*
G37*
G36*
X-66972Y-60425D02*
X-72000D01*
Y-69784D01*
X-66972D01*
Y-60425D01*
D02*
G37*
G36*
X-73000D02*
X-78028D01*
Y-69784D01*
X-73000D01*
Y-60425D01*
D02*
G37*
G36*
X-52854Y-77155D02*
Y-78780D01*
X-51230D01*
X-51300Y-78429D01*
X-51782Y-77707D01*
X-52503Y-77225D01*
X-52854Y-77155D01*
D02*
G37*
G36*
X-53854D02*
X-54205Y-77225D01*
X-54927Y-77707D01*
X-55409Y-78429D01*
X-55479Y-78780D01*
X-53854D01*
Y-77155D01*
D02*
G37*
G36*
X-92224D02*
Y-78780D01*
X-90600D01*
X-90670Y-78429D01*
X-91152Y-77707D01*
X-91873Y-77225D01*
X-92224Y-77155D01*
D02*
G37*
G36*
X-93224D02*
X-93575Y-77225D01*
X-94297Y-77707D01*
X-94779Y-78429D01*
X-94849Y-78780D01*
X-93224D01*
Y-77155D01*
D02*
G37*
G36*
X-111909D02*
Y-78780D01*
X-110285D01*
X-110355Y-78429D01*
X-110837Y-77707D01*
X-111558Y-77225D01*
X-111909Y-77155D01*
D02*
G37*
G36*
X-112909D02*
X-113260Y-77225D01*
X-113982Y-77707D01*
X-114464Y-78429D01*
X-114534Y-78780D01*
X-112909D01*
Y-77155D01*
D02*
G37*
G36*
X-131595D02*
Y-78780D01*
X-129970D01*
X-130040Y-78429D01*
X-130522Y-77707D01*
X-131244Y-77225D01*
X-131595Y-77155D01*
D02*
G37*
G36*
X-132595D02*
X-132946Y-77225D01*
X-133667Y-77707D01*
X-134149Y-78429D01*
X-134219Y-78780D01*
X-132595D01*
Y-77155D01*
D02*
G37*
G36*
X-151279D02*
Y-78780D01*
X-149655D01*
X-149725Y-78429D01*
X-150207Y-77707D01*
X-150928Y-77225D01*
X-151279Y-77155D01*
D02*
G37*
G36*
X-152279D02*
X-152630Y-77225D01*
X-153352Y-77707D01*
X-153834Y-78429D01*
X-153904Y-78780D01*
X-152279D01*
Y-77155D01*
D02*
G37*
G36*
X-170965D02*
Y-78780D01*
X-169340D01*
X-169410Y-78429D01*
X-169892Y-77707D01*
X-170614Y-77225D01*
X-170965Y-77155D01*
D02*
G37*
G36*
X-66972Y-70784D02*
X-72000D01*
Y-80142D01*
X-66972D01*
Y-70784D01*
D02*
G37*
G36*
X-73000D02*
X-78028D01*
Y-80142D01*
X-73000D01*
Y-70784D01*
D02*
G37*
%LPD*%
D15*
X180309Y-47963D02*
X186963D01*
X189000Y-76812D02*
Y-50000D01*
X186963Y-47963D02*
X189000Y-50000D01*
X174135Y-91677D02*
X189000Y-76812D01*
X34500Y26075D02*
X39500Y31075D01*
Y33500D01*
X177953Y139579D02*
Y142474D01*
X163678Y134282D02*
X170626D01*
X161057Y136903D02*
X163678Y134282D01*
X161057Y136903D02*
Y138531D01*
X162136Y139610D01*
X165839D01*
X170626Y134282D02*
X171444Y135099D01*
X172945D01*
X173110Y135264D01*
X173165Y135319D01*
Y139524D01*
X173221Y139579D01*
X89002Y132732D02*
X92953Y136683D01*
X70079Y132732D02*
X89002D01*
X92953Y136683D02*
Y139193D01*
X93339Y139579D01*
X67216Y135594D02*
X70079Y132732D01*
X76809Y137642D02*
X80677D01*
X177953Y136462D02*
Y139579D01*
X160509Y141488D02*
X165748D01*
X158858Y139837D02*
X160509Y141488D01*
X158858Y137457D02*
Y139837D01*
X76809Y136683D02*
Y137642D01*
X-24532Y19468D02*
X-23500Y20500D01*
X-31920Y19468D02*
X-24532D01*
X-91500Y22000D02*
X-27000D01*
X-31299Y17968D02*
X3469D01*
X-30678Y16468D02*
X3477D01*
X-30056Y14968D02*
X2856D01*
X-29435Y13468D02*
X2235D01*
X-33908Y8995D02*
X-29435Y13468D01*
X-28814Y11969D02*
X1613D01*
X-33287Y7495D02*
X-28814Y11969D01*
X-28192Y10469D02*
X992D01*
X-32666Y5995D02*
X-28192Y10469D01*
X-34530Y10495D02*
X-30056Y14968D01*
X-35151Y11995D02*
X-30678Y16468D01*
X-35772Y13495D02*
X-31299Y17968D01*
X-36394Y14995D02*
X-31920Y19468D01*
X-28991Y23500D02*
X-26991Y25500D01*
X-90879Y23500D02*
X-28991D01*
X-30000Y25000D02*
X-26000Y29000D01*
X-90257Y25000D02*
X-30000D01*
X-26000Y29000D02*
X-18500D01*
X-26991Y25500D02*
X-21000D01*
X155815Y147406D02*
X156996D01*
X-26500Y-104000D02*
Y3500D01*
X-32000Y-109500D02*
X-26500Y-104000D01*
X-32000Y-112646D02*
Y-109500D01*
X-24000Y-104100D02*
Y7500D01*
X-27000Y-107100D02*
X-24000Y-104100D01*
X-27000Y-112646D02*
Y-107100D01*
X17534Y-105034D02*
X25000Y-112500D01*
X-9466Y-105034D02*
X17534D01*
X-19000Y-95500D02*
X-9466Y-105034D01*
X-19000Y-95500D02*
Y8000D01*
X118547Y-137000D02*
Y-124547D01*
X106500Y-112500D02*
X118547Y-124547D01*
X25000Y-112500D02*
X106500D01*
X101029Y-97177D02*
X106528Y-91677D01*
X18000Y-75000D02*
X40177Y-97177D01*
X11575Y26075D02*
X34500D01*
X3469Y17968D02*
X11575Y26075D01*
X177394Y-45047D02*
X180309Y-47963D01*
X177000Y-45047D02*
X177394D01*
X40177Y-97177D02*
X101029D01*
X106528Y-91677D02*
X174135D01*
X35000Y-34245D02*
Y-15054D01*
X3477Y16468D02*
X35000Y-15054D01*
X33500Y-34867D02*
Y-15675D01*
X2856Y14968D02*
X33500Y-15675D01*
X32000Y-35488D02*
Y-16297D01*
X2235Y13468D02*
X32000Y-16297D01*
X30500Y-25976D02*
Y-16918D01*
X1613Y11969D02*
X30500Y-16918D01*
X29000Y-25322D02*
Y-17539D01*
X992Y10469D02*
X29000Y-17539D01*
X100736Y-32500D02*
X114286D01*
X88189Y-45047D02*
X100736Y-32500D01*
X102302Y-28813D02*
Y12302D01*
X91205Y-39909D02*
X102302Y-28813D01*
X86021Y-39909D02*
X91205D01*
X83500Y-42431D02*
X86021Y-39909D01*
X83500Y-45722D02*
Y-42431D01*
X105000Y-76257D02*
Y-54000D01*
X99111Y-48111D02*
X105000Y-54000D01*
X85889Y-48111D02*
X99111D01*
X83500Y-45722D02*
X85889Y-48111D01*
X18000Y-75000D02*
Y-35442D01*
X22690Y-30752D01*
X23570D01*
X29000Y-25322D01*
X53694Y-43500D02*
X65185Y-54991D01*
X40012Y-43500D02*
X53694D01*
X32000Y-35488D02*
X40012Y-43500D01*
X54379Y-42000D02*
X64295Y-51917D01*
X40633Y-42000D02*
X54379D01*
X33500Y-34867D02*
X40633Y-42000D01*
X41254Y-40500D02*
X55000D01*
X68185Y-53685D01*
Y-72988D02*
Y-53685D01*
X87795Y-45047D02*
X88189D01*
X108500Y-40000D02*
X111594Y-36906D01*
X108500Y-74879D02*
Y-40000D01*
X96879Y-86500D02*
X108500Y-74879D01*
X96408Y-84849D02*
X105000Y-76257D01*
X79150Y-86500D02*
X96879D01*
X97500Y-88000D02*
X116032Y-69468D01*
X78528Y-88000D02*
X97500D01*
X65185Y-74657D02*
X78528Y-88000D01*
X111594Y-36906D02*
X112185D01*
X116032Y-69468D02*
Y-34245D01*
X80046Y-84849D02*
X96408D01*
X66685Y-74035D02*
X79150Y-86500D01*
X68185Y-72988D02*
X80046Y-84849D01*
X66685Y-74035D02*
Y-54370D01*
X65185Y-74657D02*
Y-54991D01*
X64295Y-51980D02*
X66685Y-54370D01*
X64295Y-51980D02*
Y-51917D01*
X114286Y-32500D02*
X116032Y-34245D01*
X102302Y12302D02*
X123500Y33500D01*
X132161D01*
X35000Y-34245D02*
X41254Y-40500D01*
X170661Y149614D02*
Y150000D01*
Y150898D01*
X21976Y-36906D02*
Y-34500D01*
X30500Y-25976D01*
X113531Y142532D02*
X116000Y145000D01*
X105102Y142532D02*
X113531D01*
X120239Y129261D02*
X120447Y129469D01*
X101289Y139520D02*
X111309Y129500D01*
X120447Y129469D02*
X122959D01*
X119739Y129761D02*
Y144752D01*
Y129761D02*
X120000Y129500D01*
X111309D02*
X120000D01*
X122959Y129469D02*
X147397Y153905D01*
X172306D02*
X172326Y153886D01*
X147397Y153905D02*
X172306D01*
X112041Y154571D02*
X122500Y144112D01*
Y132500D02*
Y144112D01*
X111420Y153071D02*
X119739Y144752D01*
X169153Y152406D02*
X170661Y150898D01*
X-180500Y46000D02*
X-161000D01*
X-180500Y-14000D02*
X-146580D01*
X-110093Y7495D02*
X-33287D01*
X-114299Y11701D02*
X-110093Y7495D01*
X-126701Y11701D02*
X-114299D01*
X-161000Y46000D02*
X-126701Y11701D01*
X89360Y153071D02*
X111420D01*
X88301Y154571D02*
X112041D01*
X122631Y127000D02*
X123000D01*
X122163Y126532D02*
X122631Y127000D01*
X111276Y126532D02*
X122163D01*
X100165Y137642D02*
X111276Y126532D01*
X98000Y137642D02*
X100165D01*
X120000Y129500D02*
X120239Y129261D01*
X98090Y139520D02*
X101289D01*
X98000Y139610D02*
X98090Y139520D01*
X148406Y152406D02*
X169153D01*
X123000Y127000D02*
X148406Y152406D01*
X80677Y137642D02*
X85201D01*
X85661Y138102D01*
X88606Y152317D02*
X89360Y153071D01*
X88606Y149807D02*
Y152317D01*
X88221Y149421D02*
X88606Y149807D01*
X86047Y152317D02*
X88301Y154571D01*
X86047Y149807D02*
Y152317D01*
X85661Y149421D02*
X86047Y149807D01*
X169500Y137000D02*
X170661Y138161D01*
Y139579D01*
X187414Y139701D02*
X187607Y139893D01*
X183252Y139701D02*
X187414D01*
X183161Y139610D02*
X183252Y139701D01*
X178339Y147945D02*
Y153774D01*
X143374Y159000D02*
X173112D01*
X146500Y157500D02*
X172491D01*
X173000Y153500D02*
X173110Y153390D01*
Y149531D02*
Y153390D01*
Y149531D02*
X173221Y149421D01*
X172491Y157500D02*
X175779Y154211D01*
Y149421D02*
Y154211D01*
X173112Y159000D02*
X178339Y153774D01*
X170276Y150000D02*
X170661Y149614D01*
X185327Y137642D02*
X186208Y136761D01*
X183161Y137642D02*
X185327D01*
X169500Y150000D02*
X170276D01*
X134000Y145000D02*
X146500Y157500D01*
X129374Y145000D02*
X143374Y159000D01*
X160059Y132531D02*
X174022D01*
X156996Y135594D02*
X160059Y132531D01*
X174022D02*
X177953Y136462D01*
X156996Y135594D02*
X158858Y137457D01*
X155815Y135594D02*
X156996D01*
X126500Y145000D02*
X129374D01*
X178339Y147945D02*
X178724Y147559D01*
X178953D01*
X180996Y145516D01*
X183161D01*
X183071Y143638D02*
X183161Y143547D01*
X179053Y143638D02*
X183071D01*
X176165Y146526D02*
X179053Y143638D01*
X176165Y146526D02*
Y149035D01*
X175779Y149421D02*
X176165Y149035D01*
X104086Y143547D02*
X105102Y142532D01*
X98000Y143547D02*
X104086D01*
X107631Y145000D02*
X108000D01*
X107116Y145516D02*
X107631Y145000D01*
X98000Y145516D02*
X107116D01*
X93339Y147945D02*
Y149421D01*
Y147945D02*
X93724Y147559D01*
X93791D01*
X95835Y145516D01*
X98000D01*
X91165Y146526D02*
X94053Y143638D01*
X97909D01*
X98000Y143547D01*
X91165Y146526D02*
Y149035D01*
X90780Y149421D02*
X91165Y149035D01*
X85661Y138102D02*
Y139579D01*
X89911Y145516D02*
X92953Y142474D01*
X80677Y145516D02*
X89911D01*
X92953Y139965D02*
X93339Y139579D01*
X92953Y139965D02*
Y142474D01*
X80677Y143547D02*
X89321D01*
X72256D02*
X80677D01*
X89321D02*
X90394Y142474D01*
Y139965D02*
X90780Y139579D01*
X90394Y139965D02*
Y142474D01*
X67216Y147406D02*
X68398D01*
X72256Y143547D01*
X68398Y135594D02*
X74382Y141579D01*
X80677D01*
X175394Y139965D02*
X175779Y139579D01*
X175394Y139965D02*
Y142474D01*
X174321Y143547D02*
X175394Y142474D01*
X165839Y143547D02*
X174321D01*
X174911Y145516D02*
X177953Y142474D01*
X165839Y145516D02*
X174911D01*
X160854Y143547D02*
X165839D01*
X156996Y147406D02*
X160854Y143547D01*
X165748Y141488D02*
X165839Y141579D01*
X-80063Y73888D02*
X-78500Y75451D01*
Y82500D01*
X-70500Y-160000D02*
X7500D01*
X-9033Y-108034D02*
X-3303D01*
X-11057Y-110057D02*
X-9033Y-108034D01*
X-11057Y-114927D02*
Y-110057D01*
X-17610Y-106534D02*
X197D01*
X-21500Y-110423D02*
X-17610Y-106534D01*
X-22000Y-110923D02*
X-21500Y-110423D01*
Y5000D01*
X-22000Y-112646D02*
Y-110923D01*
X4264Y-112323D02*
Y-110600D01*
X197Y-106534D02*
X4264Y-110600D01*
X-27000Y-114368D02*
X-22933Y-118435D01*
X-14566D01*
X-11057Y-114927D01*
X-11626Y-119935D02*
X-5736Y-114045D01*
X-32000Y-114368D02*
X-26433Y-119935D01*
X-11626D01*
X-736Y-112323D02*
Y-110600D01*
X-3303Y-108034D02*
X-736Y-110600D01*
X-27000Y-114368D02*
Y-112646D01*
X-5736Y-114045D02*
Y-112323D01*
X-32000Y-114368D02*
Y-112646D01*
X-3000Y-151500D02*
X-736Y-149236D01*
Y-133677D01*
X-29500Y-151500D02*
X-27000Y-149000D01*
Y-134000D01*
X-147535Y-82965D02*
X-70500Y-160000D01*
X-171535Y-82965D02*
X-147535D01*
X-115500Y41323D02*
X-112920Y38743D01*
Y34784D02*
Y38743D01*
Y34784D02*
X-93131Y14995D01*
X-36394D01*
X-115500Y41323D02*
Y48000D01*
X-117799Y41500D02*
X-114420Y38121D01*
Y34163D02*
Y38121D01*
Y34163D02*
X-93752Y13495D01*
X-35772D01*
X-117799Y41500D02*
Y42321D01*
X-119420Y41000D02*
X-115920Y37500D01*
X-94374Y11995D02*
X-35151D01*
X-115920Y33541D02*
X-94374Y11995D01*
X-115920Y33541D02*
Y37500D01*
X-120500Y45022D02*
X-117799Y42321D01*
X-120500Y45022D02*
Y46000D01*
X-124000Y41000D02*
X-119420D01*
X-114000Y44500D02*
X-91500Y22000D01*
X-111000Y45743D02*
X-90257Y25000D01*
X-112500Y45121D02*
X-90879Y23500D01*
X-94995Y10495D02*
X-34530D01*
X-109472Y8995D02*
X-33908D01*
X-101290Y5995D02*
X-32666D01*
X-105584Y1701D02*
X-101290Y5995D01*
X-116477Y16000D02*
X-109472Y8995D01*
X-120500Y36000D02*
X-94995Y10495D01*
X-120500Y16000D02*
X-116477D01*
X-130879Y1701D02*
X-105584D01*
X-74158Y36500D02*
X-74158Y36500D01*
X-74520Y40500D02*
X-71500Y37479D01*
X-84379Y40500D02*
X-74520D01*
X-71500Y29000D02*
Y37479D01*
X-87937Y44058D02*
X-84379Y40500D01*
X-87937Y44058D02*
Y53167D01*
X-126299Y43299D02*
X-124000Y41000D01*
X-111000Y45743D02*
Y76500D01*
X-120500Y86000D02*
X-111000Y76500D01*
X-112500Y45121D02*
Y58000D01*
X-120500Y66000D02*
X-112500Y58000D01*
X-120500Y56000D02*
X-114000Y49500D01*
Y44500D02*
Y49500D01*
X-118500Y51000D02*
X-115500Y48000D01*
X-121580Y51000D02*
X-118500D01*
X-115500Y74172D02*
Y78879D01*
X-118672Y71000D02*
X-115500Y74172D01*
X-121580Y71000D02*
X-118672D01*
X-117725Y81103D02*
X-115500Y78879D01*
X-168103Y81103D02*
X-117725D01*
X-178500Y91500D02*
X-168103Y81103D01*
X-182500Y91500D02*
X-178500D01*
X-185500Y88500D02*
X-182500Y91500D01*
X-185500Y81000D02*
Y88500D01*
Y81000D02*
X-180500Y76000D01*
X-124799Y67781D02*
X-121580Y71000D01*
X-124799Y54219D02*
Y67781D01*
Y54219D02*
X-121580Y51000D01*
X-126299Y43299D02*
Y70201D01*
X-120500Y76000D01*
X-173874Y6546D02*
Y9374D01*
X-180500Y16000D02*
X-173874Y9374D01*
X-178719Y1701D02*
X-173874Y6546D01*
X-182580Y1701D02*
X-178719D01*
X-184281Y0D02*
X-182580Y1701D01*
X-184500Y0D02*
X-184281D01*
X-188287Y-3787D02*
X-184500Y0D01*
X-188287Y-66213D02*
Y-3787D01*
Y-66213D02*
X-171535Y-82965D01*
X118547Y-142500D02*
Y-137000D01*
Y-142500D02*
X118547Y-142500D01*
X29500Y-143000D02*
Y-137500D01*
X-120500Y-4000D02*
X-110500D01*
X124453Y-142500D02*
X124476Y-142524D01*
Y-151476D02*
Y-142524D01*
Y-151476D02*
X124500Y-151500D01*
X35453Y-151453D02*
X35500Y-151500D01*
X35453Y-151453D02*
Y-143047D01*
X35405Y-143000D02*
X35453Y-143047D01*
X-146580Y-14000D02*
X-130879Y1701D01*
X-148610Y51000D02*
X-141222Y58388D01*
X-181580Y51000D02*
X-148610D01*
X-141222Y58388D02*
X-139500D01*
X-186000Y46580D02*
X-181580Y51000D01*
X-186000Y11500D02*
Y46580D01*
Y11500D02*
X-180500Y6000D01*
X-82954Y57454D02*
X-81500Y56000D01*
X-99046Y57454D02*
X-82954D01*
X-104000Y52500D02*
X-99046Y57454D01*
X-180500Y86000D02*
X-174103Y79603D01*
X-147438D01*
X-141222Y73388D01*
X-139500D01*
X-153532Y63420D02*
X-153500Y63453D01*
X-160822Y63420D02*
X-153532D01*
X-160854Y63388D02*
X-160822Y63420D01*
X-169500Y73453D02*
X-169468Y73420D01*
X-160887D01*
X-160854Y73388D01*
D18*
X131000Y-137000D02*
X134500Y-140500D01*
Y-151500D02*
Y-140500D01*
X124453Y-137000D02*
X131000D01*
X96000Y-157500D02*
X128500D01*
X134500Y-151500D01*
X90000D02*
X96000Y-157500D01*
X45500Y-151500D02*
X90000D01*
X45500D02*
Y-145000D01*
X39022Y-138522D02*
X45500Y-145000D01*
X36033Y-138522D02*
X39022D01*
X35405Y-137894D02*
X36033Y-138522D01*
X35405Y-137894D02*
Y-137500D01*
X32055Y-133756D02*
X35405Y-137106D01*
Y-137500D02*
Y-137106D01*
X16500Y-133756D02*
X32055D01*
X9342D02*
X16500D01*
X9264Y-133677D02*
X9342Y-133756D01*
X4264Y-133677D02*
X9264D01*
Y-135400D02*
Y-133677D01*
X7000Y-137663D02*
X9264Y-135400D01*
X7000Y-151500D02*
Y-137663D01*
X-18000Y-153000D02*
Y-151500D01*
X1919Y-156581D02*
X7000Y-151500D01*
X-14419Y-156581D02*
X1919D01*
X-18000Y-153000D02*
X-14419Y-156581D01*
X-19500Y-151500D02*
X-18000D01*
X-38945Y-153555D02*
X-35919Y-156581D01*
X-24581D01*
X-19500Y-151500D01*
X-38945Y-153555D02*
Y-139256D01*
X-22000Y-134000D02*
X-17000D01*
X-19500Y-151500D02*
Y-149988D01*
X-22000Y-147488D02*
X-19500Y-149988D01*
X-22000Y-147488D02*
Y-134000D01*
X88000Y135764D02*
X88110Y135874D01*
Y139164D01*
X88221Y139274D01*
X164887Y62000D02*
X168728Y58159D01*
X149500Y62000D02*
X164887D01*
X139500Y72000D02*
X149500Y62000D01*
X126960Y72000D02*
X139500D01*
X122959Y68000D02*
X126960Y72000D01*
X122959Y54100D02*
Y68000D01*
Y54100D02*
X141606Y35453D01*
X142000D01*
X189Y99000D02*
X3626Y95563D01*
X-15000Y99000D02*
X189D01*
X11626Y87063D02*
Y91530D01*
X-2106Y105261D02*
X11626Y91530D01*
X-2106Y105261D02*
Y105280D01*
X11500Y95500D02*
Y95518D01*
X-1317Y108335D02*
X11500Y95518D01*
X-3335Y108335D02*
X-1317D01*
X-3500Y108500D02*
X-3335Y108335D01*
D24*
X51500Y35453D02*
D03*
Y29547D02*
D03*
X56000Y25953D02*
D03*
Y20047D02*
D03*
X142000Y35453D02*
D03*
Y29547D02*
D03*
X148500Y25953D02*
D03*
Y20047D02*
D03*
X87028Y-143453D02*
D03*
Y-137547D02*
D03*
X175500Y-143453D02*
D03*
Y-137547D02*
D03*
X184291Y-45047D02*
D03*
Y-50953D02*
D03*
X177000Y-50953D02*
D03*
Y-45047D02*
D03*
X95276Y-50953D02*
D03*
Y-45047D02*
D03*
X87795Y-45047D02*
D03*
Y-50953D02*
D03*
D26*
X93779Y113500D02*
D03*
X90780D02*
D03*
X-110500Y-4000D02*
D03*
X-107500D02*
D03*
X171500Y115500D02*
D03*
X168500D02*
D03*
X42500Y33500D02*
D03*
X39500D02*
D03*
X135161D02*
D03*
X132161D02*
D03*
D29*
X124453Y-142500D02*
D03*
X118547D02*
D03*
X118547Y-137000D02*
D03*
X124453D02*
D03*
X35405Y-143000D02*
D03*
X29500D02*
D03*
Y-137500D02*
D03*
X35405D02*
D03*
D30*
X-42488Y68500D02*
D03*
X-48000D02*
D03*
X-42488Y74500D02*
D03*
X-48000D02*
D03*
X-42488Y80500D02*
D03*
X-48000D02*
D03*
X-42488Y86500D02*
D03*
X-48000D02*
D03*
D35*
X-38945Y-139256D02*
D03*
Y-133744D02*
D03*
X16500Y-133756D02*
D03*
Y-128244D02*
D03*
X-57055Y90244D02*
D03*
Y95756D02*
D03*
X67343Y-137744D02*
D03*
Y-143256D02*
D03*
X155815Y-137744D02*
D03*
Y-143256D02*
D03*
D72*
X43595Y-24563D02*
Y15872D01*
X75000Y-61756D02*
Y-47500D01*
Y-61756D02*
X90838Y-77595D01*
Y-67421D01*
X175500Y75111D02*
Y125500D01*
X179000Y-25137D02*
Y47887D01*
Y-26115D02*
Y-25137D01*
X168728Y58159D02*
X179000Y47887D01*
X151105Y146405D02*
X155815D01*
X144000Y139300D02*
X151105Y146405D01*
X144000Y119280D02*
Y139300D01*
X112185Y87465D02*
X144000Y119280D01*
X112185Y33094D02*
Y87465D01*
X52905Y147406D02*
X67216D01*
X29500Y124000D02*
X52905Y147406D01*
X29500Y42909D02*
Y124000D01*
X86781Y74990D02*
Y113500D01*
Y125380D01*
X80130Y68339D02*
X86781Y74990D01*
X80130Y63690D02*
Y68339D01*
X86781Y125380D02*
X86901Y125500D01*
X165748Y-63906D02*
X179437Y-77595D01*
Y-68193D02*
X180905Y-66724D01*
X179437Y-77595D02*
Y-68193D01*
X165748Y-63906D02*
Y-44500D01*
X90838Y-23547D02*
Y15872D01*
Y-24468D02*
Y-23547D01*
X112185Y13094D02*
X132193D01*
X21976D02*
X40817D01*
X43595Y15872D01*
X90838Y-67421D02*
X91535Y-66724D01*
X66902Y-39402D02*
Y2943D01*
X168728Y58159D02*
Y68339D01*
X175500Y75111D01*
X132193Y63903D02*
X157067Y39029D01*
Y-35819D02*
Y39029D01*
X80130Y57238D02*
Y63690D01*
Y57238D02*
X91307Y46060D01*
Y20095D02*
Y46060D01*
X66402Y3443D02*
Y41096D01*
X43595Y63903D02*
X66402Y41096D01*
Y3443D02*
X66902Y2943D01*
X22185Y35594D02*
X29500Y42909D01*
X133661Y-26063D02*
Y-9094D01*
X67216Y125500D02*
Y135594D01*
X66902Y-39402D02*
X75000Y-47500D01*
X157067Y-35819D02*
X165748Y-44500D01*
X133661Y-9094D02*
Y13094D01*
D73*
X132193Y-77595D02*
Y-77319D01*
X148819Y-60693D01*
Y-59000D01*
X56502Y-58474D02*
X58720Y-60693D01*
X-24543Y91457D02*
Y100457D01*
X44898Y-70079D02*
X56502Y-58474D01*
X44898Y-77398D02*
Y-70079D01*
X179000Y-25137D02*
X179979D01*
X165787D02*
X179000D01*
Y-26115D02*
X179979Y-25137D01*
X90838Y-23547D02*
X91760D01*
X75189D02*
X90838D01*
Y-24468D02*
X91760Y-23547D01*
X99579Y-93677D02*
X115661Y-77595D01*
X132193D01*
X59677Y-93677D02*
X99579D01*
X43595Y-77595D02*
X59677Y-93677D01*
X133661Y-26063D02*
X134588Y-25137D01*
X148779D01*
X148819Y-25097D01*
Y-23500D01*
X165748Y-25097D02*
X165787Y-25137D01*
X165748Y-25097D02*
Y-23500D01*
X155815Y125500D02*
Y135594D01*
X156012Y-143453D02*
X175500D01*
X155815Y-143256D02*
X156012Y-143453D01*
X175500Y-126000D02*
X175500Y-126000D01*
X175500Y-137547D02*
Y-126000D01*
X155815Y-126000D02*
X155815Y-126000D01*
Y-137744D02*
Y-126000D01*
X67216Y-126000D02*
X67343Y-126126D01*
Y-137744D02*
Y-126126D01*
X86901Y-126000D02*
X87028Y-126126D01*
Y-137547D02*
Y-126126D01*
X86831Y-143256D02*
X87028Y-143453D01*
X67343Y-143256D02*
X86831D01*
X-28500Y87500D02*
X-24543Y91457D01*
X-57500Y105043D02*
Y110500D01*
Y105043D02*
X-57055Y104598D01*
Y95756D02*
Y104598D01*
X75150Y-23508D02*
X75189Y-23547D01*
X75150Y-23508D02*
Y-23500D01*
X58720Y-60693D02*
Y-59000D01*
D74*
X184431Y-43215D02*
X184500Y-43146D01*
X184431Y-44908D02*
Y-43215D01*
X184291Y-45047D02*
X184431Y-44908D01*
X95276Y-57276D02*
X101526D01*
X100502Y-45047D02*
X103418Y-47963D01*
X103500D01*
X95276Y-45047D02*
X100502D01*
X140114Y16433D02*
X143728Y20047D01*
X132754Y16433D02*
X140114D01*
X132193Y15872D02*
X132754Y16433D01*
X143728Y20047D02*
X148500D01*
X148122Y26331D02*
X148500Y25953D01*
X145610Y26331D02*
X148122D01*
X142394Y29547D02*
X145610Y26331D01*
X142000Y29547D02*
X142394D01*
X141622Y29925D02*
X142000Y29547D01*
X138177Y29925D02*
X141622D01*
X135161Y32941D02*
X138177Y29925D01*
X135161Y32941D02*
Y33500D01*
X22185Y-94000D02*
X29185Y-101000D01*
X111791D01*
X61295Y63690D02*
X80130D01*
X36500Y50059D02*
Y73500D01*
Y50059D02*
X51106Y35453D01*
X46842Y78144D02*
X61295Y63690D01*
X36500Y73500D02*
X41144Y78144D01*
X46842D01*
X-21500Y82500D02*
X14937D01*
X19500Y87063D01*
X-35500Y68500D02*
X-21500Y82500D01*
X-42488Y68500D02*
X-35500D01*
X14500Y-123000D02*
X15500Y-124000D01*
Y-127244D02*
Y-124000D01*
Y-127244D02*
X15728Y-127472D01*
Y-127669D02*
Y-127472D01*
Y-127669D02*
X16303Y-128244D01*
X16500D01*
X-32256Y-133744D02*
X-32000Y-134000D01*
X-38945Y-133744D02*
X-32256D01*
X44441Y31000D02*
X47000D01*
X42500Y32941D02*
X44441Y31000D01*
X42500Y32941D02*
Y33500D01*
X47000Y31000D02*
X48075Y29925D01*
X51122D01*
X51500Y29547D01*
X-94000Y36500D02*
X-74158D01*
X-50217Y-5717D02*
X-42500Y2000D01*
X-72500Y-5717D02*
X-50217D01*
X-135888Y63388D02*
X-132500Y60000D01*
X-139500Y63388D02*
X-135888D01*
X-132500Y36000D02*
Y60000D01*
X-88319Y19000D02*
X-87819Y18500D01*
X-80063D01*
X-92500Y19000D02*
X-88319D01*
X-80063Y18500D02*
X-79965D01*
X-79465Y19000D01*
X-74000D01*
X-107500Y-4000D02*
X-90319D01*
X-87240Y-921D01*
X-107500Y-16500D02*
Y-4000D01*
X-120500Y-29500D02*
X-107500Y-16500D01*
X-151000Y-29500D02*
X-120500D01*
X-174000Y-52500D02*
X-151000Y-29500D01*
X51106Y35453D02*
X51500D01*
Y29547D02*
X55047Y26000D01*
X55441D01*
D75*
X43595Y-24563D02*
X44610Y-23547D01*
X184291Y-50953D02*
X184291Y-50953D01*
X177000Y-50953D02*
X184291D01*
X177000D02*
X177083Y-51035D01*
Y-57193D02*
Y-51035D01*
Y-57193D02*
X177165Y-57276D01*
X87795Y-57276D02*
X87795Y-57276D01*
X87795Y-57276D02*
Y-50953D01*
X87795Y-50953D01*
X95276D01*
X-5736Y-133677D02*
Y-132396D01*
X-9421Y-128711D02*
X-5736Y-132396D01*
X-29227Y-128711D02*
X-9421D01*
X-30567Y-130051D02*
X-29227Y-128711D01*
X-30567Y-131285D02*
Y-130051D01*
X-32000Y-132719D02*
X-30567Y-131285D01*
X-32000Y-134000D02*
Y-132719D01*
X-125799Y120701D02*
X-120500Y126000D01*
X-125799Y101324D02*
Y120701D01*
Y101324D02*
X-120500Y96025D01*
Y96000D02*
Y96025D01*
X-72189Y73888D02*
Y90279D01*
X-19232Y140554D02*
Y149028D01*
X-23343Y136444D02*
X-19232Y140554D01*
X-23343Y125906D02*
Y136444D01*
X-113500Y126000D02*
X-105760Y133740D01*
X-120500Y126000D02*
X-113500D01*
X-57500Y110500D02*
Y118000D01*
X-73240Y133740D02*
X-57500Y118000D01*
X-105760Y133740D02*
X-73240D01*
X-23500Y112406D02*
X-23343Y112563D01*
Y125906D01*
X-48000Y86500D02*
Y88500D01*
Y94500D01*
Y104598D01*
Y80500D02*
Y86500D01*
Y74500D02*
Y80500D01*
Y68500D02*
Y74500D01*
X44087Y20071D02*
X55976D01*
X56000Y20047D01*
X58173Y-23547D02*
X58220Y-23500D01*
X44610Y-23547D02*
X58173D01*
D76*
X112185Y33094D02*
D03*
Y13094D02*
D03*
X21976Y33094D02*
D03*
Y13094D02*
D03*
X134500Y-151500D02*
D03*
X124500D02*
D03*
X114500D02*
D03*
X45500D02*
D03*
X35500D02*
D03*
X25500D02*
D03*
X21976Y13094D02*
D03*
Y33094D02*
D03*
X112185D02*
D03*
Y13094D02*
D03*
D77*
Y-26906D02*
D03*
Y-36906D02*
D03*
X21976Y-26906D02*
D03*
Y-36906D02*
D03*
D78*
X-120500Y-14000D02*
D03*
X-180500D02*
D03*
X-120500Y-4000D02*
D03*
X-180500D02*
D03*
X-120500Y6000D02*
D03*
X-180500D02*
D03*
X-120500Y16000D02*
D03*
X-180500D02*
D03*
X-120500Y26000D02*
D03*
X-180500D02*
D03*
X-120500Y36000D02*
D03*
X-180500D02*
D03*
X-120500Y46000D02*
D03*
X-180500D02*
D03*
X-120500Y56000D02*
D03*
X-180500D02*
D03*
X-120500Y66000D02*
D03*
X-180500D02*
D03*
X-120500Y76000D02*
D03*
X-180500D02*
D03*
X-120500Y86000D02*
D03*
X-180500D02*
D03*
X-120500Y96000D02*
D03*
X-180500D02*
D03*
X-120500Y106000D02*
D03*
X-180500D02*
D03*
X-120500Y116000D02*
D03*
X-180500D02*
D03*
D79*
X-120500Y126000D02*
D03*
X-180500D02*
D03*
D80*
X67216Y-126000D02*
D03*
X86901D02*
D03*
X-3658Y125906D02*
D03*
X-23343D02*
D03*
X67216Y125500D02*
D03*
X86901D02*
D03*
X155815D02*
D03*
X175500D02*
D03*
Y-126000D02*
D03*
X155815D02*
D03*
D81*
X-3000Y-151500D02*
D03*
X-29500D02*
D03*
D82*
X7000D02*
D03*
X-19500D02*
D03*
D83*
X-72500Y-52665D02*
D03*
D84*
Y-23335D02*
D03*
X-70098Y142697D02*
D03*
X-42500D02*
D03*
X-107658D02*
D03*
X-80059D02*
D03*
D85*
X-97937Y128500D02*
D03*
D86*
X-87937D02*
D03*
D87*
X-72189Y53167D02*
D03*
X-95811D02*
D03*
X-87937D02*
D03*
X-80063D02*
D03*
X-72189Y73888D02*
D03*
X-95811D02*
D03*
X-87937D02*
D03*
X-80063D02*
D03*
X-95811Y90279D02*
D03*
X-72189D02*
D03*
X-80063D02*
D03*
X-87937D02*
D03*
X-95811Y111000D02*
D03*
X-72189D02*
D03*
X-80063D02*
D03*
X-87937D02*
D03*
X-124000Y-52500D02*
D03*
X-134000D02*
D03*
X-144000D02*
D03*
X-154000D02*
D03*
X-164000D02*
D03*
X-174000D02*
D03*
D88*
X-65158Y152500D02*
D03*
X-47441D02*
D03*
X-102717D02*
D03*
X-85000D02*
D03*
D89*
X-184000Y-52500D02*
D03*
D90*
X-157283Y-96063D02*
D03*
Y96063D02*
D03*
D91*
X157283D02*
D03*
D92*
X132193Y15872D02*
D03*
Y63903D02*
D03*
X179437Y15872D02*
D03*
Y63903D02*
D03*
X155815Y71777D02*
D03*
X43595Y15872D02*
D03*
Y63903D02*
D03*
X90838Y15872D02*
D03*
Y63903D02*
D03*
X67216Y71777D02*
D03*
X179437Y-29563D02*
D03*
Y-77595D02*
D03*
X132193Y-29563D02*
D03*
Y-77595D02*
D03*
X155815Y-85469D02*
D03*
X90838Y-29563D02*
D03*
Y-77595D02*
D03*
X43595Y-29563D02*
D03*
Y-77595D02*
D03*
X67216Y-85469D02*
D03*
D93*
X184500Y-43146D02*
D03*
X184646Y-58646D02*
D03*
X101526Y-57276D02*
D03*
X103500Y-47963D02*
D03*
X-43512Y-20224D02*
D03*
X-53354Y-79280D02*
D03*
X-63197Y97886D02*
D03*
Y58516D02*
D03*
Y-20224D02*
D03*
Y-59595D02*
D03*
X-82882D02*
D03*
X-102567Y-20224D02*
D03*
X-112409Y-39909D02*
D03*
X-102567Y-59595D02*
D03*
X-122252Y137256D02*
D03*
X-132095Y78201D02*
D03*
X-122252Y-20224D02*
D03*
X-151779Y-539D02*
D03*
X-171465Y38831D02*
D03*
X-161622Y19146D02*
D03*
Y-20224D02*
D03*
X88000Y135764D02*
D03*
X173110Y135264D02*
D03*
X163181Y117571D02*
D03*
X104126D02*
D03*
X64756D02*
D03*
X54913Y137256D02*
D03*
X45071Y117571D02*
D03*
X15543Y137256D02*
D03*
X5701Y117571D02*
D03*
X-4142Y137256D02*
D03*
X-33669Y117571D02*
D03*
X-43512Y58516D02*
D03*
X-53354Y38831D02*
D03*
Y-39909D02*
D03*
X-43512Y-59595D02*
D03*
X-73039Y117571D02*
D03*
Y-39909D02*
D03*
X-92724Y117571D02*
D03*
X-82882Y-20224D02*
D03*
X-92724Y-39909D02*
D03*
Y-79280D02*
D03*
X-102567Y97886D02*
D03*
X-112409Y-79280D02*
D03*
X-132095Y117571D02*
D03*
Y-39909D02*
D03*
Y-79280D02*
D03*
X-141937Y137256D02*
D03*
X-151779Y117571D02*
D03*
X-141937Y19146D02*
D03*
Y-20224D02*
D03*
Y-59595D02*
D03*
X-151779Y-79280D02*
D03*
X-161622Y137256D02*
D03*
X-171465Y-539D02*
D03*
X-161622Y-59595D02*
D03*
X-171465Y-79280D02*
D03*
X76809Y136683D02*
D03*
X-27000Y22000D02*
D03*
X-23500Y20500D02*
D03*
X-21000Y25500D02*
D03*
X-18500Y29000D02*
D03*
X111791Y-101000D02*
D03*
X120000Y129500D02*
D03*
X122500Y132500D02*
D03*
X123000Y127000D02*
D03*
X169500Y137000D02*
D03*
X187607Y139893D02*
D03*
X173000Y153500D02*
D03*
X187000Y136500D02*
D03*
X169500Y150000D02*
D03*
X126500Y145000D02*
D03*
X134000D02*
D03*
X116000D02*
D03*
X108000D02*
D03*
X19500Y87063D02*
D03*
X3626Y95563D02*
D03*
X-15000Y99000D02*
D03*
X11626Y87063D02*
D03*
X-2106Y105280D02*
D03*
X11500Y95500D02*
D03*
X-3500Y108500D02*
D03*
X-24543Y100457D02*
D03*
X-78500Y82500D02*
D03*
X29500Y-137500D02*
D03*
X7500Y-160000D02*
D03*
X14500Y-123000D02*
D03*
X-9421Y-128711D02*
D03*
X-133000Y69000D02*
D03*
X-48000Y104598D02*
D03*
X-72500Y-70284D02*
D03*
X22185Y-94000D02*
D03*
X-42500Y2000D02*
D03*
X-132500Y36000D02*
D03*
X-92500Y19000D02*
D03*
X-80063Y18500D02*
D03*
X-74000Y19000D02*
D03*
X-26500Y3500D02*
D03*
X-24000Y7500D02*
D03*
X-19000Y8000D02*
D03*
X-21500Y5000D02*
D03*
X-74158Y36500D02*
D03*
X-94000Y36500D02*
D03*
X-71500Y29000D02*
D03*
X-87240Y-921D02*
D03*
X-104000Y52500D02*
D03*
X-153500Y63453D02*
D03*
X-139500Y63388D02*
D03*
X-160854Y68388D02*
D03*
X-169500Y73453D02*
D03*
X-23500Y112406D02*
D03*
X-28500Y87500D02*
D03*
X-48000Y88500D02*
D03*
X-57500Y110500D02*
D03*
D94*
X21976Y-36906D02*
D03*
Y-26906D02*
D03*
X112185Y-36906D02*
D03*
Y-26906D02*
D03*
D95*
X-42500Y142697D02*
D03*
X-70098D02*
D03*
X-80059D02*
D03*
X-107658D02*
D03*
D96*
X-102717Y152500D02*
D03*
X-85000D02*
D03*
X-65158D02*
D03*
X-47441D02*
D03*
D97*
X93339Y139579D02*
D03*
X90780D02*
D03*
X88221D02*
D03*
X85661D02*
D03*
Y149421D02*
D03*
X88221D02*
D03*
X90780D02*
D03*
X93339D02*
D03*
X178339Y139579D02*
D03*
X175779D02*
D03*
X173221D02*
D03*
X170661D02*
D03*
Y149421D02*
D03*
X173221D02*
D03*
X175779D02*
D03*
X178339D02*
D03*
D98*
X98000Y145516D02*
D03*
Y143547D02*
D03*
Y141579D02*
D03*
Y139610D02*
D03*
Y137642D02*
D03*
X80677D02*
D03*
Y139610D02*
D03*
Y141579D02*
D03*
Y143547D02*
D03*
Y145516D02*
D03*
X183161D02*
D03*
Y143547D02*
D03*
Y141579D02*
D03*
Y139610D02*
D03*
Y137642D02*
D03*
X165839D02*
D03*
Y139610D02*
D03*
Y141579D02*
D03*
Y143547D02*
D03*
Y145516D02*
D03*
D99*
X-48000Y129402D02*
D03*
D100*
X-57055Y104598D02*
D03*
X-48000D02*
D03*
X-38945D02*
D03*
D101*
X-24500Y100221D02*
D03*
Y112031D02*
D03*
X67216Y147406D02*
D03*
Y135594D02*
D03*
X155815Y147406D02*
D03*
Y135594D02*
D03*
D102*
X-17000Y-112646D02*
D03*
X-22000D02*
D03*
X-27000D02*
D03*
X-32000D02*
D03*
Y-134000D02*
D03*
X-27000D02*
D03*
X-22000D02*
D03*
X-17000D02*
D03*
X9264Y-112323D02*
D03*
X4264D02*
D03*
X-736D02*
D03*
X-5736D02*
D03*
Y-133677D02*
D03*
X-736D02*
D03*
X4264D02*
D03*
X9264D02*
D03*
D103*
X-72500Y-70284D02*
D03*
Y-5717D02*
D03*
D104*
X-139500Y73388D02*
D03*
Y68388D02*
D03*
Y63388D02*
D03*
Y58388D02*
D03*
X-160854D02*
D03*
Y63388D02*
D03*
Y68388D02*
D03*
Y73388D02*
D03*
D105*
X-37764Y94500D02*
D03*
X-48000D02*
D03*
D106*
X-2034Y159500D02*
D03*
X-24967D02*
D03*
D107*
X-24524Y150445D02*
D03*
X-2476D02*
D03*
D108*
X-8382Y149028D02*
D03*
X-10941D02*
D03*
X-13500D02*
D03*
X-16059D02*
D03*
X-18618D02*
D03*
D109*
X165748Y-23500D02*
D03*
X148819D02*
D03*
X165748Y-59000D02*
D03*
X148819D02*
D03*
X58720D02*
D03*
X75650D02*
D03*
X58220Y-23500D02*
D03*
X75150D02*
D03*
D110*
X177165Y-57276D02*
D03*
X184646D02*
D03*
X180905Y-66724D02*
D03*
X91535D02*
D03*
X95276Y-57276D02*
D03*
X87795D02*
D03*
M02*
