G04*
G04 #@! TF.GenerationSoftware,Altium Limited,Altium Designer,19.0.10 (269)*
G04*
G04 Layer_Color=8388736*
%FSLAX25Y25*%
%MOIN*%
G70*
G01*
G75*
%ADD38C,0.11800*%
%ADD39R,0.06706X0.05524*%
%ADD40R,0.05524X0.02572*%
%ADD41R,0.04343X0.03556*%
%ADD42R,0.05524X0.06706*%
%ADD43R,0.02769X0.03950*%
%ADD44R,0.04737X0.02375*%
%ADD45R,0.06706X0.10642*%
%ADD46R,0.03556X0.04343*%
%ADD47R,0.03950X0.04343*%
%ADD48R,0.03162X0.05328*%
%ADD49R,0.03950X0.02769*%
%ADD50R,0.02965X0.02178*%
%ADD51R,0.03556X0.07099*%
%ADD52R,0.04343X0.03950*%
%ADD53R,0.03556X0.04540*%
%ADD54R,0.08280X0.05131*%
%ADD55C,0.07296*%
%ADD56C,0.05918*%
%ADD57C,0.06824*%
%ADD58R,0.06824X0.06824*%
%ADD59C,0.11430*%
%ADD60R,0.07887X0.07887*%
%ADD61C,0.07887*%
%ADD62C,0.07099*%
%ADD63C,0.08674*%
%ADD64C,0.06706*%
%ADD65R,0.06706X0.06706*%
%ADD66C,0.06800*%
%ADD67C,0.06902*%
%ADD68R,0.06800X0.06800*%
%ADD69C,0.24422*%
%ADD70C,0.16548*%
%ADD71C,0.10642*%
D38*
X-35000Y60500D02*
D03*
X-45000Y87500D02*
D03*
X-28500D02*
D03*
D39*
X3626Y95563D02*
D03*
X19374D02*
D03*
X11500D02*
D03*
X3752Y87063D02*
D03*
X19500D02*
D03*
X11626D02*
D03*
D40*
X-5579Y107839D02*
D03*
Y105280D02*
D03*
Y102720D02*
D03*
Y100161D02*
D03*
X-15421D02*
D03*
Y102720D02*
D03*
Y105280D02*
D03*
Y107839D02*
D03*
D41*
X11500Y-52953D02*
D03*
Y-47047D02*
D03*
X-169500Y67547D02*
D03*
Y73453D02*
D03*
X112185Y-49047D02*
D03*
Y-54953D02*
D03*
X-163000Y68547D02*
D03*
Y74453D02*
D03*
X-153500Y63453D02*
D03*
Y57547D02*
D03*
X-153500Y68547D02*
D03*
Y74453D02*
D03*
D42*
X134000Y137126D02*
D03*
Y152874D02*
D03*
Y145000D02*
D03*
X126500Y137126D02*
D03*
Y152874D02*
D03*
Y145000D02*
D03*
X116000Y137126D02*
D03*
Y152874D02*
D03*
Y145000D02*
D03*
X108000Y137126D02*
D03*
Y152874D02*
D03*
Y145000D02*
D03*
D43*
X-131500Y-65000D02*
D03*
X-134500D02*
D03*
X-123000D02*
D03*
X-126000D02*
D03*
Y-72000D02*
D03*
X-123000D02*
D03*
X-134500D02*
D03*
X-131500D02*
D03*
X-74500Y-1000D02*
D03*
X-71500D02*
D03*
D44*
X-52217Y17776D02*
D03*
Y20925D02*
D03*
Y24075D02*
D03*
Y27224D02*
D03*
X-66783D02*
D03*
Y24075D02*
D03*
Y20925D02*
D03*
Y17776D02*
D03*
D45*
X-59500Y22500D02*
D03*
D46*
X-66953Y5500D02*
D03*
X-61047D02*
D03*
X-93843Y36500D02*
D03*
X-87937D02*
D03*
X-74158Y36500D02*
D03*
X-80063D02*
D03*
X-45047Y111000D02*
D03*
X-50953D02*
D03*
D47*
X-61244Y11185D02*
D03*
X-66756D02*
D03*
X-147744Y52500D02*
D03*
X-153256D02*
D03*
X-147744Y79500D02*
D03*
X-153256D02*
D03*
D48*
X-79760Y8921D02*
D03*
X-83500D02*
D03*
X-87240D02*
D03*
Y-921D02*
D03*
X-79760D02*
D03*
D49*
X-79500Y-10000D02*
D03*
Y-7000D02*
D03*
D50*
X-80059Y20000D02*
D03*
Y23937D02*
D03*
X-87343D02*
D03*
Y20000D02*
D03*
D51*
X-83701Y21969D02*
D03*
D52*
X-146000Y68256D02*
D03*
Y62744D02*
D03*
D53*
X-51445Y117000D02*
D03*
X-44555D02*
D03*
D54*
X-41500Y14579D02*
D03*
Y24421D02*
D03*
D55*
X112185Y33094D02*
D03*
Y13094D02*
D03*
X21976Y33094D02*
D03*
Y13094D02*
D03*
X134500Y-151500D02*
D03*
X124500D02*
D03*
X114500D02*
D03*
X45500D02*
D03*
X35500D02*
D03*
X25500D02*
D03*
D56*
X112185Y-26906D02*
D03*
Y-36906D02*
D03*
X21976Y-26906D02*
D03*
Y-36906D02*
D03*
D57*
X-120500Y-14000D02*
D03*
X-180500D02*
D03*
X-120500Y-4000D02*
D03*
X-180500D02*
D03*
X-120500Y6000D02*
D03*
X-180500D02*
D03*
X-120500Y16000D02*
D03*
X-180500D02*
D03*
X-120500Y26000D02*
D03*
X-180500D02*
D03*
X-120500Y36000D02*
D03*
X-180500D02*
D03*
X-120500Y46000D02*
D03*
X-180500D02*
D03*
X-120500Y56000D02*
D03*
X-180500D02*
D03*
X-120500Y66000D02*
D03*
X-180500D02*
D03*
X-120500Y76000D02*
D03*
X-180500D02*
D03*
X-120500Y86000D02*
D03*
X-180500D02*
D03*
X-120500Y96000D02*
D03*
X-180500D02*
D03*
X-120500Y106000D02*
D03*
X-180500D02*
D03*
X-120500Y116000D02*
D03*
X-180500D02*
D03*
D58*
X-120500Y126000D02*
D03*
X-180500D02*
D03*
D59*
X67216Y-126000D02*
D03*
X86901D02*
D03*
X-3658Y125906D02*
D03*
X-23343D02*
D03*
X67216Y125500D02*
D03*
X86901D02*
D03*
X155815D02*
D03*
X175500D02*
D03*
Y-126000D02*
D03*
X155815D02*
D03*
D60*
X-3000Y-151500D02*
D03*
X-29500D02*
D03*
D61*
X7000D02*
D03*
X-19500D02*
D03*
D62*
X-72500Y-52665D02*
D03*
D63*
Y-23335D02*
D03*
X-70098Y142697D02*
D03*
X-42500D02*
D03*
X-107658D02*
D03*
X-80059D02*
D03*
D64*
X-97937Y128500D02*
D03*
D65*
X-87937D02*
D03*
D66*
X-72189Y53167D02*
D03*
X-95811D02*
D03*
X-87937D02*
D03*
X-80063D02*
D03*
X-72189Y73888D02*
D03*
X-95811D02*
D03*
X-87937D02*
D03*
X-80063D02*
D03*
X-95811Y90279D02*
D03*
X-72189D02*
D03*
X-80063D02*
D03*
X-87937D02*
D03*
X-95811Y111000D02*
D03*
X-72189D02*
D03*
X-80063D02*
D03*
X-87937D02*
D03*
X-124000Y-52500D02*
D03*
X-134000D02*
D03*
X-144000D02*
D03*
X-154000D02*
D03*
X-164000D02*
D03*
X-174000D02*
D03*
D67*
X-65158Y152500D02*
D03*
X-47441D02*
D03*
X-102717D02*
D03*
X-85000D02*
D03*
D68*
X-184000Y-52500D02*
D03*
D69*
X-157283Y-96063D02*
D03*
Y96063D02*
D03*
D70*
X157283D02*
D03*
D71*
X132193Y15872D02*
D03*
Y63903D02*
D03*
X179437Y15872D02*
D03*
Y63903D02*
D03*
X155815Y71777D02*
D03*
X43595Y15872D02*
D03*
Y63903D02*
D03*
X90838Y15872D02*
D03*
Y63903D02*
D03*
X67216Y71777D02*
D03*
X179437Y-29563D02*
D03*
Y-77595D02*
D03*
X132193Y-29563D02*
D03*
Y-77595D02*
D03*
X155815Y-85469D02*
D03*
X90838Y-29563D02*
D03*
Y-77595D02*
D03*
X43595Y-29563D02*
D03*
Y-77595D02*
D03*
X67216Y-85469D02*
D03*
M02*
